<?xml version="1.0" encoding="UTF-8"?>
<svg id="Layer_2" data-name="Layer 2" xmlns="http://www.w3.org/2000/svg" viewBox="0 0 500 500">
  <defs>
    <style>
      .cls-1 {
        fill: #ffda03;
      }

      .cls-2 {
        fill: #1a1a1a;
      }
    </style>
  </defs>
  <g id="Camada_1" data-name="Camada 1">
    <rect class="cls-1" width="500" height="500"/>
    <g>
      <path class="cls-2" d="M409.13,169.21c-6.91-33.93-19.97-62.56-39.18-85.88-19.21-23.31-42.7-39.84-70.47-49.57-27.76-9.72-57.54-11.36-89.35-4.88-31.4,6.39-57.15,18.92-77.25,37.56-20.1,18.65-33.89,42.04-41.37,70.16-7.48,28.13-7.72,59.37-.73,93.69,6.91,33.93,19.97,62.56,39.18,85.88,16.47,20,36.03,35,58.64,45.03l31.75-49.61,13.31,3.42,4.55,58.97c16.47,1.4,33.65.29,51.55-3.36,31.4-6.39,57.15-18.91,77.25-37.56,20.1-18.64,33.91-41.93,41.43-69.86,7.52-27.93,7.74-59.26.67-93.99ZM379.84,216.41c-9.64,15.98-25.88,29.99-48.73,42.02-22.85,12.03-52.36,21.73-88.56,29.1-23.33,4.75-44.31,5.83-62.96,3.23-18.63-2.59-33.86-8.6-45.7-17.99-11.83-9.4-19.24-21.41-22.22-36.05-4.04-19.84-1.23-37.75,8.4-53.73,9.65-15.98,25.91-29.86,48.8-41.66,22.9-11.79,52.45-21.38,88.63-28.75,23.34-4.75,44.33-5.82,62.95-3.23,18.64,2.6,33.82,8.36,45.55,17.28,11.75,8.93,19.14,20.94,22.22,36.05,4.04,19.84,1.24,37.74-8.41,53.73Z"/>
      <path class="cls-2" d="M188.62,361.2l-53.69,83.89,1.9,3.61,104.94,26.3,4.16-1.4-7.68-99.62c-13.15-1.12-25.86-3.84-38.1-8.18-3.93-1.39-7.76-2.94-11.52-4.6Z"/>
    </g>
  </g>
</svg>