<?xml version="1.0" encoding="UTF-8"?>
<svg id="Layer_2" data-name="Layer 2" xmlns="http://www.w3.org/2000/svg" viewBox="0 0 450 75.72">
  <defs>
    <style>
      .cls-1 {
        fill: #1a1a1a;
      }
    </style>
  </defs>
  <g id="Camada_1" data-name="Camada 1">
    <g>
      <path class="cls-1" d="M85.88,67.33c-.35-.26-.75-.46-1.18-.61.53-.24.97-.57,1.31-1,.48-.61.72-1.35.72-2.22s-.18-1.61-.54-2.21c-.36-.6-.89-1.06-1.59-1.36-.7-.31-1.56-.46-2.59-.46h-6.68v16.02h6.91c.84,0,1.59-.1,2.24-.31.66-.21,1.22-.51,1.68-.9.47-.4.82-.89,1.05-1.48.24-.59.35-1.26.35-2.03s-.15-1.41-.45-1.99c-.3-.58-.71-1.06-1.25-1.45ZM77.8,61.85h3.8c.85,0,1.51.18,1.97.55.46.37.69.89.69,1.58,0,.41-.1.78-.31,1.1-.21.32-.49.57-.85.76-.36.18-.77.27-1.22.27h-4.07v-4.26ZM84.7,72.03c-.24.36-.57.63-1.01.81-.43.18-.97.27-1.59.27h-4.3v-4.62h4.19c.63,0,1.17.09,1.63.26.46.18.81.43,1.06.77.25.34.38.74.38,1.21,0,.5-.12.93-.35,1.29Z"/>
      <path class="cls-1" d="M103.24,61.6c-.71-.75-1.54-1.33-2.49-1.74-.95-.41-2-.62-3.12-.62s-2.17.21-3.12.62c-.95.41-1.78.99-2.49,1.73-.71.74-1.26,1.61-1.65,2.61-.39,1-.58,2.09-.58,3.28s.19,2.29.58,3.28c.39,1,.94,1.87,1.65,2.61.71.74,1.54,1.32,2.49,1.73.95.41,1.99.62,3.12.62s2.17-.21,3.12-.62c.95-.41,1.79-.99,2.49-1.74.71-.75,1.26-1.62,1.65-2.62.39-1,.58-2.09.58-3.26s-.19-2.26-.58-3.26c-.39-1-.94-1.87-1.65-2.62ZM102.55,69.81c-.27.71-.64,1.33-1.11,1.85-.47.53-1.03.93-1.68,1.22-.65.29-1.36.43-2.14.43s-1.49-.14-2.14-.43c-.65-.29-1.21-.69-1.69-1.21-.48-.52-.85-1.14-1.11-1.85-.26-.72-.39-1.5-.39-2.33s.13-1.64.39-2.35c.26-.71.63-1.32,1.11-1.84.48-.52,1.04-.92,1.69-1.21.65-.29,1.36-.43,2.14-.43s1.49.15,2.14.43c.65.29,1.21.7,1.68,1.22.47.53.84,1.14,1.11,1.85.27.71.4,1.48.4,2.32s-.13,1.61-.4,2.32Z"/>
      <path class="cls-1" d="M121.14,61.6c-.71-.75-1.54-1.33-2.49-1.74-.95-.41-2-.62-3.12-.62s-2.17.21-3.12.62c-.95.41-1.78.99-2.49,1.73-.71.74-1.26,1.61-1.65,2.61-.39,1-.58,2.09-.58,3.28s.19,2.29.58,3.28c.39,1,.94,1.87,1.65,2.61.71.74,1.54,1.32,2.49,1.73.95.41,1.99.62,3.12.62s2.17-.21,3.12-.62c.95-.41,1.79-.99,2.49-1.74.71-.75,1.26-1.62,1.65-2.62.39-1,.58-2.09.58-3.26s-.19-2.26-.58-3.26c-.39-1-.94-1.87-1.65-2.62ZM120.45,69.81c-.27.71-.64,1.33-1.11,1.85-.47.53-1.03.93-1.68,1.22-.65.29-1.36.43-2.14.43s-1.49-.14-2.14-.43c-.65-.29-1.21-.69-1.69-1.21-.48-.52-.85-1.14-1.11-1.85-.26-.72-.39-1.5-.39-2.33s.13-1.64.39-2.35c.26-.71.63-1.32,1.11-1.84.48-.52,1.04-.92,1.69-1.21.65-.29,1.36-.43,2.14-.43s1.49.15,2.14.43c.65.29,1.21.7,1.68,1.22.47.53.84,1.14,1.11,1.85.27.71.4,1.48.4,2.32s-.13,1.61-.4,2.32Z"/>
      <polygon class="cls-1" points="140.28 59.47 137.03 59.47 129.18 67.32 129.18 59.47 126.71 59.47 126.71 75.49 129.18 75.49 129.18 70.24 131.63 67.87 137.33 75.49 140.42 75.49 133.37 66.18 140.28 59.47"/>
      <polygon class="cls-1" points="157.04 59.47 153.79 59.47 145.94 67.32 145.94 59.47 143.47 59.47 143.47 75.49 145.94 75.49 145.94 70.24 148.38 67.87 154.08 75.49 157.17 75.49 150.13 66.18 157.04 59.47"/>
      <polygon class="cls-1" points="160.22 75.49 170.31 75.49 170.31 73.11 162.69 73.11 162.69 68.47 169.05 68.47 169.05 66.09 162.69 66.09 162.69 61.85 170.31 61.85 170.31 59.47 160.22 59.47 160.22 75.49"/>
      <polygon class="cls-1" points="174.27 75.49 184.36 75.49 184.36 73.11 176.74 73.11 176.74 68.47 183.11 68.47 183.11 66.09 176.74 66.09 176.74 61.85 184.36 61.85 184.36 59.47 174.27 59.47 174.27 75.49"/>
      <path class="cls-1" d="M197.22,60.13c-.71-.43-1.5-.65-2.37-.65h-6.52v16.02h2.47v-6.13h4.05c.87,0,1.66-.23,2.37-.68.71-.45,1.28-1.05,1.71-1.8.43-.75.64-1.58.64-2.49s-.21-1.75-.64-2.49c-.43-.75-1-1.34-1.71-1.77ZM196.73,65.69c-.21.39-.48.7-.81.94-.34.24-.71.35-1.12.35h-4.01v-5.13h4.01c.41,0,.79.11,1.12.34.34.23.61.53.81.92.21.38.31.81.31,1.28s-.1.9-.31,1.29Z"/>
      <polygon class="cls-1" points="202.24 61.76 204.83 61.76 204.83 73.21 202.24 73.21 202.24 75.49 209.88 75.49 209.88 73.21 207.3 73.21 207.3 61.76 209.88 61.76 209.88 59.47 202.24 59.47 202.24 61.76"/>
      <path class="cls-1" d="M224.97,64.74c0,.67,0,1.32.02,1.95.01.63.03,1.22.06,1.8.02.57.05,1.11.09,1.62.04.51.08.99.13,1.44.01.14.03.27.05.4l-9.31-12.47h-2.22v16.02h2.47v-6.66c0-.14,0-.3-.01-.48,0-.18-.02-.42-.03-.7-.02-.28-.04-.65-.08-1.1-.04-.45-.08-1-.14-1.65-.04-.47-.08-1.02-.13-1.64l9.32,12.23h2.27v-16.02h-2.47v5.26Z"/>
      <path class="cls-1" d="M246.18,67.77c-.02-.16-.04-.32-.07-.49h-7.1v2.45h4.55v.14c0,.47-.11.92-.34,1.34-.23.42-.55.79-.96,1.11-.41.32-.88.57-1.42.74-.53.18-1.1.26-1.69.26-.79,0-1.54-.15-2.25-.46-.71-.3-1.34-.72-1.88-1.26-.54-.53-.97-1.16-1.27-1.87-.31-.71-.46-1.46-.46-2.25s.14-1.58.44-2.28c.29-.69.7-1.3,1.22-1.82.53-.52,1.14-.92,1.83-1.21.69-.29,1.45-.43,2.28-.43.5,0,1.01.08,1.51.23.5.15,1,.37,1.48.66.48.29.95.66,1.41,1.1l1.6-1.67c-.4-.53-.91-1.01-1.53-1.42-.63-.41-1.32-.73-2.09-.96-.77-.23-1.56-.34-2.37-.34-1.16,0-2.24.21-3.25.62-1.01.41-1.89.99-2.64,1.73-.76.74-1.34,1.61-1.76,2.6-.42.99-.63,2.06-.63,3.2s.21,2.24.63,3.24c.42,1,1.01,1.87,1.77,2.62.76.75,1.65,1.33,2.65,1.75,1.01.42,2.09.63,3.25.63,1.01,0,1.94-.17,2.8-.52.86-.34,1.62-.83,2.27-1.45.65-.63,1.16-1.37,1.52-2.23.37-.86.55-1.82.55-2.87,0-.14,0-.28-.01-.42,0-.14-.02-.3-.03-.46Z"/>
      <polygon class="cls-1" points="86.59 37.95 94.13 37.95 101.23 37.95 102.27 37.95 102.37 27.78 101.28 27.78 94.82 35 86.59 35.54 86.59 7.94 90.41 4.76 90.41 3.72 75.33 3.72 75.33 4.76 78.95 7.94 78.95 33.74 75.33 36.91 75.33 37.95 84.56 37.95 86.59 37.95"/>
      <path class="cls-1" d="M128.55,32.69l-1.44-1.19c-1.75,1.72-4.02,2.58-6.8,2.58-2.41,0-4.31-.81-5.68-2.43-1.29-1.52-1.97-3.58-2.04-6.15h16.6c0-2.58-.44-4.82-1.31-6.72-.88-1.9-2.1-3.37-3.67-4.39-1.57-1.02-3.42-1.54-5.53-1.54-2.65,0-4.98.59-6.99,1.76-2.02,1.17-3.6,2.8-4.74,4.86-1.14,2.07-1.71,4.47-1.71,7.22,0,2.32.54,4.38,1.61,6.2,1.07,1.82,2.55,3.23,4.44,4.24,1.89,1.01,4.05,1.51,6.5,1.51s4.53-.53,6.45-1.59c1.92-1.06,3.36-2.51,4.32-4.37ZM113.19,20.29c.41-1.36,1.01-2.4,1.79-3.13.78-.73,1.66-1.09,2.65-1.09,1.26,0,2.27.5,3.03,1.51.76,1.01,1.14,2.49,1.14,4.44l-9.15,1.3c.09-1.1.27-2.12.55-3.03Z"/>
      <path class="cls-1" d="M149.68,13.42c-1.35-.38-2.83-.57-4.46-.57-2.55,0-4.75.36-6.6,1.09-1.85.73-3.27,1.77-4.27,3.13-.99,1.36-1.49,2.99-1.49,4.91,0,1.65.49,3.12,1.46,4.39.6.79,1.35,1.47,2.24,2.05-.61.17-1.18.42-1.69.78-.78.55-1.39,1.23-1.84,2.06-.45.83-.67,1.75-.67,2.78,0,1.75.59,3.17,1.76,4.24.59.54,1.28.95,2.06,1.22v.15c-1.32.2-2.41.71-3.27,1.54-.86.83-1.29,1.8-1.29,2.93,0,1.29.55,2.41,1.64,3.35,1.09.94,2.64,1.67,4.64,2.18,2,.51,4.41.77,7.22.77s5.42-.41,7.62-1.22c2.2-.81,3.93-1.93,5.18-3.37,1.26-1.44,1.89-3.1,1.89-4.99,0-2.22-.85-3.97-2.56-5.26-1.7-1.29-4.04-1.94-7.02-1.94h-9.13c-1.26,0-2.2-.17-2.83-.52-.63-.35-.94-.88-.94-1.61,0-.63.2-1.11.6-1.44.28-.23.64-.38,1.07-.45,1.57.56,3.34.85,5.33.85,2.55,0,4.75-.36,6.6-1.09,1.85-.73,3.27-1.78,4.27-3.15.99-1.37,1.49-3,1.49-4.89,0-1.65-.49-3.12-1.46-4.39-.73-.95-1.66-1.75-2.8-2.39v-.16l7,.6.4-.4v-6.6h-.99l-9.14,5.43ZM139.76,39.89h9.67c1.42,0,2.56.32,3.4.97.84.64,1.26,1.5,1.26,2.55,0,1.26-.71,2.28-2.13,3.08-1.42.79-3.24,1.19-5.46,1.19-2.48,0-4.49-.41-6.03-1.24-1.54-.83-2.31-1.92-2.31-3.27,0-1.52.53-2.61,1.59-3.27ZM148.37,26.37c-.78.88-1.88,1.31-3.3,1.31-1.52,0-2.75-.64-3.67-1.93-.93-1.29-1.39-2.96-1.39-5.01,0-1.65.39-2.92,1.17-3.8.78-.88,1.88-1.31,3.3-1.31,1.52,0,2.75.64,3.67,1.91.93,1.27,1.39,2.95,1.39,5.04,0,1.65-.39,2.92-1.17,3.8Z"/>
      <path class="cls-1" d="M168.86,10.02c1.36,0,2.46-.4,3.32-1.19.86-.79,1.29-1.82,1.29-3.08s-.43-2.23-1.29-3.03c-.86-.79-1.97-1.19-3.32-1.19s-2.51.4-3.37,1.19c-.86.79-1.29,1.8-1.29,3.03s.43,2.28,1.29,3.08c.86.79,1.98,1.19,3.37,1.19Z"/>
      <polygon class="cls-1" points="165.19 34.01 161.96 37.16 161.96 37.95 175.51 37.95 175.51 37.16 172.23 34.01 172.23 13.2 170.84 13.2 161.66 16.32 161.66 17.31 165.19 20.56 165.19 34.01"/>
      <path class="cls-1" d="M205.3,24.61c0-2.35-.43-4.4-1.29-6.15-.86-1.75-2.07-3.13-3.62-4.12-1.55-.99-3.37-1.49-5.46-1.49-1.55,0-3.08.39-4.59,1.17-1.46.75-2.65,1.77-3.6,3.03V0h-1.39l-9.13,3.32v.99l3.47,3.2v31.14h.94l3.7-1.93c1.79,1.28,4.14,1.93,7.06,1.93,2.71,0,5.12-.6,7.22-1.79,2.1-1.19,3.74-2.84,4.91-4.96,1.17-2.12,1.76-4.55,1.76-7.29ZM197.11,31.28c-.56,1.44-1.36,2.54-2.38,3.3-1.03.76-2.27,1.14-3.72,1.14s-2.74-.31-3.85-.92c-.14-.08-.28-.16-.42-.25v-15.1c.61-.52,1.24-.92,1.91-1.22.94-.41,1.98-.62,3.1-.62,1.92,0,3.43.74,4.54,2.23,1.11,1.49,1.66,3.57,1.66,6.25,0,2.02-.28,3.75-.84,5.18Z"/>
      <polygon class="cls-1" points="210.43 34.01 207.21 37.16 207.21 37.95 220.75 37.95 220.75 37.16 217.48 34.01 217.48 0 216.09 0 206.91 3.32 206.91 4.32 210.43 7.53 210.43 34.01"/>
      <path class="cls-1" d="M241.24,14.39c-1.57-1.02-3.42-1.54-5.53-1.54-2.65,0-4.98.59-7,1.76-2.02,1.17-3.6,2.8-4.74,4.86-1.14,2.07-1.71,4.47-1.71,7.22,0,2.32.54,4.38,1.61,6.2,1.07,1.82,2.55,3.23,4.44,4.24,1.89,1.01,4.05,1.51,6.5,1.51s4.53-.53,6.45-1.59c1.92-1.06,3.36-2.51,4.32-4.37l-1.44-1.19c-1.75,1.72-4.02,2.58-6.8,2.58-2.41,0-4.31-.81-5.68-2.43-1.29-1.52-1.97-3.58-2.04-6.15h16.6c0-2.58-.44-4.82-1.32-6.72-.88-1.9-2.1-3.37-3.67-4.39ZM229.68,23.32c.09-1.1.27-2.12.55-3.03.41-1.36,1.01-2.4,1.79-3.13.78-.73,1.66-1.09,2.65-1.09,1.26,0,2.27.5,3.03,1.51.76,1.01,1.14,2.49,1.14,4.44l-9.15,1.3Z"/>
      <polygon class="cls-1" points="281.99 35 273.76 35.54 273.76 7.94 277.58 4.76 277.58 3.72 262.5 3.72 262.5 4.76 266.12 7.94 266.12 33.74 262.5 36.91 262.5 37.95 271.73 37.95 273.76 37.95 281.3 37.95 288.4 37.95 289.44 37.95 289.54 27.78 288.45 27.78 281.99 35"/>
      <path class="cls-1" d="M315.05,18.78c-.88-1.9-2.1-3.37-3.67-4.39-1.57-1.02-3.42-1.54-5.53-1.54-2.65,0-4.98.59-7,1.76-2.02,1.17-3.6,2.8-4.74,4.86-1.14,2.07-1.71,4.47-1.71,7.22,0,2.32.54,4.38,1.61,6.2,1.07,1.82,2.56,3.23,4.44,4.24,1.89,1.01,4.05,1.51,6.5,1.51s4.53-.53,6.45-1.59c1.92-1.06,3.36-2.51,4.32-4.37l-1.44-1.19c-1.75,1.72-4.02,2.58-6.8,2.58-2.41,0-4.31-.81-5.68-2.43-1.29-1.52-1.97-3.58-2.04-6.15h16.6c0-2.58-.44-4.82-1.31-6.72ZM299.82,23.32c.09-1.1.27-2.12.55-3.03.41-1.36,1.01-2.4,1.79-3.13.78-.73,1.66-1.09,2.65-1.09,1.26,0,2.27.5,3.03,1.51.76,1.01,1.14,2.49,1.14,4.44l-9.15,1.3Z"/>
      <path class="cls-1" d="M344.85,0h-1.39l-9.18,3.32v.99l3.52,3.21v6.03c-1.35-.47-2.88-.71-4.61-.71-2.75,0-5.16.6-7.24,1.79-2.08,1.19-3.72,2.85-4.91,4.96-1.19,2.12-1.79,4.55-1.79,7.29,0,2.35.44,4.41,1.31,6.18.88,1.77,2.09,3.14,3.65,4.12,1.55.98,3.36,1.46,5.41,1.46,1.59,0,3.13-.38,4.64-1.14,1.5-.76,2.74-1.8,3.7-3.13h.4l1.79,4.22h1.09l6.7-3.18v-.99l-3.08-2.75V0ZM337.81,32.09c-.58.52-1.2.93-1.86,1.22-.94.41-1.98.62-3.1.62-1.95,0-3.47-.75-4.56-2.26-1.09-1.5-1.64-3.58-1.64-6.23,0-2.05.27-3.8.82-5.23.55-1.44,1.34-2.53,2.38-3.27,1.04-.74,2.29-1.12,3.75-1.12s2.7.31,3.82.92c.13.07.27.15.4.23v15.12Z"/>
      <path class="cls-1" d="M367.8,13.42c-1.35-.38-2.83-.57-4.46-.57-2.55,0-4.75.36-6.6,1.09-1.85.73-3.27,1.77-4.27,3.13-.99,1.36-1.49,2.99-1.49,4.91,0,1.65.49,3.12,1.46,4.39.6.79,1.35,1.47,2.24,2.05-.61.17-1.18.42-1.69.78-.78.55-1.39,1.23-1.84,2.06-.45.83-.67,1.75-.67,2.78,0,1.75.59,3.17,1.76,4.24.59.54,1.28.95,2.06,1.22v.15c-1.32.2-2.41.71-3.27,1.54-.86.83-1.29,1.8-1.29,2.93,0,1.29.55,2.41,1.64,3.35,1.09.94,2.64,1.67,4.64,2.18,2,.51,4.41.77,7.22.77s5.42-.41,7.62-1.22c2.2-.81,3.93-1.93,5.18-3.37,1.26-1.44,1.89-3.1,1.89-4.99,0-2.22-.85-3.97-2.56-5.26-1.7-1.29-4.04-1.94-7.02-1.94h-9.13c-1.26,0-2.2-.17-2.83-.52-.63-.35-.94-.88-.94-1.61,0-.63.2-1.11.59-1.44.28-.23.64-.38,1.07-.45,1.57.56,3.34.85,5.33.85,2.55,0,4.75-.36,6.6-1.09,1.85-.73,3.27-1.78,4.27-3.15.99-1.37,1.49-3,1.49-4.89,0-1.65-.49-3.12-1.46-4.39-.73-.95-1.66-1.75-2.8-2.39v-.16l7,.6.4-.4v-6.6h-.99l-9.14,5.43ZM357.88,39.89h9.67c1.42,0,2.56.32,3.4.97.84.64,1.26,1.5,1.26,2.55,0,1.26-.71,2.28-2.13,3.08-1.42.79-3.24,1.19-5.46,1.19-2.48,0-4.49-.41-6.03-1.24-1.54-.83-2.31-1.92-2.31-3.27,0-1.52.53-2.61,1.59-3.27ZM366.49,26.37c-.78.88-1.88,1.31-3.3,1.31-1.52,0-2.75-.64-3.67-1.93-.93-1.29-1.39-2.96-1.39-5.01,0-1.65.39-2.92,1.17-3.8.78-.88,1.88-1.31,3.3-1.31,1.52,0,2.75.64,3.67,1.91.93,1.27,1.39,2.95,1.39,5.04,0,1.65-.39,2.92-1.17,3.8Z"/>
      <path class="cls-1" d="M401.39,18.78c-.88-1.9-2.1-3.37-3.67-4.39-1.57-1.02-3.42-1.54-5.53-1.54-2.65,0-4.98.59-7,1.76-2.02,1.17-3.6,2.8-4.74,4.86-1.14,2.07-1.71,4.47-1.71,7.22,0,2.32.54,4.38,1.61,6.2,1.07,1.82,2.56,3.23,4.44,4.24,1.89,1.01,4.05,1.51,6.5,1.51s4.53-.53,6.45-1.59c1.92-1.06,3.36-2.51,4.32-4.37l-1.44-1.19c-1.75,1.72-4.02,2.58-6.8,2.58-2.41,0-4.31-.81-5.68-2.43-1.29-1.52-1.97-3.58-2.04-6.15h16.6c0-2.58-.44-4.82-1.31-6.72ZM386.15,23.32c.09-1.1.27-2.12.55-3.03.41-1.36,1.01-2.4,1.79-3.13.78-.73,1.66-1.09,2.65-1.09,1.26,0,2.27.5,3.03,1.51.76,1.01,1.14,2.49,1.14,4.44l-9.15,1.3Z"/>
      <path class="cls-1" d="M418.61,14.24c-1.46.96-2.65,2.28-3.57,3.97h-.25l.35-5.01h-1.44l-9.08,3.13v.99l3.52,3.34v13.36l-3.22,3.15v.79h15.03v-.79l-4.76-3.39v-13.03c.65-.64,1.45-1.17,2.41-1.59.3-.13.62-.24.94-.34l3.7,3.76h1.14l3.32-9.03c-1.06-.5-2.25-.74-3.57-.74-1.56,0-3.06.48-4.52,1.44Z"/>
      <path class="cls-1" d="M448.91,26.67c-.73-.91-1.67-1.64-2.83-2.21-1.16-.56-2.38-1.02-3.67-1.39-1.29-.36-2.51-.74-3.67-1.12-1.16-.38-2.1-.84-2.83-1.39-.73-.55-1.09-1.27-1.09-2.16,0-.79.36-1.41,1.09-1.86.73-.45,1.74-.67,3.03-.67,1,0,1.96.18,2.88.51l4.12,5.25h1.14l2.78-6.35c-.86-.5-1.86-.93-3-1.29-1.14-.36-2.32-.65-3.55-.84-1.22-.2-2.43-.3-3.62-.3-3.57,0-6.35.69-8.33,2.06-1.98,1.37-2.98,3.3-2.98,5.78,0,1.49.36,2.69,1.09,3.6.73.91,1.67,1.65,2.83,2.21,1.16.56,2.38,1.03,3.67,1.39,1.29.36,2.51.73,3.65,1.09,1.14.36,2.08.82,2.83,1.36s1.12,1.27,1.12,2.16c0,.99-.43,1.77-1.29,2.33-.86.56-2.02.84-3.47.84-1.35,0-2.55-.22-3.6-.63l-4.09-5.57h-1.19l-2.78,6.4c.96.56,2.05,1.05,3.27,1.46,1.22.41,2.52.74,3.89.97,1.37.23,2.69.35,3.94.35,3.77,0,6.67-.73,8.71-2.18,2.03-1.45,3.05-3.55,3.05-6.3,0-1.42-.36-2.59-1.09-3.5Z"/>
      <path class="cls-1" d="M47.58,10.06c-3.22-3.9-7.15-6.67-11.8-8.3C31.13.13,26.15-.14,20.82.94c-5.26,1.07-9.57,3.17-12.93,6.29-3.36,3.12-5.67,7.04-6.92,11.74-1.25,4.71-1.29,9.94-.12,15.68,1.16,5.68,3.34,10.47,6.56,14.37,2.76,3.35,6.03,5.86,9.82,7.54l5.31-8.3,2.23.57.76,9.87c2.76.23,5.63.05,8.63-.56,5.26-1.07,9.57-3.16,12.93-6.29,3.36-3.12,5.68-7.02,6.93-11.69,1.26-4.67,1.3-9.92.11-15.73-1.16-5.68-3.34-10.47-6.56-14.37ZM49.23,32.33c-1.61,2.67-4.33,5.02-8.16,7.03-3.82,2.01-8.76,3.64-14.82,4.87-3.9.8-7.42.98-10.54.54-3.12-.43-5.67-1.44-7.65-3.01-1.98-1.57-3.22-3.58-3.72-6.03-.68-3.32-.21-6.32,1.41-8.99,1.61-2.68,4.34-5,8.17-6.97,3.83-1.97,8.78-3.58,14.84-4.81,3.91-.8,7.42-.97,10.54-.54,3.12.44,5.66,1.4,7.63,2.89,1.97,1.49,3.2,3.51,3.72,6.03.68,3.32.21,6.32-1.41,8.99Z"/>
      <path class="cls-1" d="M17.22,56.57l-8.99,14.04.32.6,17.56,4.4.7-.23-1.29-16.67c-2.2-.19-4.33-.64-6.38-1.37-.66-.23-1.3-.49-1.93-.77Z"/>
    </g>
  </g>
</svg>