<?xml version="1.0" encoding="UTF-8"?>
<svg id="Layer_1" xmlns="http://www.w3.org/2000/svg" version="1.1" viewBox="0 0 100 12.2">
  <!-- Generator: Adobe Illustrator 29.7.1, SVG Export Plug-In . SVG Version: 2.1.1 Build 8)  -->
  <defs>
    <style>
      .st0 {
        fill: #010101;
      }
    </style>
  </defs>
  <g>
    <polygon class="st0" points="2.7 9.2 4.5 9.2 6.3 9.2 6.5 9.2 6.5 6.7 6.3 6.7 4.7 8.5 2.7 8.6 2.7 1.9 3.6 1.2 3.6 .9 0 .9 0 1.2 .9 1.9 .9 8.2 0 8.9 0 9.2 2.2 9.2 2.7 9.2"/>
    <path class="st0" d="M12.9,7.9l-.3-.3c-.4.4-1,.6-1.6.6s-1-.2-1.4-.6c-.3-.4-.5-.9-.5-1.5h4c0-.6-.1-1.2-.3-1.6-.2-.5-.5-.8-.9-1.1-.4-.2-.8-.4-1.3-.4s-1.2.1-1.7.4c-.5.3-.9.7-1.1,1.2-.3.5-.4,1.1-.4,1.7s.1,1.1.4,1.5c.3.4.6.8,1.1,1s1,.4,1.6.4,1.1-.1,1.6-.4c.5-.3.8-.6,1-1.1ZM9.1,4.9c0-.3.2-.6.4-.8.2-.2.4-.3.6-.3s.5.1.7.4c.2.2.3.6.3,1.1l-2.2.3c0-.3,0-.5.1-.7Z"/>
    <path class="st0" d="M18,3.2c-.3,0-.7-.1-1.1-.1-.6,0-1.1,0-1.6.3-.4.2-.8.4-1,.8-.2.3-.4.7-.4,1.2s.1.8.4,1.1c.1.2.3.4.5.5-.1,0-.3.1-.4.2-.2.1-.3.3-.4.5-.1.2-.2.4-.2.7,0,.4.1.8.4,1,.1.1.3.2.5.3h0c-.3,0-.6.2-.8.4-.2.2-.3.4-.3.7s.1.6.4.8c.3.2.6.4,1.1.5.5.1,1.1.2,1.7.2s1.3,0,1.8-.3c.5-.2.9-.5,1.3-.8.3-.3.5-.7.5-1.2s-.2-1-.6-1.3c-.4-.3-1-.5-1.7-.5h-2.2c-.3,0-.5,0-.7-.1-.2,0-.2-.2-.2-.4s0-.3.1-.3c0,0,.2,0,.3-.1.4.1.8.2,1.3.2s1.1,0,1.6-.3c.4-.2.8-.4,1-.8.2-.3.4-.7.4-1.2s-.1-.8-.4-1.1c-.2-.2-.4-.4-.7-.6h0s1.7.1,1.7.1h0v-1.7h-.2l-2.2,1.3ZM15.6,9.6h2.3c.3,0,.6,0,.8.2.2.2.3.4.3.6s-.2.6-.5.7c-.3.2-.8.3-1.3.3s-1.1-.1-1.5-.3c-.4-.2-.6-.5-.6-.8s.1-.6.4-.8ZM17.6,6.4c-.2.2-.5.3-.8.3s-.7-.2-.9-.5c-.2-.3-.3-.7-.3-1.2s0-.7.3-.9c.2-.2.5-.3.8-.3s.7.2.9.5c.2.3.3.7.3,1.2s0,.7-.3.9Z"/>
    <path class="st0" d="M22.6,2.4c.3,0,.6,0,.8-.3.2-.2.3-.4.3-.7s-.1-.5-.3-.7c-.2-.2-.5-.3-.8-.3s-.6,0-.8.3c-.2.2-.3.4-.3.7s.1.6.3.7c.2.2.5.3.8.3Z"/>
    <polygon class="st0" points="21.7 8.2 20.9 9 20.9 9.2 24.2 9.2 24.2 9 23.4 8.2 23.4 3.2 23.1 3.2 20.9 3.9 20.9 4.2 21.7 5 21.7 8.2"/>
    <path class="st0" d="M31.4,5.9c0-.6-.1-1.1-.3-1.5-.2-.4-.5-.8-.9-1-.4-.2-.8-.4-1.3-.4s-.7,0-1.1.3c-.4.2-.6.4-.9.7V0h-.3l-2.2.8v.2l.8.8v7.5h.2l.9-.5c.4.3,1,.5,1.7.5s1.2-.1,1.7-.4c.5-.3.9-.7,1.2-1.2.3-.5.4-1.1.4-1.8ZM29.4,7.6c-.1.3-.3.6-.6.8-.2.2-.5.3-.9.3s-.7,0-.9-.2c0,0,0,0-.1,0v-3.6c.1-.1.3-.2.5-.3.2,0,.5-.1.7-.1.5,0,.8.2,1.1.5.3.4.4.9.4,1.5s0,.9-.2,1.3Z"/>
    <polygon class="st0" points="32.6 8.2 31.9 9 31.9 9.2 35.1 9.2 35.1 9 34.3 8.2 34.3 0 34 0 31.8 .8 31.8 1 32.6 1.8 32.6 8.2"/>
    <path class="st0" d="M40.1,3.5c-.4-.2-.8-.4-1.3-.4s-1.2.1-1.7.4c-.5.3-.9.7-1.1,1.2-.3.5-.4,1.1-.4,1.7s.1,1.1.4,1.5c.3.4.6.8,1.1,1,.5.2,1,.4,1.6.4s1.1-.1,1.6-.4c.5-.3.8-.6,1-1.1l-.3-.3c-.4.4-1,.6-1.6.6s-1-.2-1.4-.6c-.3-.4-.5-.9-.5-1.5h4c0-.6-.1-1.2-.3-1.6-.2-.5-.5-.8-.9-1.1ZM37.3,5.6c0-.3,0-.5.1-.7,0-.3.2-.6.4-.8.2-.2.4-.3.6-.3s.5.1.7.4c.2.2.3.6.3,1.1l-2.2.3Z"/>
  </g>
  <g>
    <polygon class="st0" points="59.4 8.5 57.4 8.6 57.4 1.9 58.3 1.2 58.3 .9 54.7 .9 54.7 1.2 55.6 1.9 55.6 8.2 54.7 8.9 54.7 9.2 56.9 9.2 57.4 9.2 59.2 9.2 61 9.2 61.2 9.2 61.2 6.7 61 6.7 59.4 8.5"/>
    <path class="st0" d="M67.4,4.5c-.2-.5-.5-.8-.9-1.1-.4-.2-.8-.4-1.3-.4s-1.2.1-1.7.4c-.5.3-.9.7-1.1,1.2-.3.5-.4,1.1-.4,1.7s.1,1.1.4,1.5c.3.4.6.8,1.1,1,.5.2,1,.4,1.6.4s1.1-.1,1.6-.4c.5-.3.8-.6,1-1.1l-.3-.3c-.4.4-1,.6-1.6.6s-1-.2-1.4-.6c-.3-.4-.5-.9-.5-1.5h4c0-.6-.1-1.2-.3-1.6ZM63.7,5.6c0-.3,0-.5.1-.7,0-.3.2-.6.4-.8.2-.2.4-.3.6-.3s.5.1.7.4c.2.2.3.6.3,1.1l-2.2.3Z"/>
    <path class="st0" d="M74.6,0h-.3l-2.2.8v.2l.9.8v1.5c-.3-.1-.7-.2-1.1-.2-.7,0-1.2.1-1.8.4-.5.3-.9.7-1.2,1.2-.3.5-.4,1.1-.4,1.8s.1,1.1.3,1.5c.2.4.5.8.9,1,.4.2.8.4,1.3.4s.8,0,1.1-.3c.4-.2.7-.4.9-.8h0l.4,1h.3l1.6-.8v-.2l-.7-.7V0ZM72.9,7.8c-.1.1-.3.2-.4.3-.2.1-.5.1-.7.1-.5,0-.8-.2-1.1-.5-.3-.4-.4-.9-.4-1.5s0-.9.2-1.3c.1-.3.3-.6.6-.8.3-.2.6-.3.9-.3s.7,0,.9.2c0,0,0,0,0,0v3.7Z"/>
    <path class="st0" d="M80.1,3.2c-.3,0-.7-.1-1.1-.1-.6,0-1.1,0-1.6.3-.4.2-.8.4-1,.8-.2.3-.4.7-.4,1.2s.1.8.4,1.1c.1.2.3.4.5.5-.1,0-.3.1-.4.2-.2.1-.3.3-.4.5-.1.2-.2.4-.2.7,0,.4.1.8.4,1,.1.1.3.2.5.3h0c-.3,0-.6.2-.8.4-.2.2-.3.4-.3.7s.1.6.4.8c.3.2.6.4,1.1.5.5.1,1.1.2,1.7.2s1.3,0,1.8-.3c.5-.2.9-.5,1.3-.8.3-.3.5-.7.5-1.2s-.2-1-.6-1.3c-.4-.3-1-.5-1.7-.5h-2.2c-.3,0-.5,0-.7-.1-.2,0-.2-.2-.2-.4s0-.3.1-.3c0,0,.2,0,.3-.1.4.1.8.2,1.3.2s1.1,0,1.6-.3c.4-.2.8-.4,1-.8.2-.3.4-.7.4-1.2s-.1-.8-.4-1.1c-.2-.2-.4-.4-.7-.6h0s1.7.1,1.7.1h0v-1.7h-.2l-2.2,1.3ZM77.7,9.6h2.3c.3,0,.6,0,.8.2.2.2.3.4.3.6s-.2.6-.5.7c-.3.2-.8.3-1.3.3s-1.1-.1-1.5-.3c-.4-.2-.6-.5-.6-.8s.1-.6.4-.8ZM79.8,6.4c-.2.2-.5.3-.8.3s-.7-.2-.9-.5c-.2-.3-.3-.7-.3-1.2s0-.7.3-.9c.2-.2.5-.3.8-.3s.7.2.9.5c.2.3.3.7.3,1.2s0,.7-.3.9Z"/>
    <path class="st0" d="M88.3,4.5c-.2-.5-.5-.8-.9-1.1-.4-.2-.8-.4-1.3-.4s-1.2.1-1.7.4c-.5.3-.9.7-1.1,1.2-.3.5-.4,1.1-.4,1.7s.1,1.1.4,1.5c.3.4.6.8,1.1,1,.5.2,1,.4,1.6.4s1.1-.1,1.6-.4c.5-.3.8-.6,1-1.1l-.3-.3c-.4.4-1,.6-1.6.6s-1-.2-1.4-.6c-.3-.4-.5-.9-.5-1.5h4c0-.6-.1-1.2-.3-1.6ZM84.6,5.6c0-.3,0-.5.1-.7,0-.3.2-.6.4-.8.2-.2.4-.3.6-.3s.5.1.7.4c.2.2.3.6.3,1.1l-2.2.3Z"/>
    <path class="st0" d="M92.4,3.4c-.4.2-.6.6-.9,1h0v-1.2c0,0-.3,0-.3,0l-2.2.8v.2l.9.8v3.2l-.8.8v.2h3.6v-.2l-1.2-.8v-3.1c.2-.2.3-.3.6-.4,0,0,.1,0,.2,0l.9.9h.3l.8-2.2c-.3-.1-.5-.2-.9-.2s-.7.1-1.1.3Z"/>
    <path class="st0" d="M99.7,6.4c-.2-.2-.4-.4-.7-.5-.3-.1-.6-.2-.9-.3-.3,0-.6-.2-.9-.3-.3,0-.5-.2-.7-.3-.2-.1-.3-.3-.3-.5s0-.3.3-.4c.2-.1.4-.2.7-.2s.5,0,.7.1l1,1.3h.3l.7-1.5c-.2-.1-.4-.2-.7-.3-.3,0-.6-.2-.9-.2-.3,0-.6,0-.9,0-.9,0-1.5.2-2,.5-.5.3-.7.8-.7,1.4s0,.6.3.9c.2.2.4.4.7.5.3.1.6.2.9.3.3,0,.6.2.9.3.3,0,.5.2.7.3s.3.3.3.5-.1.4-.3.6c-.2.1-.5.2-.8.2s-.6,0-.9-.2l-1-1.3h-.3l-.7,1.5c.2.1.5.3.8.4.3.1.6.2.9.2.3,0,.6,0,1,0,.9,0,1.6-.2,2.1-.5.5-.4.7-.9.7-1.5s0-.6-.3-.8Z"/>
  </g>
  <g>
    <path class="st0" d="M52.3,3.9c-.2-.9-.5-1.7-1.1-2.3-.5-.6-1.2-1.1-1.9-1.3-.8-.3-1.6-.3-2.4-.1-.8.2-1.5.5-2.1,1-.5.5-.9,1.1-1.1,1.9-.2.8-.2,1.6,0,2.5.2.9.5,1.7,1.1,2.3.4.5,1,.9,1.6,1.2l.9-1.3h.4c0,0,.1,1.7.1,1.7.4,0,.9,0,1.4,0,.8-.2,1.5-.5,2.1-1,.5-.5.9-1.1,1.1-1.9.2-.8.2-1.6,0-2.5ZM51,5.1c-.2.4-.6.7-1.1,1-.5.3-1.2.5-2,.7-.5.1-1,.1-1.4,0-.4,0-.8-.2-1-.4-.3-.2-.4-.5-.5-.8,0-.5,0-.9.2-1.2.2-.4.6-.7,1.1-1,.5-.3,1.2-.5,2-.7.5-.1,1-.1,1.4,0,.4,0,.8.2,1,.4.3.2.4.5.5.8,0,.5,0,.9-.2,1.2Z"/>
    <path class="st0" d="M46.3,9.1l-1.5,2.3h0c0,0,2.8.8,2.8.8h.1s-.2-2.7-.2-2.7c-.4,0-.7-.1-1-.2-.1,0-.2,0-.3-.1Z"/>
  </g>
</svg>