<?xml version="1.0" encoding="UTF-8"?>
<svg id="Layer_2" data-name="Layer 2" xmlns="http://www.w3.org/2000/svg" viewBox="0 0 450 54.8">
  <defs>
    <style>
      .cls-1 {
        fill: #1a1a1a;
      }
    </style>
  </defs>
  <g id="Camada_1" data-name="Camada 1">
    <polygon class="cls-1" points="21.19 38.05 12.24 38.64 12.24 8.63 16.4 5.18 16.4 4.05 0 4.05 0 5.18 3.94 8.63 3.94 36.68 0 40.13 0 41.27 10.03 41.27 12.24 41.27 20.44 41.27 28.16 41.27 29.29 41.27 29.4 30.21 28.21 30.21 21.19 38.05"/>
    <path class="cls-1" d="M57.13,20.42c-.95-2.07-2.28-3.66-3.99-4.77-1.71-1.11-3.71-1.67-6.01-1.67-2.88,0-5.41.64-7.61,1.92-2.19,1.28-3.91,3.04-5.15,5.29-1.24,2.25-1.86,4.86-1.86,7.85,0,2.52.58,4.77,1.75,6.74,1.17,1.98,2.78,3.52,4.83,4.61s4.4,1.65,7.07,1.65,4.93-.58,7.01-1.73c2.09-1.15,3.65-2.73,4.69-4.75l-1.56-1.29c-1.91,1.87-4.37,2.81-7.39,2.81-2.63,0-4.68-.88-6.18-2.64-1.4-1.66-2.14-3.89-2.22-6.69h18.05c0-2.8-.48-5.24-1.43-7.31ZM40.58,25.36c.1-1.2.29-2.31.59-3.3.45-1.47,1.1-2.61,1.94-3.4.84-.79,1.81-1.19,2.89-1.19,1.37,0,2.46.55,3.29,1.65.83,1.1,1.24,2.71,1.24,4.83l-9.95,1.41Z"/>
    <path class="cls-1" d="M80.83,14.59c-1.47-.41-3.08-.62-4.85-.62-2.77,0-5.16.4-7.17,1.19-2.01.79-3.56,1.92-4.64,3.4-1.08,1.47-1.62,3.26-1.62,5.34,0,1.8.53,3.39,1.59,4.77.65.86,1.47,1.6,2.43,2.23-.66.18-1.28.46-1.84.85-.85.59-1.51,1.34-2,2.24-.49.9-.73,1.91-.73,3.02,0,1.91.64,3.44,1.91,4.61.65.59,1.39,1.03,2.24,1.32v.16c-1.44.22-2.63.77-3.56,1.67-.94.9-1.4,1.96-1.4,3.18,0,1.4.59,2.62,1.78,3.64,1.19,1.02,2.87,1.82,5.04,2.37,2.18.56,4.79.84,7.85.84s5.89-.44,8.28-1.32c2.39-.88,4.27-2.1,5.64-3.67,1.37-1.56,2.05-3.37,2.05-5.42,0-2.41-.93-4.32-2.78-5.72-1.85-1.4-4.4-2.1-7.63-2.1h-9.93c-1.37,0-2.39-.19-3.07-.57-.68-.38-1.02-.96-1.02-1.75,0-.68.22-1.2.65-1.56.31-.25.7-.42,1.17-.49,1.71.61,3.64.92,5.79.92,2.77,0,5.16-.4,7.17-1.19,2.01-.79,3.56-1.93,4.64-3.43,1.08-1.49,1.62-3.26,1.62-5.31,0-1.8-.53-3.39-1.59-4.77-.79-1.03-1.81-1.9-3.05-2.6v-.18l7.61.65.43-.43v-7.17h-1.08l-9.93,5.91ZM70.05,43.37h10.52c1.55,0,2.78.35,3.7,1.05.92.7,1.38,1.63,1.38,2.78,0,1.37-.77,2.48-2.32,3.34-1.55.86-3.53,1.29-5.93,1.29-2.7,0-4.88-.45-6.55-1.35-1.67-.9-2.51-2.09-2.51-3.56,0-1.65.58-2.84,1.73-3.56ZM79.41,28.67c-.85.95-2.04,1.43-3.59,1.43-1.65,0-2.99-.7-3.99-2.1-1.01-1.4-1.51-3.22-1.51-5.45,0-1.8.42-3.17,1.27-4.13.84-.95,2.04-1.43,3.59-1.43,1.65,0,2.98.69,3.99,2.08,1.01,1.38,1.51,3.21,1.51,5.48,0,1.8-.42,3.17-1.27,4.13Z"/>
    <path class="cls-1" d="M101.69,10.9c1.47,0,2.68-.43,3.61-1.29.93-.86,1.4-1.98,1.4-3.34s-.47-2.43-1.4-3.29c-.94-.86-2.14-1.29-3.61-1.29s-2.73.43-3.67,1.29c-.94.86-1.4,1.96-1.4,3.29s.47,2.48,1.4,3.34c.93.86,2.16,1.29,3.67,1.29Z"/>
    <polygon class="cls-1" points="105.36 14.35 103.85 14.35 93.87 17.75 93.87 18.83 97.7 22.35 97.7 36.98 94.19 40.4 94.19 41.27 108.92 41.27 108.92 40.4 105.36 36.97 105.36 14.35"/>
    <path class="cls-1" d="M135.97,15.59c-1.69-1.08-3.67-1.62-5.93-1.62-1.69,0-3.35.42-4.99,1.27-1.58.82-2.88,1.92-3.91,3.29V0h-1.51l-9.93,3.61v1.08l3.78,3.48v33.85h1.03l4.02-2.09c1.95,1.39,4.5,2.09,7.68,2.09,2.95,0,5.56-.65,7.85-1.94,2.28-1.29,4.06-3.09,5.34-5.39,1.28-2.3,1.92-4.94,1.92-7.93,0-2.55-.47-4.78-1.4-6.69-.94-1.91-2.25-3.4-3.94-4.48ZM132.41,34.01c-.61,1.56-1.47,2.76-2.59,3.59-1.11.83-2.46,1.24-4.05,1.24s-2.98-.33-4.18-1c-.15-.09-.31-.18-.46-.27v-16.42c.66-.56,1.35-1.01,2.08-1.32,1.02-.45,2.15-.67,3.37-.67,2.08,0,3.73.81,4.94,2.43,1.2,1.62,1.81,3.88,1.81,6.8,0,2.19-.31,4.07-.92,5.64Z"/>
    <polygon class="cls-1" points="146.89 36.98 143.39 40.4 143.39 41.27 158.11 41.27 158.11 40.4 154.55 36.97 154.55 0 153.04 0 143.06 3.61 143.06 4.69 146.89 8.19 146.89 36.98"/>
    <path class="cls-1" d="M185.11,35.55l-1.56-1.29c-1.91,1.87-4.37,2.81-7.39,2.81-2.63,0-4.68-.88-6.18-2.64-1.4-1.66-2.14-3.89-2.22-6.69h18.05c0-2.8-.48-5.24-1.43-7.31-.95-2.07-2.28-3.66-3.99-4.77-1.71-1.11-3.71-1.67-6.01-1.67-2.88,0-5.41.64-7.61,1.92-2.19,1.28-3.91,3.04-5.15,5.29-1.24,2.25-1.86,4.86-1.86,7.85,0,2.52.58,4.77,1.75,6.74,1.17,1.98,2.78,3.52,4.83,4.61,2.05,1.1,4.4,1.65,7.07,1.65s4.93-.58,7.01-1.73c2.08-1.15,3.65-2.73,4.69-4.75ZM168.41,22.06c.45-1.47,1.1-2.61,1.94-3.4.84-.79,1.81-1.19,2.89-1.19,1.37,0,2.46.55,3.29,1.65.83,1.1,1.24,2.71,1.24,4.83l-9.95,1.41c.1-1.2.29-2.31.59-3.3Z"/>
    <polygon class="cls-1" points="267.34 38.05 258.39 38.64 258.39 8.63 262.54 5.18 262.54 4.05 246.14 4.05 246.14 5.18 250.08 8.63 250.08 36.68 246.14 40.13 246.14 41.27 256.17 41.27 258.39 41.27 266.59 41.27 274.3 41.27 275.43 41.27 275.54 30.21 274.35 30.21 267.34 38.05"/>
    <path class="cls-1" d="M304,35.55l-1.56-1.29c-1.91,1.87-4.37,2.81-7.39,2.81-2.63,0-4.68-.88-6.18-2.64-1.4-1.66-2.14-3.89-2.22-6.69h18.05c0-2.8-.48-5.24-1.43-7.31-.95-2.07-2.28-3.66-3.99-4.77-1.71-1.11-3.71-1.67-6.01-1.67-2.88,0-5.41.64-7.61,1.92-2.19,1.28-3.91,3.04-5.15,5.29-1.24,2.25-1.86,4.86-1.86,7.85,0,2.52.58,4.77,1.75,6.74,1.17,1.98,2.78,3.52,4.83,4.61,2.05,1.1,4.4,1.65,7.07,1.65s4.93-.58,7.01-1.73c2.09-1.15,3.65-2.73,4.69-4.75ZM287.31,22.06c.45-1.47,1.1-2.61,1.94-3.4.84-.79,1.81-1.19,2.89-1.19,1.37,0,2.46.55,3.29,1.65.83,1.1,1.24,2.71,1.24,4.83l-9.95,1.41c.1-1.2.29-2.31.59-3.3Z"/>
    <path class="cls-1" d="M335.68,0h-1.51l-9.98,3.61v1.08l3.83,3.49v6.56c-1.47-.51-3.13-.78-5.02-.78-2.98,0-5.61.65-7.88,1.94-2.27,1.29-4.05,3.09-5.34,5.39-1.29,2.3-1.94,4.94-1.94,7.93,0,2.55.48,4.79,1.43,6.72.95,1.92,2.27,3.42,3.96,4.48,1.69,1.06,3.65,1.59,5.88,1.59,1.73,0,3.41-.41,5.04-1.24,1.64-.83,2.98-1.96,4.02-3.4h.43l1.94,4.59h1.19l7.28-3.45v-1.08l-3.34-2.99V0ZM328.02,34.89c-.64.57-1.31,1.02-2.02,1.33-1.02.45-2.15.67-3.37.67-2.12,0-3.78-.82-4.96-2.45-1.19-1.64-1.78-3.89-1.78-6.77,0-2.23.3-4.13.89-5.69.59-1.56,1.46-2.75,2.59-3.56,1.13-.81,2.49-1.21,4.07-1.21s2.93.33,4.15,1c.15.08.29.16.43.25v16.43Z"/>
    <path class="cls-1" d="M360.62,14.59c-1.47-.41-3.08-.62-4.85-.62-2.77,0-5.16.4-7.17,1.19-2.01.79-3.56,1.92-4.64,3.4-1.08,1.47-1.62,3.26-1.62,5.34,0,1.8.53,3.39,1.59,4.77.66.86,1.47,1.6,2.43,2.23-.66.18-1.28.46-1.84.85-.85.59-1.51,1.34-2,2.24-.49.9-.73,1.91-.73,3.02,0,1.91.64,3.44,1.91,4.61.65.59,1.39,1.03,2.24,1.32v.16c-1.44.22-2.63.77-3.56,1.67-.94.9-1.4,1.96-1.4,3.18,0,1.4.59,2.62,1.78,3.64,1.19,1.02,2.87,1.82,5.04,2.37,2.18.56,4.79.84,7.85.84s5.89-.44,8.28-1.32c2.39-.88,4.27-2.1,5.64-3.67,1.37-1.56,2.05-3.37,2.05-5.42,0-2.41-.93-4.32-2.78-5.72-1.85-1.4-4.4-2.1-7.63-2.1h-9.93c-1.37,0-2.39-.19-3.07-.57-.68-.38-1.02-.96-1.02-1.75,0-.68.22-1.2.65-1.56.31-.25.7-.42,1.17-.49,1.71.61,3.64.92,5.79.92,2.77,0,5.16-.4,7.17-1.19,2.01-.79,3.56-1.93,4.64-3.43,1.08-1.49,1.62-3.26,1.62-5.31,0-1.8-.53-3.39-1.59-4.77-.79-1.03-1.81-1.9-3.05-2.6v-.18l7.61.65.43-.43v-7.17h-1.08l-9.93,5.91ZM349.84,43.37h10.52c1.55,0,2.78.35,3.7,1.05.92.7,1.38,1.63,1.38,2.78,0,1.37-.77,2.48-2.32,3.34-1.55.86-3.52,1.29-5.93,1.29-2.7,0-4.88-.45-6.55-1.35-1.67-.9-2.51-2.09-2.51-3.56,0-1.65.58-2.84,1.73-3.56ZM359.2,28.67c-.85.95-2.04,1.43-3.59,1.43-1.65,0-2.99-.7-3.99-2.1-1.01-1.4-1.51-3.22-1.51-5.45,0-1.8.42-3.17,1.27-4.13.84-.95,2.04-1.43,3.59-1.43,1.65,0,2.98.69,3.99,2.08,1.01,1.38,1.51,3.21,1.51,5.48,0,1.8-.42,3.17-1.27,4.13Z"/>
    <path class="cls-1" d="M397.14,20.42c-.95-2.07-2.28-3.66-3.99-4.77-1.71-1.11-3.71-1.67-6.01-1.67-2.88,0-5.41.64-7.61,1.92-2.19,1.28-3.91,3.04-5.15,5.29-1.24,2.25-1.86,4.86-1.86,7.85,0,2.52.58,4.77,1.75,6.74,1.17,1.98,2.78,3.52,4.83,4.61,2.05,1.1,4.4,1.65,7.07,1.65s4.93-.58,7.01-1.73c2.08-1.15,3.65-2.73,4.69-4.75l-1.56-1.29c-1.91,1.87-4.37,2.81-7.39,2.81-2.63,0-4.68-.88-6.18-2.64-1.4-1.66-2.14-3.89-2.22-6.69h18.05c0-2.8-.48-5.24-1.43-7.31ZM380.58,25.36c.1-1.2.29-2.31.59-3.3.45-1.47,1.1-2.61,1.94-3.4.84-.79,1.81-1.19,2.89-1.19,1.37,0,2.46.55,3.29,1.65.83,1.1,1.24,2.71,1.24,4.83l-9.95,1.41Z"/>
    <path class="cls-1" d="M415.87,15.48c-1.58,1.04-2.88,2.48-3.88,4.32h-.27l.38-5.45h-1.56l-9.87,3.4v1.08l3.83,3.63v14.53l-3.51,3.42v.86h16.34v-.86l-5.18-3.69v-14.17c.7-.7,1.57-1.28,2.62-1.73.33-.14.67-.26,1.03-.37l4.02,4.09h1.24l3.61-9.82c-1.15-.54-2.45-.81-3.88-.81-1.69,0-3.33.52-4.91,1.56Z"/>
    <path class="cls-1" d="M448.81,28.99c-.79-.99-1.82-1.79-3.07-2.4-1.26-.61-2.59-1.11-3.99-1.51-1.4-.4-2.73-.8-3.99-1.21-1.26-.41-2.28-.92-3.07-1.51-.79-.59-1.19-1.38-1.19-2.35,0-.86.4-1.54,1.19-2.02.79-.49,1.89-.73,3.29-.73,1.08,0,2.13.19,3.13.55l4.47,5.71h1.24l3.02-6.9c-.94-.54-2.02-1.01-3.26-1.4-1.24-.4-2.53-.7-3.86-.92-1.33-.22-2.64-.32-3.94-.32-3.88,0-6.9.75-9.06,2.24-2.16,1.49-3.24,3.59-3.24,6.28,0,1.62.4,2.92,1.19,3.91.79.99,1.82,1.79,3.07,2.4,1.26.61,2.59,1.12,3.99,1.51,1.4.4,2.72.79,3.96,1.19,1.24.4,2.27.89,3.07,1.48.81.59,1.21,1.38,1.21,2.35,0,1.08-.47,1.92-1.4,2.54-.94.61-2.19.92-3.78.92-1.47,0-2.77-.23-3.91-.68l-4.45-6.06h-1.29l-3.02,6.96c1.04.61,2.23,1.14,3.56,1.59,1.33.45,2.74.8,4.23,1.05,1.49.25,2.92.38,4.29.38,4.1,0,7.26-.79,9.47-2.37,2.21-1.58,3.32-3.87,3.32-6.85,0-1.55-.4-2.81-1.19-3.8Z"/>
    <path class="cls-1" d="M235.35,17.56c-.84-4.13-2.43-7.62-4.77-10.46-2.34-2.84-5.2-4.85-8.58-6.04-3.38-1.18-7.01-1.38-10.88-.59-3.82.78-6.96,2.3-9.41,4.57-2.45,2.27-4.13,5.12-5.04,8.55-.91,3.43-.94,7.23-.09,11.41.84,4.13,2.43,7.62,4.77,10.46,2.01,2.44,4.39,4.26,7.14,5.48l3.87-6.04,1.62.42.55,7.18c2.01.17,4.1.03,6.28-.41,3.82-.78,6.96-2.3,9.41-4.57,2.45-2.27,4.13-5.11,5.05-8.51.92-3.4.94-7.22.08-11.45ZM231.78,23.31c-1.17,1.95-3.15,3.65-5.93,5.12-2.78,1.47-6.38,2.65-10.79,3.54-2.84.58-5.4.71-7.67.39-2.27-.32-4.12-1.05-5.57-2.19-1.44-1.14-2.34-2.61-2.71-4.39-.49-2.42-.15-4.6,1.02-6.54,1.18-1.95,3.16-3.64,5.94-5.07,2.79-1.44,6.39-2.6,10.79-3.5,2.84-.58,5.4-.71,7.67-.39,2.27.32,4.12,1.02,5.55,2.1,1.43,1.09,2.33,2.55,2.71,4.39.49,2.42.15,4.6-1.02,6.54Z"/>
    <path class="cls-1" d="M208.5,40.94l-6.54,10.22.23.44,12.78,3.2.51-.17-.94-12.13c-1.6-.14-3.15-.47-4.64-1-.48-.17-.95-.36-1.4-.56Z"/>
  </g>
</svg>