<?xml version="1.0" encoding="UTF-8"?>
<svg id="Layer_2" data-name="Layer 2" xmlns="http://www.w3.org/2000/svg" viewBox="0 0 621.41 104.57">
  <defs>
    <style>
      .cls-1 {
        fill: #f4f4f4;
      }
    </style>
  </defs>
  <g id="Layer_1-2" data-name="Layer 1">
    <g>
      <path class="cls-1" d="M118.59,92.98c-.49-.35-1.03-.63-1.63-.84.73-.33,1.33-.79,1.8-1.39.66-.84,1-1.86,1-3.07s-.25-2.22-.74-3.05c-.5-.83-1.23-1.46-2.2-1.88-.97-.42-2.16-.63-3.57-.63h-9.23v22.12h9.54c1.16,0,2.19-.14,3.1-.43.91-.28,1.68-.7,2.32-1.25.64-.55,1.13-1.23,1.45-2.04.33-.81.49-1.74.49-2.8s-.21-1.95-.62-2.75c-.41-.8-.99-1.47-1.72-2.01ZM107.44,85.41h5.25c1.18,0,2.09.25,2.72.76.63.51.95,1.23.95,2.18,0,.57-.14,1.07-.43,1.52-.28.44-.67.79-1.17,1.04-.5.25-1.06.38-1.69.38h-5.63v-5.88ZM116.96,99.46c-.33.5-.79.87-1.39,1.12-.6.25-1.33.38-2.2.38h-5.94v-6.38h5.78c.86,0,1.61.12,2.24.36.63.24,1.12.6,1.47,1.06.35.46.52,1.02.52,1.68,0,.7-.16,1.29-.49,1.79Z"/>
      <path class="cls-1" d="M142.56,85.07c-.98-1.03-2.13-1.83-3.44-2.4-1.32-.57-2.75-.85-4.31-.85s-3,.28-4.31.85c-1.32.57-2.46,1.36-3.44,2.39-.98,1.02-1.74,2.22-2.28,3.6-.54,1.38-.81,2.89-.81,4.54s.27,3.16.81,4.54c.54,1.38,1.3,2.58,2.28,3.6.98,1.02,2.13,1.82,3.44,2.39,1.32.57,2.75.85,4.31.85s3-.28,4.31-.85c1.32-.57,2.47-1.37,3.44-2.4.98-1.03,1.74-2.24,2.28-3.62.54-1.38.81-2.88.81-4.5s-.27-3.12-.81-4.5c-.54-1.38-1.3-2.59-2.28-3.62ZM141.62,96.4c-.37.98-.88,1.83-1.53,2.56-.65.73-1.43,1.29-2.32,1.69-.9.4-1.88.6-2.95.6s-2.06-.2-2.96-.6c-.9-.4-1.67-.96-2.34-1.68-.66-.72-1.17-1.57-1.53-2.56-.36-.99-.54-2.06-.54-3.22s.18-2.26.54-3.24c.36-.98.87-1.83,1.53-2.54.66-.72,1.44-1.27,2.34-1.68.9-.4,1.88-.6,2.96-.6s2.06.2,2.95.6c.9.4,1.67.96,2.32,1.69.65.73,1.16,1.58,1.53,2.56.37.98.55,2.05.55,3.21s-.18,2.23-.55,3.21Z"/>
      <path class="cls-1" d="M167.28,85.07c-.98-1.03-2.13-1.83-3.45-2.4-1.32-.57-2.75-.85-4.31-.85s-3,.28-4.31.85c-1.32.57-2.46,1.36-3.45,2.39-.98,1.02-1.74,2.22-2.28,3.6-.54,1.38-.81,2.89-.81,4.54s.27,3.16.81,4.54c.54,1.38,1.3,2.58,2.28,3.6.98,1.02,2.13,1.82,3.45,2.39,1.32.57,2.75.85,4.31.85s3-.28,4.31-.85c1.32-.57,2.47-1.37,3.45-2.4.98-1.03,1.74-2.24,2.28-3.62.54-1.38.81-2.88.81-4.5s-.27-3.12-.81-4.5c-.54-1.38-1.3-2.59-2.28-3.62ZM166.33,96.4c-.37.98-.88,1.83-1.53,2.56-.65.73-1.43,1.29-2.32,1.69-.9.4-1.88.6-2.96.6s-2.06-.2-2.96-.6c-.9-.4-1.68-.96-2.34-1.68-.66-.72-1.17-1.57-1.53-2.56-.36-.99-.54-2.06-.54-3.22s.18-2.26.54-3.24c.36-.98.87-1.83,1.53-2.54.66-.72,1.44-1.27,2.34-1.68.9-.4,1.88-.6,2.96-.6s2.06.2,2.96.6c.9.4,1.67.96,2.32,1.69.65.73,1.16,1.58,1.53,2.56.37.98.55,2.05.55,3.21s-.19,2.23-.55,3.21Z"/>
      <polygon class="cls-1" points="193.72 82.13 189.23 82.13 178.39 92.97 178.39 82.13 174.98 82.13 174.98 104.25 178.39 104.25 178.39 97 181.76 93.73 189.64 104.25 193.91 104.25 184.18 91.38 193.72 82.13"/>
      <polygon class="cls-1" points="216.85 82.13 212.36 82.13 201.52 92.97 201.52 82.13 198.11 82.13 198.11 104.25 201.52 104.25 201.52 97 204.9 93.73 212.78 104.25 217.04 104.25 207.31 91.38 216.85 82.13"/>
      <polygon class="cls-1" points="221.25 104.25 235.18 104.25 235.18 100.96 224.66 100.96 224.66 94.55 233.45 94.55 233.45 91.26 224.66 91.26 224.66 85.41 235.18 85.41 235.18 82.13 221.25 82.13 221.25 104.25"/>
      <polygon class="cls-1" points="240.65 104.25 254.59 104.25 254.59 100.96 244.06 100.96 244.06 94.55 252.85 94.55 252.85 91.26 244.06 91.26 244.06 85.41 254.59 85.41 254.59 82.13 240.65 82.13 240.65 104.25"/>
      <path class="cls-1" d="M272.33,83.03c-.98-.6-2.07-.9-3.27-.9h-9.01v22.12h3.41v-8.47h5.59c1.2,0,2.29-.31,3.27-.93.98-.62,1.76-1.45,2.35-2.48.59-1.03.88-2.18.88-3.44s-.29-2.41-.88-3.45c-.59-1.03-1.38-1.85-2.35-2.45ZM271.67,90.71c-.28.54-.66.97-1.12,1.3-.46.33-.98.49-1.55.49h-5.53v-7.08h5.53c.57,0,1.08.16,1.55.47.46.32.84.74,1.12,1.26.28.53.43,1.12.43,1.77s-.14,1.25-.43,1.79Z"/>
      <polygon class="cls-1" points="279.27 85.29 282.84 85.29 282.84 101.09 279.27 101.09 279.27 104.25 289.83 104.25 289.83 101.09 286.26 101.09 286.26 85.29 289.83 85.29 289.83 82.13 279.27 82.13 279.27 85.29"/>
      <path class="cls-1" d="M310.66,89.4c0,.93.01,1.82.03,2.69.02.86.05,1.69.08,2.48.03.79.07,1.54.13,2.24.05.71.11,1.37.17,1.99.02.19.04.37.06.55l-12.86-17.22h-3.07v22.12h3.41v-9.2c0-.19,0-.41-.02-.66-.01-.25-.03-.57-.05-.96-.02-.39-.06-.9-.11-1.52-.05-.62-.12-1.38-.19-2.28-.05-.65-.12-1.41-.19-2.26l12.88,16.88h3.13v-22.12h-3.41v7.27Z"/>
      <path class="cls-1" d="M339.95,93.58c-.02-.22-.05-.45-.09-.68h-9.8v3.38h6.29v.19c0,.65-.16,1.27-.47,1.85-.32.58-.76,1.09-1.33,1.53-.57.44-1.22.79-1.96,1.03-.74.24-1.52.36-2.34.36-1.1,0-2.13-.21-3.11-.63-.98-.42-1.84-1-2.59-1.74-.75-.74-1.33-1.6-1.75-2.58-.42-.98-.63-2.02-.63-3.11s.2-2.19.6-3.14c.4-.96.96-1.8,1.69-2.51.73-.72,1.57-1.27,2.53-1.68.96-.4,2.01-.6,3.14-.6.7,0,1.39.11,2.09.32.7.21,1.37.52,2.04.92.66.4,1.31.91,1.94,1.52l2.21-2.31c-.55-.74-1.25-1.39-2.12-1.96-.86-.57-1.83-1.01-2.89-1.33-1.06-.32-2.15-.47-3.27-.47-1.6,0-3.1.28-4.49.85-1.39.57-2.61,1.36-3.65,2.39-1.04,1.02-1.85,2.22-2.43,3.59-.58,1.37-.87,2.84-.87,4.42s.29,3.09.87,4.47c.58,1.38,1.4,2.59,2.45,3.62,1.05,1.03,2.28,1.84,3.67,2.42,1.39.58,2.89.87,4.49.87,1.39,0,2.68-.24,3.87-.71,1.19-.47,2.23-1.14,3.13-2.01.9-.86,1.6-1.89,2.1-3.08.51-1.19.76-2.51.76-3.97,0-.19,0-.38-.02-.58-.01-.2-.03-.41-.05-.63Z"/>
      <polygon class="cls-1" points="119.57 52.41 129.99 52.41 139.78 52.41 141.22 52.41 141.36 38.37 139.85 38.37 130.94 48.33 119.57 49.07 119.57 10.96 124.85 6.58 124.85 5.14 104.02 5.14 104.02 6.58 109.02 10.96 109.02 46.59 104.02 50.97 104.02 52.41 116.77 52.41 119.57 52.41"/>
      <path class="cls-1" d="M177.51,45.15l-1.99-1.64c-2.42,2.38-5.55,3.56-9.39,3.56-3.33,0-5.95-1.12-7.84-3.36-1.78-2.1-2.71-4.94-2.82-8.5h22.93c0-3.56-.61-6.66-1.82-9.28-1.21-2.63-2.9-4.65-5.07-6.06-2.17-1.42-4.72-2.12-7.64-2.12-3.65,0-6.87.81-9.66,2.43-2.79,1.62-4.97,3.86-6.54,6.71-1.58,2.85-2.36,6.18-2.36,9.97,0,3.2.74,6.05,2.23,8.56,1.48,2.51,3.53,4.47,6.13,5.86,2.6,1.39,5.59,2.09,8.97,2.09s6.26-.73,8.91-2.19c2.65-1.46,4.64-3.47,5.96-6.03ZM156.31,28.02c.57-1.87,1.39-3.31,2.47-4.32,1.07-1,2.29-1.51,3.67-1.51,1.74,0,3.13.7,4.18,2.09,1.05,1.39,1.58,3.44,1.58,6.13l-12.64,1.79c.13-1.53.37-2.93.75-4.19Z"/>
      <path class="cls-1" d="M206.69,18.54c-1.86-.52-3.91-.79-6.16-.79-3.52,0-6.55.5-9.11,1.51-2.56,1.01-4.52,2.44-5.89,4.32-1.37,1.87-2.06,4.13-2.06,6.78,0,2.28.67,4.31,2.02,6.06.83,1.09,1.86,2.03,3.09,2.83-.84.23-1.62.58-2.33,1.08-1.07.75-1.92,1.7-2.54,2.84-.62,1.14-.92,2.42-.92,3.84,0,2.42.81,4.37,2.43,5.86.82.75,1.77,1.31,2.84,1.68v.2c-1.83.27-3.33.98-4.52,2.12-1.19,1.14-1.78,2.49-1.78,4.04,0,1.78.75,3.32,2.26,4.62,1.51,1.3,3.64,2.31,6.41,3.01,2.76.71,6.09,1.06,9.97,1.06s7.48-.56,10.52-1.68c3.04-1.12,5.42-2.67,7.16-4.66,1.73-1.99,2.6-4.28,2.6-6.89,0-3.06-1.18-5.48-3.53-7.26-2.35-1.78-5.58-2.67-9.69-2.67h-12.61c-1.74,0-3.04-.24-3.91-.72-.87-.48-1.3-1.22-1.3-2.23,0-.87.27-1.53.82-1.99.39-.32.89-.53,1.48-.62,2.17.78,4.62,1.17,7.35,1.17,3.52,0,6.55-.5,9.11-1.51,2.56-1,4.52-2.45,5.89-4.35,1.37-1.89,2.06-4.15,2.06-6.75,0-2.28-.67-4.3-2.02-6.06-1-1.31-2.3-2.41-3.87-3.3v-.22l9.66.82.55-.55v-9.11h-1.37l-12.62,7.51ZM193,55.08h13.36c1.96,0,3.53.45,4.69,1.34,1.16.89,1.75,2.07,1.75,3.53,0,1.74-.98,3.15-2.95,4.25-1.96,1.1-4.48,1.64-7.54,1.64-3.43,0-6.2-.57-8.32-1.71-2.12-1.14-3.19-2.65-3.19-4.52,0-2.1.73-3.61,2.19-4.52ZM204.88,36.41c-1.07,1.21-2.59,1.82-4.56,1.82-2.1,0-3.79-.89-5.07-2.67-1.28-1.78-1.92-4.09-1.92-6.92,0-2.28.54-4.03,1.61-5.24,1.07-1.21,2.59-1.82,4.56-1.82,2.1,0,3.79.88,5.07,2.64,1.28,1.76,1.92,4.08,1.92,6.95,0,2.28-.54,4.03-1.61,5.24Z"/>
      <path class="cls-1" d="M233.18,13.84c1.87,0,3.4-.55,4.59-1.64,1.19-1.1,1.78-2.51,1.78-4.25s-.59-3.08-1.78-4.18c-1.19-1.1-2.72-1.64-4.59-1.64s-3.47.55-4.66,1.64c-1.19,1.1-1.78,2.49-1.78,4.18s.59,3.15,1.78,4.25c1.19,1.1,2.74,1.64,4.66,1.64Z"/>
      <polygon class="cls-1" points="228.11 46.97 223.65 51.31 223.65 52.41 242.36 52.41 242.36 51.31 237.83 46.96 237.83 18.22 235.92 18.22 223.24 22.54 223.24 23.91 228.11 28.39 228.11 46.97"/>
      <path class="cls-1" d="M283.5,33.98c0-3.24-.59-6.07-1.78-8.5-1.19-2.42-2.85-4.32-5-5.69-2.15-1.37-4.66-2.06-7.54-2.06-2.15,0-4.26.54-6.34,1.61-2.01,1.04-3.66,2.44-4.97,4.18V0h-1.92l-12.61,4.59v1.37l4.8,4.41v43h1.3l5.11-2.66c2.48,1.77,5.72,2.66,9.75,2.66,3.74,0,7.07-.82,9.97-2.47,2.9-1.64,5.16-3.93,6.78-6.85,1.62-2.92,2.43-6.28,2.43-10.07ZM272.19,43.2c-.78,1.99-1.87,3.51-3.29,4.56-1.42,1.05-3.13,1.58-5.14,1.58s-3.78-.42-5.31-1.27c-.2-.11-.39-.22-.58-.35v-20.85c.84-.71,1.72-1.28,2.64-1.68,1.3-.57,2.73-.86,4.28-.86,2.65,0,4.74,1.03,6.27,3.08,1.53,2.06,2.3,4.93,2.3,8.63,0,2.79-.39,5.17-1.16,7.16Z"/>
      <polygon class="cls-1" points="290.59 46.97 286.13 51.31 286.13 52.41 304.84 52.41 304.84 51.31 300.32 46.96 300.32 0 298.4 0 285.72 4.59 285.72 5.96 290.59 10.4 290.59 46.97"/>
      <path class="cls-1" d="M333.13,19.87c-2.17-1.42-4.72-2.12-7.64-2.12-3.65,0-6.87.81-9.66,2.43-2.79,1.62-4.97,3.86-6.54,6.71-1.58,2.85-2.36,6.18-2.36,9.97,0,3.2.74,6.05,2.23,8.56,1.48,2.51,3.53,4.47,6.13,5.86,2.6,1.39,5.59,2.09,8.97,2.09s6.26-.73,8.91-2.19c2.65-1.46,4.64-3.47,5.96-6.03l-1.99-1.64c-2.42,2.38-5.55,3.56-9.39,3.56-3.33,0-5.95-1.12-7.84-3.36-1.78-2.1-2.71-4.94-2.82-8.5h22.93c0-3.56-.61-6.66-1.82-9.28-1.21-2.63-2.9-4.65-5.07-6.06ZM317.17,32.21c.13-1.53.37-2.93.75-4.19.57-1.87,1.39-3.31,2.47-4.32,1.07-1,2.3-1.51,3.67-1.51,1.73,0,3.13.7,4.18,2.09,1.05,1.39,1.58,3.44,1.58,6.13l-12.64,1.79Z"/>
      <polygon class="cls-1" points="389.41 48.33 378.04 49.07 378.04 10.96 383.31 6.58 383.31 5.14 362.49 5.14 362.49 6.58 367.49 10.96 367.49 46.59 362.49 50.97 362.49 52.41 375.23 52.41 378.04 52.41 388.45 52.41 398.25 52.41 399.69 52.41 399.83 38.37 398.32 38.37 389.41 48.33"/>
      <path class="cls-1" d="M435.05,25.93c-1.21-2.63-2.9-4.65-5.07-6.06-2.17-1.42-4.72-2.12-7.64-2.12-3.65,0-6.87.81-9.66,2.43-2.79,1.62-4.97,3.86-6.54,6.71-1.58,2.85-2.36,6.18-2.36,9.97,0,3.2.74,6.05,2.23,8.56,1.48,2.51,3.53,4.47,6.13,5.86,2.6,1.39,5.59,2.09,8.97,2.09s6.26-.73,8.91-2.19c2.65-1.46,4.64-3.47,5.96-6.03l-1.99-1.64c-2.42,2.38-5.55,3.56-9.39,3.56-3.33,0-5.95-1.12-7.84-3.36-1.78-2.1-2.71-4.94-2.82-8.5h22.93c0-3.56-.61-6.66-1.82-9.28ZM414.02,32.21c.13-1.53.37-2.93.75-4.19.57-1.87,1.39-3.31,2.47-4.32,1.07-1,2.3-1.51,3.67-1.51,1.74,0,3.13.7,4.18,2.09,1.05,1.39,1.58,3.44,1.58,6.13l-12.64,1.79Z"/>
      <path class="cls-1" d="M476.21,0h-1.92l-12.67,4.59v1.37l4.86,4.44v8.33c-1.86-.65-3.98-.99-6.37-.99-3.79,0-7.12.82-10,2.47-2.88,1.64-5.14,3.93-6.78,6.85-1.64,2.92-2.47,6.28-2.47,10.07,0,3.24.6,6.09,1.82,8.53,1.21,2.44,2.89,4.34,5.04,5.69,2.15,1.35,4.64,2.02,7.47,2.02,2.19,0,4.33-.53,6.41-1.58,2.08-1.05,3.78-2.49,5.1-4.32h.55l2.47,5.82h1.51l9.25-4.38v-1.37l-4.25-3.8V0ZM466.48,44.32c-.81.72-1.66,1.29-2.57,1.69-1.3.57-2.73.86-4.28.86-2.7,0-4.8-1.04-6.3-3.12-1.51-2.08-2.26-4.94-2.26-8.6,0-2.83.38-5.24,1.13-7.23.75-1.99,1.85-3.49,3.29-4.52,1.44-1.03,3.16-1.54,5.17-1.54s3.72.42,5.27,1.27c.18.1.37.21.55.32v20.87Z"/>
      <path class="cls-1" d="M507.89,18.54c-1.86-.52-3.91-.79-6.16-.79-3.52,0-6.55.5-9.11,1.51-2.56,1.01-4.52,2.44-5.89,4.32-1.37,1.87-2.06,4.13-2.06,6.78,0,2.28.67,4.31,2.02,6.06.83,1.09,1.86,2.03,3.09,2.83-.84.23-1.62.58-2.33,1.08-1.07.75-1.92,1.7-2.53,2.84-.62,1.14-.92,2.42-.92,3.84,0,2.42.81,4.37,2.43,5.86.82.75,1.77,1.31,2.84,1.68v.2c-1.83.27-3.33.98-4.52,2.12-1.19,1.14-1.78,2.49-1.78,4.04,0,1.78.75,3.32,2.26,4.62,1.51,1.3,3.64,2.31,6.41,3.01,2.76.71,6.09,1.06,9.97,1.06s7.48-.56,10.52-1.68c3.04-1.12,5.42-2.67,7.16-4.66,1.73-1.99,2.6-4.28,2.6-6.89,0-3.06-1.18-5.48-3.53-7.26-2.35-1.78-5.58-2.67-9.69-2.67h-12.61c-1.74,0-3.04-.24-3.91-.72-.87-.48-1.3-1.22-1.3-2.23,0-.87.27-1.53.82-1.99.39-.32.89-.53,1.48-.62,2.17.78,4.62,1.17,7.35,1.17,3.52,0,6.55-.5,9.11-1.51,2.56-1,4.52-2.45,5.89-4.35,1.37-1.89,2.06-4.15,2.06-6.75,0-2.28-.67-4.3-2.02-6.06-1-1.31-2.3-2.41-3.87-3.3v-.22l9.66.82.55-.55v-9.11h-1.37l-12.61,7.51ZM494.2,55.08h13.36c1.96,0,3.53.45,4.69,1.34,1.16.89,1.75,2.07,1.75,3.53,0,1.74-.98,3.15-2.95,4.25-1.96,1.1-4.48,1.64-7.54,1.64-3.43,0-6.2-.57-8.32-1.71-2.12-1.14-3.19-2.65-3.19-4.52,0-2.1.73-3.61,2.19-4.52ZM506.08,36.41c-1.07,1.21-2.59,1.82-4.56,1.82-2.1,0-3.79-.89-5.07-2.67-1.28-1.78-1.92-4.09-1.92-6.92,0-2.28.54-4.03,1.61-5.24,1.07-1.21,2.59-1.82,4.56-1.82,2.1,0,3.79.88,5.07,2.64,1.28,1.76,1.92,4.08,1.92,6.95,0,2.28-.54,4.03-1.61,5.24Z"/>
      <path class="cls-1" d="M554.27,25.93c-1.21-2.63-2.9-4.65-5.07-6.06-2.17-1.42-4.72-2.12-7.64-2.12-3.65,0-6.87.81-9.66,2.43-2.79,1.62-4.97,3.86-6.54,6.71-1.58,2.85-2.36,6.18-2.36,9.97,0,3.2.74,6.05,2.23,8.56,1.48,2.51,3.53,4.47,6.13,5.86,2.6,1.39,5.59,2.09,8.98,2.09s6.26-.73,8.91-2.19c2.65-1.46,4.64-3.47,5.96-6.03l-1.99-1.64c-2.42,2.38-5.55,3.56-9.39,3.56-3.33,0-5.95-1.12-7.84-3.36-1.78-2.1-2.71-4.94-2.82-8.5h22.93c0-3.56-.61-6.66-1.82-9.28ZM533.24,32.21c.13-1.53.37-2.93.75-4.19.57-1.87,1.39-3.31,2.47-4.32,1.07-1,2.29-1.51,3.67-1.51,1.74,0,3.13.7,4.18,2.09,1.05,1.39,1.58,3.44,1.58,6.13l-12.64,1.79Z"/>
      <path class="cls-1" d="M578.06,19.66c-2.01,1.32-3.65,3.15-4.93,5.48h-.34l.48-6.92h-1.99l-12.54,4.32v1.37l4.86,4.61v18.45l-4.45,4.34v1.1h20.76v-1.1l-6.58-4.68v-18c.89-.89,2-1.62,3.32-2.19.42-.18.85-.33,1.3-.47l5.1,5.2h1.58l4.59-12.47c-1.46-.69-3.11-1.03-4.93-1.03-2.15,0-4.23.66-6.23,1.99Z"/>
      <path class="cls-1" d="M619.9,36.82c-1.01-1.26-2.31-2.27-3.91-3.05-1.6-.78-3.29-1.41-5.07-1.92-1.78-.5-3.47-1.02-5.07-1.54-1.6-.52-2.9-1.16-3.9-1.92-1.01-.75-1.51-1.75-1.51-2.98,0-1.1.5-1.95,1.51-2.57,1-.62,2.4-.92,4.18-.92,1.38,0,2.7.24,3.98.7l5.68,7.25h1.58l3.84-8.77c-1.19-.69-2.57-1.28-4.14-1.78-1.58-.5-3.21-.89-4.9-1.16-1.69-.27-3.36-.41-5-.41-4.93,0-8.77.95-11.51,2.84-2.74,1.9-4.11,4.56-4.11,7.98,0,2.06.5,3.71,1.51,4.97,1,1.26,2.31,2.27,3.9,3.05,1.6.78,3.29,1.42,5.07,1.92,1.78.5,3.46,1.01,5.04,1.51,1.58.5,2.88,1.13,3.91,1.88,1.03.75,1.54,1.75,1.54,2.98,0,1.37-.59,2.44-1.78,3.22-1.19.78-2.79,1.16-4.8,1.16-1.87,0-3.52-.3-4.97-.87l-5.65-7.69h-1.64l-3.84,8.84c1.32.78,2.83,1.45,4.52,2.02,1.69.57,3.48,1.02,5.38,1.34,1.89.32,3.71.48,5.45.48,5.21,0,9.21-1,12.02-3.01,2.81-2.01,4.21-4.91,4.21-8.7,0-1.96-.5-3.57-1.51-4.83Z"/>
      <path class="cls-1" d="M65.7,13.89c-4.44-5.39-9.87-9.21-16.29-11.46C42.99.18,36.11-.2,28.76,1.3c-7.26,1.48-13.21,4.37-17.86,8.68C6.26,14.29,3.07,19.7,1.34,26.2c-1.73,6.5-1.78,13.72-.17,21.66,1.6,7.84,4.62,14.46,9.06,19.85,3.81,4.62,8.33,8.09,13.56,10.41l7.34-11.47,3.08.79,1.05,13.63c3.81.32,7.78.07,11.92-.78,7.26-1.48,13.21-4.37,17.86-8.68,4.65-4.31,7.84-9.69,9.58-16.15,1.74-6.46,1.79-13.7.15-21.73-1.6-7.84-4.62-14.46-9.06-19.85ZM67.98,44.65c-2.23,3.69-5.98,6.93-11.26,9.71-5.28,2.78-12.1,5.02-20.47,6.73-5.39,1.1-10.24,1.35-14.55.75-4.31-.6-7.83-1.99-10.56-4.16-2.73-2.17-4.45-4.95-5.14-8.33-.93-4.59-.29-8.72,1.94-12.42,2.23-3.69,5.99-6.9,11.28-9.63,5.29-2.72,12.12-4.94,20.49-6.64,5.39-1.1,10.25-1.35,14.55-.75,4.31.6,7.82,1.93,10.53,3.99,2.71,2.06,4.43,4.84,5.14,8.33.93,4.59.29,8.72-1.94,12.42Z"/>
      <path class="cls-1" d="M23.78,78.11l-12.41,19.39.44.84,24.26,6.08.96-.32-1.78-23.03c-3.04-.26-5.98-.89-8.81-1.89-.91-.32-1.79-.68-2.66-1.06Z"/>
    </g>
  </g>
</svg>