<?xml version="1.0" encoding="UTF-8"?>
<svg id="Camada_1" xmlns="http://www.w3.org/2000/svg" version="1.1" viewBox="0 0 100 100">
  <!-- Generator: Adobe Illustrator 29.8.2, SVG Export Plug-In . SVG Version: 2.1.1 Build 3)  -->
  <path d="M85.36,32.05c-1.54-7.54-4.44-13.9-8.71-19.08-4.27-5.18-9.49-8.85-15.66-11.02C54.83-.21,48.21-.58,41.14.86c-6.98,1.42-12.7,4.2-17.17,8.35-4.47,4.14-7.53,9.34-9.19,15.59-1.66,6.25-1.72,13.19-.16,20.82,1.54,7.54,4.44,13.9,8.71,19.08,3.66,4.44,8.01,7.78,13.03,10.01l7.06-11.02,2.96.76,1.01,13.11c3.66.31,7.48.06,11.46-.75,6.98-1.42,12.7-4.2,17.17-8.35,4.47-4.14,7.54-9.32,9.21-15.53,1.67-6.21,1.72-13.17.15-20.89ZM74.39,41.97c-1.81,3-4.86,5.63-9.15,7.89-4.29,2.26-9.84,4.08-16.63,5.47-4.38.89-8.32,1.09-11.83.61-3.5-.49-6.36-1.62-8.58-3.38-2.22-1.76-3.61-4.02-4.17-6.77-.76-3.73-.23-7.09,1.58-10.09,1.81-3,4.87-5.61,9.17-7.83,4.3-2.21,9.85-4.02,16.65-5.4,4.38-.89,8.33-1.09,11.83-.61,3.5.49,6.35,1.57,8.56,3.25,2.21,1.68,3.6,3.93,4.17,6.77.76,3.73.23,7.09-1.58,10.09Z"/>
  <path d="M36.36,74.71l-11.93,18.64.42.8,23.32,5.84.92-.31-1.71-22.14c-2.92-.25-5.75-.85-8.47-1.82-.87-.31-1.72-.65-2.56-1.02Z"/>
</svg>