<?xml version="1.0" encoding="UTF-8"?>
<svg id="Camada_1" xmlns="http://www.w3.org/2000/svg" version="1.1" viewBox="0 0 100 16.71">
  <!-- Generator: Adobe Illustrator 29.8.2, SVG Export Plug-In . SVG Version: 2.1.1 Build 3)  -->
  <path d="M19.08,14.96c-.08-.06-.17-.1-.26-.14.12-.05.21-.13.29-.22.11-.14.16-.3.16-.49s-.04-.36-.12-.49c-.08-.13-.2-.23-.35-.3-.16-.07-.35-.1-.57-.1h-1.49v3.56h1.54c.19,0,.35-.02.5-.07.15-.05.27-.11.37-.2.1-.09.18-.2.23-.33.05-.13.08-.28.08-.45s-.03-.31-.1-.44c-.07-.13-.16-.24-.28-.32ZM17.29,13.75h.84c.19,0,.34.04.44.12.1.08.15.2.15.35,0,.09-.02.17-.07.24-.05.07-.11.13-.19.17-.08.04-.17.06-.27.06h-.91v-.95ZM18.82,16.01c-.05.08-.13.14-.22.18-.1.04-.21.06-.35.06h-.96v-1.03h.93c.14,0,.26.02.36.06.1.04.18.1.24.17.06.07.08.16.08.27,0,.11-.03.21-.08.29Z"/>
  <path d="M22.94,13.69c-.16-.17-.34-.29-.55-.39-.21-.09-.44-.14-.69-.14s-.48.05-.69.14c-.21.09-.4.22-.55.38-.16.16-.28.36-.37.58-.09.22-.13.47-.13.73s.04.51.13.73c.09.22.21.42.37.58.16.16.34.29.55.38.21.09.44.14.69.14s.48-.05.69-.14c.21-.09.4-.22.55-.39.16-.17.28-.36.37-.58.09-.22.13-.46.13-.72s-.04-.5-.13-.72c-.09-.22-.21-.42-.37-.58ZM22.79,15.51c-.06.16-.14.3-.25.41-.11.12-.23.21-.37.27-.14.06-.3.1-.48.1s-.33-.03-.48-.1c-.14-.06-.27-.15-.38-.27-.11-.12-.19-.25-.25-.41-.06-.16-.09-.33-.09-.52s.03-.36.09-.52c.06-.16.14-.29.25-.41.11-.12.23-.21.38-.27.14-.06.3-.1.48-.1s.33.03.48.1c.14.06.27.16.37.27.11.12.19.25.25.41.06.16.09.33.09.52s-.03.36-.09.52Z"/>
  <path d="M26.92,13.69c-.16-.17-.34-.29-.55-.39-.21-.09-.44-.14-.69-.14s-.48.05-.69.14c-.21.09-.4.22-.55.38-.16.16-.28.36-.37.58-.09.22-.13.47-.13.73s.04.51.13.73c.09.22.21.42.37.58.16.16.34.29.55.38.21.09.44.14.69.14s.48-.05.69-.14c.21-.09.4-.22.55-.39.16-.17.28-.36.37-.58.09-.22.13-.46.13-.72s-.04-.5-.13-.72c-.09-.22-.21-.42-.37-.58ZM26.77,15.51c-.06.16-.14.3-.25.41-.11.12-.23.21-.37.27-.14.06-.3.1-.48.1s-.33-.03-.48-.1c-.14-.06-.27-.15-.38-.27-.11-.12-.19-.25-.25-.41-.06-.16-.09-.33-.09-.52s.03-.36.09-.52c.06-.16.14-.29.25-.41.11-.12.23-.21.38-.27.14-.06.3-.1.48-.1s.33.03.48.1c.14.06.27.16.37.27.11.12.19.25.25.41.06.16.09.33.09.52s-.03.36-.09.52Z"/>
  <polygon points="31.17 13.22 30.45 13.22 28.71 14.96 28.71 13.22 28.16 13.22 28.16 16.78 28.71 16.78 28.71 15.61 29.25 15.08 30.52 16.78 31.2 16.78 29.64 14.71 31.17 13.22"/>
  <polygon points="34.9 13.22 34.17 13.22 32.43 14.96 32.43 13.22 31.88 13.22 31.88 16.78 32.43 16.78 32.43 15.61 32.97 15.08 34.24 16.78 34.93 16.78 33.36 14.71 34.9 13.22"/>
  <polygon points="35.6 16.78 37.85 16.78 37.85 16.25 36.15 16.25 36.15 15.22 37.57 15.22 37.57 14.69 36.15 14.69 36.15 13.75 37.85 13.75 37.85 13.22 35.6 13.22 35.6 16.78"/>
  <polygon points="38.73 16.78 40.97 16.78 40.97 16.25 39.28 16.25 39.28 15.22 40.69 15.22 40.69 14.69 39.28 14.69 39.28 13.75 40.97 13.75 40.97 13.22 38.73 13.22 38.73 16.78"/>
  <path d="M43.82,13.36c-.16-.1-.33-.14-.53-.14h-1.45v3.56h.55v-1.36h.9c.19,0,.37-.05.53-.15.16-.1.28-.23.38-.4.09-.17.14-.35.14-.55s-.05-.39-.14-.55c-.09-.17-.22-.3-.38-.39ZM43.72,14.6c-.05.09-.11.16-.18.21-.07.05-.16.08-.25.08h-.89v-1.14h.89c.09,0,.17.03.25.08.07.05.13.12.18.2s.07.18.07.28-.02.2-.07.29Z"/>
  <polygon points="44.94 13.73 45.52 13.73 45.52 16.27 44.94 16.27 44.94 16.78 46.64 16.78 46.64 16.27 46.07 16.27 46.07 13.73 46.64 13.73 46.64 13.22 44.94 13.22 44.94 13.73"/>
  <path d="M49.99,14.39c0,.15,0,.29,0,.43,0,.14,0,.27.01.4,0,.13.01.25.02.36,0,.11.02.22.03.32,0,.03,0,.06.01.09l-2.07-2.77h-.49v3.56h.55v-1.48s0-.07,0-.11c0-.04,0-.09,0-.16,0-.06,0-.14-.02-.24,0-.1-.02-.22-.03-.37,0-.1-.02-.23-.03-.36l2.07,2.72h.5v-3.56h-.55v1.17Z"/>
  <path d="M54.71,15.06s0-.07-.02-.11h-1.58v.54h1.01v.03c0,.11-.03.2-.08.3-.05.09-.12.18-.21.25-.09.07-.2.13-.32.17-.12.04-.24.06-.38.06-.18,0-.34-.03-.5-.1-.16-.07-.3-.16-.42-.28-.12-.12-.21-.26-.28-.41-.07-.16-.1-.32-.1-.5s.03-.35.1-.51c.06-.15.16-.29.27-.4.12-.12.25-.21.41-.27.15-.06.32-.1.51-.1.11,0,.22.02.34.05.11.03.22.08.33.15.11.06.21.15.31.24l.36-.37c-.09-.12-.2-.22-.34-.32-.14-.09-.29-.16-.47-.21-.17-.05-.35-.08-.53-.08-.26,0-.5.05-.72.14-.22.09-.42.22-.59.38-.17.16-.3.36-.39.58-.09.22-.14.46-.14.71s.05.5.14.72c.09.22.22.42.39.58.17.17.37.3.59.39.22.09.46.14.72.14.22,0,.43-.04.62-.11.19-.08.36-.18.5-.32.14-.14.26-.3.34-.5.08-.19.12-.4.12-.64,0-.03,0-.06,0-.09,0-.03,0-.07,0-.1Z"/>
  <polygon points="19.24 8.43 20.92 8.43 22.49 8.43 22.73 8.43 22.75 6.17 22.5 6.17 21.07 7.78 19.24 7.9 19.24 1.76 20.09 1.06 20.09 .83 16.74 .83 16.74 1.06 17.54 1.76 17.54 7.5 16.74 8.2 16.74 8.43 18.79 8.43 19.24 8.43"/>
  <path d="M28.57,7.27l-.32-.26c-.39.38-.89.57-1.51.57-.54,0-.96-.18-1.26-.54-.29-.34-.44-.8-.45-1.37h3.69c0-.57-.1-1.07-.29-1.49-.19-.42-.47-.75-.82-.98-.35-.23-.76-.34-1.23-.34-.59,0-1.11.13-1.55.39-.45.26-.8.62-1.05,1.08-.25.46-.38.99-.38,1.6,0,.51.12.97.36,1.38.24.4.57.72.99.94s.9.34,1.44.34,1.01-.12,1.43-.35c.43-.24.75-.56.96-.97ZM25.15,4.51c.09-.3.22-.53.4-.69.17-.16.37-.24.59-.24.28,0,.5.11.67.34.17.22.25.55.25.99l-2.03.29c.02-.25.06-.47.12-.67Z"/>
  <path d="M33.26,2.98c-.3-.08-.63-.13-.99-.13-.57,0-1.05.08-1.47.24-.41.16-.73.39-.95.69-.22.3-.33.67-.33,1.09,0,.37.11.69.33.98.13.17.3.33.5.45-.14.04-.26.09-.38.17-.17.12-.31.27-.41.46-.1.18-.15.39-.15.62,0,.39.13.7.39.94.13.12.28.21.46.27v.03c-.29.04-.54.16-.73.34-.19.18-.29.4-.29.65,0,.29.12.53.36.74.24.21.59.37,1.03.49.44.11.98.17,1.6.17s1.2-.09,1.69-.27c.49-.18.87-.43,1.15-.75.28-.32.42-.69.42-1.11,0-.49-.19-.88-.57-1.17-.38-.29-.9-.43-1.56-.43h-2.03c-.28,0-.49-.04-.63-.12-.14-.08-.21-.2-.21-.36,0-.14.04-.25.13-.32.06-.05.14-.08.24-.1.35.13.74.19,1.18.19.57,0,1.05-.08,1.47-.24.41-.16.73-.4.95-.7.22-.3.33-.67.33-1.09,0-.37-.11-.69-.33-.98-.16-.21-.37-.39-.62-.53v-.04l1.55.13.09-.09v-1.47h-.22l-2.03,1.21ZM31.06,8.86h2.15c.32,0,.57.07.76.21.19.14.28.33.28.57,0,.28-.16.51-.47.68-.32.18-.72.26-1.21.26-.55,0-1-.09-1.34-.28-.34-.18-.51-.43-.51-.73,0-.34.12-.58.35-.73ZM32.97,5.86c-.17.19-.42.29-.73.29-.34,0-.61-.14-.82-.43-.21-.29-.31-.66-.31-1.11,0-.37.09-.65.26-.84.17-.19.42-.29.73-.29.34,0,.61.14.82.42.21.28.31.66.31,1.12,0,.37-.09.65-.26.84Z"/>
  <path d="M37.52,2.23c.3,0,.55-.09.74-.26.19-.18.29-.4.29-.68s-.1-.5-.29-.67c-.19-.18-.44-.26-.74-.26s-.56.09-.75.26c-.19.18-.29.4-.29.67s.1.51.29.68c.19.18.44.26.75.26Z"/>
  <polygon points="36.71 7.56 35.99 8.26 35.99 8.43 39 8.43 39 8.26 38.27 7.56 38.27 2.93 37.96 2.93 35.92 3.63 35.92 3.85 36.71 4.57 36.71 7.56"/>
  <path d="M45.62,5.47c0-.52-.1-.98-.29-1.37-.19-.39-.46-.69-.8-.92-.35-.22-.75-.33-1.21-.33-.35,0-.69.09-1.02.26-.32.17-.59.39-.8.67V0h-.31l-2.03.74v.22l.77.71v6.92h.21l.82-.43c.4.28.92.43,1.57.43.6,0,1.14-.13,1.6-.4.47-.26.83-.63,1.09-1.1.26-.47.39-1.01.39-1.62ZM43.8,6.95c-.13.32-.3.56-.53.73-.23.17-.5.25-.83.25s-.61-.07-.85-.2c-.03-.02-.06-.04-.09-.06v-3.36c.14-.11.28-.21.42-.27.21-.09.44-.14.69-.14.43,0,.76.17,1.01.5.25.33.37.79.37,1.39,0,.45-.06.83-.19,1.15Z"/>
  <polygon points="46.76 7.56 46.05 8.26 46.05 8.43 49.06 8.43 49.06 8.26 48.33 7.56 48.33 0 48.02 0 45.98 .74 45.98 .96 46.76 1.67 46.76 7.56"/>
  <path d="M53.61,3.2c-.35-.23-.76-.34-1.23-.34-.59,0-1.11.13-1.55.39-.45.26-.8.62-1.05,1.08-.25.46-.38.99-.38,1.6,0,.51.12.97.36,1.38.24.4.57.72.99.94.42.22.9.34,1.44.34s1.01-.12,1.43-.35c.43-.24.75-.56.96-.97l-.32-.26c-.39.38-.89.57-1.51.57-.54,0-.96-.18-1.26-.54-.29-.34-.44-.8-.45-1.37h3.69c0-.57-.1-1.07-.29-1.49-.19-.42-.47-.75-.82-.98ZM51.04,5.18c.02-.25.06-.47.12-.67.09-.3.22-.53.4-.69.17-.16.37-.24.59-.24.28,0,.5.11.67.34.17.22.25.55.25.99l-2.03.29Z"/>
  <polygon points="62.66 7.78 60.84 7.9 60.84 1.76 61.68 1.06 61.68 .83 58.33 .83 58.33 1.06 59.14 1.76 59.14 7.5 58.33 8.2 58.33 8.43 60.38 8.43 60.84 8.43 62.51 8.43 64.09 8.43 64.32 8.43 64.34 6.17 64.1 6.17 62.66 7.78"/>
  <path d="M70.01,4.17c-.19-.42-.47-.75-.82-.98-.35-.23-.76-.34-1.23-.34-.59,0-1.11.13-1.55.39-.45.26-.8.62-1.05,1.08-.25.46-.38.99-.38,1.6,0,.51.12.97.36,1.38.24.4.57.72.99.94.42.22.9.34,1.44.34s1.01-.12,1.43-.35c.43-.24.75-.56.96-.97l-.32-.26c-.39.38-.89.57-1.51.57-.54,0-.96-.18-1.26-.54-.29-.34-.44-.8-.45-1.37h3.69c0-.57-.1-1.07-.29-1.49ZM66.63,5.18c.02-.25.06-.47.12-.67.09-.3.22-.53.4-.69.17-.16.37-.24.59-.24.28,0,.5.11.67.34.17.22.25.55.25.99l-2.03.29Z"/>
  <path d="M76.63,0h-.31l-2.04.74v.22l.78.71v1.34c-.3-.1-.64-.16-1.03-.16-.61,0-1.15.13-1.61.4-.46.26-.83.63-1.09,1.1-.26.47-.4,1.01-.4,1.62,0,.52.1.98.29,1.37.19.39.46.7.81.92.35.22.75.33,1.2.33.35,0,.7-.08,1.03-.25.33-.17.61-.4.82-.69h.09l.4.94h.24l1.49-.71v-.22l-.68-.61V0ZM75.07,7.13c-.13.12-.27.21-.41.27-.21.09-.44.14-.69.14-.43,0-.77-.17-1.01-.5-.24-.33-.36-.8-.36-1.38,0-.46.06-.84.18-1.16.12-.32.3-.56.53-.73.23-.17.51-.25.83-.25s.6.07.85.2c.03.02.06.03.09.05v3.36Z"/>
  <path d="M81.73,2.98c-.3-.08-.63-.13-.99-.13-.57,0-1.05.08-1.47.24-.41.16-.73.39-.95.69-.22.3-.33.67-.33,1.09,0,.37.11.69.33.98.13.17.3.33.5.45-.14.04-.26.09-.38.17-.17.12-.31.27-.41.46-.1.18-.15.39-.15.62,0,.39.13.7.39.94.13.12.28.21.46.27v.03c-.29.04-.54.16-.73.34-.19.18-.29.4-.29.65,0,.29.12.53.36.74.24.21.59.37,1.03.49.44.11.98.17,1.6.17s1.2-.09,1.69-.27c.49-.18.87-.43,1.15-.75.28-.32.42-.69.42-1.11,0-.49-.19-.88-.57-1.17-.38-.29-.9-.43-1.56-.43h-2.03c-.28,0-.49-.04-.63-.12-.14-.08-.21-.2-.21-.36,0-.14.04-.25.13-.32.06-.05.14-.08.24-.1.35.13.74.19,1.18.19.57,0,1.05-.08,1.47-.24.41-.16.73-.4.95-.7.22-.3.33-.67.33-1.09,0-.37-.11-.69-.33-.98-.16-.21-.37-.39-.62-.53v-.04l1.55.13.09-.09v-1.47h-.22l-2.03,1.21ZM79.53,8.86h2.15c.32,0,.57.07.76.21.19.14.28.33.28.57,0,.28-.16.51-.47.68-.32.18-.72.26-1.21.26-.55,0-1-.09-1.34-.28-.34-.18-.51-.43-.51-.73,0-.34.12-.58.35-.73ZM81.44,5.86c-.17.19-.42.29-.73.29-.34,0-.61-.14-.82-.43-.21-.29-.31-.66-.31-1.11,0-.37.09-.65.26-.84.17-.19.42-.29.73-.29.34,0,.61.14.82.42.21.28.31.66.31,1.12,0,.37-.09.65-.26.84Z"/>
  <path d="M89.2,4.17c-.19-.42-.47-.75-.82-.98-.35-.23-.76-.34-1.23-.34-.59,0-1.11.13-1.55.39-.45.26-.8.62-1.05,1.08-.25.46-.38.99-.38,1.6,0,.51.12.97.36,1.38.24.4.57.72.99.94.42.22.9.34,1.44.34s1.01-.12,1.43-.35c.43-.24.75-.56.96-.97l-.32-.26c-.39.38-.89.57-1.51.57-.54,0-.96-.18-1.26-.54-.29-.34-.44-.8-.45-1.37h3.69c0-.57-.1-1.07-.29-1.49ZM85.81,5.18c.02-.25.06-.47.12-.67.09-.3.22-.53.4-.69.17-.16.37-.24.59-.24.28,0,.5.11.67.34.17.22.25.55.25.99l-2.03.29Z"/>
  <path d="M93.02,3.16c-.32.21-.59.51-.79.88h-.06l.08-1.11h-.32l-2.02.69v.22l.78.74v2.97l-.72.7v.18h3.34v-.18l-1.06-.75v-2.9c.14-.14.32-.26.53-.35.07-.03.14-.05.21-.08l.82.84h.25l.74-2.01c-.24-.11-.5-.17-.79-.17-.35,0-.68.11-1,.32Z"/>
  <path d="M99.76,5.93c-.16-.2-.37-.37-.63-.49-.26-.12-.53-.23-.82-.31-.29-.08-.56-.16-.82-.25-.26-.08-.47-.19-.63-.31-.16-.12-.24-.28-.24-.48,0-.18.08-.31.24-.41.16-.1.39-.15.67-.15.22,0,.43.04.64.11l.91,1.17h.25l.62-1.41c-.19-.11-.41-.21-.67-.29-.25-.08-.52-.14-.79-.19-.27-.04-.54-.07-.8-.07-.79,0-1.41.15-1.85.46-.44.31-.66.73-.66,1.28,0,.33.08.6.24.8.16.2.37.37.63.49.26.13.53.23.82.31.29.08.56.16.81.24.25.08.46.18.63.3s.25.28.25.48c0,.22-.1.39-.29.52-.19.13-.45.19-.77.19-.3,0-.57-.05-.8-.14l-.91-1.24h-.26l-.62,1.42c.21.13.46.23.73.33.27.09.56.16.87.21.3.05.6.08.88.08.84,0,1.48-.16,1.93-.49.45-.32.68-.79.68-1.4,0-.32-.08-.58-.24-.78Z"/>
  <path d="M10.57,2.17c-.71-.87-1.59-1.48-2.62-1.84C6.92-.04,5.81-.1,4.63.14c-1.17.24-2.13.7-2.87,1.4-.75.69-1.26,1.56-1.54,2.61-.28,1.05-.29,2.21-.03,3.49.26,1.26.74,2.33,1.46,3.19.61.74,1.34,1.3,2.18,1.67l1.18-1.85.5.13.17,2.19c.61.05,1.25.01,1.92-.12,1.17-.24,2.13-.7,2.87-1.4.75-.69,1.26-1.56,1.54-2.6.28-1.04.29-2.2.02-3.5-.26-1.26-.74-2.33-1.46-3.19ZM10.19,7.03c-.3.5-.81.94-1.53,1.32-.72.38-1.65.68-2.78.91-.73.15-1.39.18-1.98.1-.59-.08-1.06-.27-1.44-.57-.37-.3-.6-.67-.7-1.13-.13-.62-.04-1.19.26-1.69.3-.5.81-.94,1.53-1.31.72-.37,1.65-.67,2.79-.9.73-.15,1.39-.18,1.98-.1.59.08,1.06.26,1.43.54.37.28.6.66.7,1.13.13.62.04,1.19-.26,1.69Z"/>
  <path d="M3.83,12.51l-2,3.12.07.13,3.9.98.15-.05-.29-3.71c-.49-.04-.96-.14-1.42-.3-.15-.05-.29-.11-.43-.17Z"/>
</svg>