<?xml version="1.0" encoding="UTF-8"?>
<svg id="Layer_1" xmlns="http://www.w3.org/2000/svg" version="1.1" viewBox="0 0 100 100">
  <!-- Generator: Adobe Illustrator 29.7.1, SVG Export Plug-In . SVG Version: 2.1.1 Build 8)  -->
  <path d="M48.5,94.7c1.3-.3,3.1-1,4.2-1.8-2.9,0-5.8.3-8.6.2-4.4-.2-8.8-1.3-13.1-2-1-6.1.3-12.8,2.1-18.6,1.4-4.8,4.2-10.8,6.6-15.2.2-.4,1.7-1.8.5-1.8-1.5,0-1.2.7-2.1,1.4-.4-1.8.8-1.5,1.7-2.4.5-.5,1.4-2.3,1.4-3,0-2.1-2.6-1.3-3.3-2.3-1.2-3,3.7-5,3.9-7.5.1-1.4-.9-2.5,1.8-2.3l-.6,4.2c1.6,0,2.1-3.9,1.6-4.8-1.5-.8-2.9-.7-2.7-2.8l1.7-.3.3,2c1.9-.7.8-3.6-1.1-3.6,0-1.6-.9-5.5-.3-6.8.6-1.4,3.2-2.3,4.3-3.3.9-.8,1.5-2.1,2.6-2.8,1.8-1.2,7.2-.9,9.2-.2,1.7.6,4.6,3.9,5.4,4,1.9.2,1.7-4.6,1.5-5.8-.3-1.3-2.6-3.2-2.9-4.2-.6-1.9.9-5.8-2-6.2-1.1-.2-2.3,0-3.4,0-1.7-.2-2.8-2.1-4.7-3-4.8-2.2-6.9,1.5-10.7,1.8-3,.3-3.2-1.4-6.3,1.3-3.5,3-3.6,6.6-5.8,9.8-1.3,1.9-3.7,1.8-4.9,4.4-.5,1.1-1.2,4-1.2,5.1,0,2,1.9,2.5,1.3,5-.3,1.1-1.6,2.1-2,3.1-.4.8-.3,2.2-.5,2.5,0,0-1.2.6-1.5.9-2.8,2.5-6.3,7.5-.7,8.9-.5,2.3-2.9,4.5-1.2,7,.3.5,1.1.3,1.2.7.3,1.4-.9,4,1.6,4.3,1,.1,1.6-.2,2.3-.2,2,0,2.7,4.8,5.6,5.3,1.3.2,3.1-.2,4.4,0-2.1,4.7-3.9,9.7-4.5,14.9-.4,3.6-1.3,10.2,2.3,12.3,3.1,1.9,13.4,2.6,17,1.9ZM62.4,19.2c.5.9.5,1.6.4,2.5l-3.3-3.1c-.3-2.4,2.2-.4,2.8.6ZM51.6,12.9c.7.1,1,.9,1.8,1.1,1.4.3,2.9-.8,4,1l-4,.4c-1.9-1.2-1.8-2.4-4.5-1.1,0-1.1,1.8-1.6,2.7-1.4ZM34.2,29.9c0-.6,1.3-6,2.3-5.1-.8,1.7-.6,3.8-2.3,5.1ZM39.3,51.5l-.3,1.3-.6.2c-.1-1.5-3.1-1.3-3.7-2.2-.6-.9,1-4.2,1.9-4.9.1.8-.6,1.5-.7,2.4-.3,2.5,1.2,3.1,3.4,3.2ZM40.3,35c.7.5,0,1.2.2,2,0,.5.4.9.5,1.3-2.2.2-2.6-2.6-.7-3.4ZM45.3,11.8l-2.5.6c-.6-.5,2.2-1.9,2.5-.6ZM41.8,17.8c.7-.4,1.6-.4,2.4-.6.1.8-.2.5-.6.7-.7.4-1.1.3-1.9,1-1,.9-1.6,3.6-3.2,2.1,2,0,1.8-2.5,3.3-3.2ZM31.2,34.7c-.3,1.6-.1,3.1.7,4.5-4-.8-1.8-5.2-.1-7.4.9.7-.4,1.9-.6,2.8ZM32.5,42.1c0,.6-.1,1.1-.3,1.6-.1.4-1.7,4.1-2.3,3.5.3-1.6,1-3.2,1.8-4.5.2-.4,0-.7.7-.6ZM30.5,21.7c-.9,1.3-.6,4-1.2,5.2-.5,1-1.3.6-1.4-.5,0-.9,1.2-5.7,2.6-4.7ZM25.5,43.6c-.2-1.1,0-2.1.2-3.2l1.9,3.9-.2,1.8c-.5.5-1.8-2.1-1.9-2.5ZM27.1,54.9c-1.3.9-2.5-3.3-.6-3.4,0,.6,1.1,3,.6,3.4ZM26,22.4c.3-.3.6-.8,1.1-.7l-2.5,7.6c-.5-2,0-5.3,1.4-6.9ZM25.9,31.9c3.2,2.4-1.6,5.5-1.6,8.5-.7.1-.4,0-.6-.4-1.6-3.4,2.2-4.7,2.1-8.1ZM23.7,48.3c.2,1-.2,1.8-1.1,2.3l1.1-2.3ZM19.1,44.4c-.3.6-.2,1.4-.7,1.7-.4-2.6,1.9-5,3.8-6.5.3,0,.2.6,0,.8,0,0-.8.4-1.2.9-.6.7-1.6,2.3-2,3.1ZM25.4,59.3c-1.1-.4-3.7,0-4-.5-.5-1.7.3-3.3.7-4.8.6.3,0,1.3.1,2,.5,3.3,4.5,1.3,5.1,2.2l.7,4c-1.1-.6-1.4-2.4-2.6-2.9ZM28.3,38.4c.5.2.6.8,1,1.1.3.2,1.4.5,1.5.6.3.5-.1,2.7-.9,2.5-1.5-1.2-2.2-2.3-1.6-4.2ZM31.8,61.9c-1.5.6,0-1.1,0-1.3,1.2-3.1-1.9-2.9-2.1-4.8,0-.5.1-1.5.8-1.2,0,1.9,2.6,2,2.8,3.8.1,1-.7,3.1-1.6,3.5ZM32,16.1c1.7-3.5,3.7-8.5,8.5-7.6-.8.8-1.9,1.3-2.8,2.1-2,1.7-3.3,4.1-5.7,5.5Z"/>
  <path d="M54.8,87.5c3.4-1,7.4-9.9,7.7-13.4-3.5,2.7-4.5,7.7-8.4,10.2-.8,0-.2-3.1-.5-3.8-.1-.4-.7-.4-.7-.5-.4-.6.2-2.3.2-3.2,0-1.4-1.6-10.2-4-9.1-1.3.6.5,4,.8,5.2.5,1.7,1.8,5.8,1.8,7.3,0,.9-.9,1.9-1.1,2.9-.5,3,.9,5.4,4.1,4.4Z"/>
  <path d="M65,46.4c-.6.4-.4.8-.2,1.3.8,2.2,3.9,6.3,5.2,8.7,3.3,6,6.6,13.2,8.9,19.7.5,1.4.7,2.8,1.2,4.2.1.4,0,.9.6.9-.3-1.7-.4-3.4-.8-5-1.7-6.9-7.1-19-10.9-25.1-.6-.9-3-4.9-4-4.7Z"/>
  <path d="M68.3,92.8c4.5.2,13-1.3,14.9-6-1,.2-1.7.9-2.8,1.3-2.3.9-5.1,1.4-7.6,1.5-1.8,0-8.9-.7-9.6,0-2.4,2.1,3.9,3.1,5.1,3.1Z"/>
  <path d="M68.7,69.6c-.9.4-4.5,3.5-4.8,4.2-.9,2,4.1,3.3,5.6,3.2,4.5-.2,3.7-6,3.6-9.2-.7-.1-.5,0-.6.4-1.8,2.8-.3,8.5-6.2,6.1l4.2-4.7c.4-.9-1.5-.2-1.8-.1Z"/>
  <path d="M64.8,28.4c.1,2,.7,3.8.6,6-.3,7.7-6.1,19.6-15.6,17.1,2.2,2.1,6.7.8,8.9-.9,6.3-4.7,8.5-16,6.4-23.2-.5,0-.3.7-.3,1Z"/>
  <path d="M42.5,75.5c.5.1,1,0,1.4-.1.4-.1,3.9-2.3,3.4-2.7l-.8-.3c.4,0,2.1-.5,1.7-1.1-1.4-.9-6.9.2-6.5,2.1l1.1.4c-.3.6-.6,1-.3,1.7Z"/>
  <path d="M56.3,61.8l-.2,1.6c1.7.6,3.5.3,2.7,2.8l-1.1-.3c0,1.4,1,1.5,2,1.7.2-.4.6-.7.8-1.1,1.3-3-.9-6.3-4.2-4.8Z"/>
  <path d="M60,70.7h-1c-.7,0,.1,1.7,1.6,1.6,2.3-.2,2.6-3.3.7-4.4-.7-.4-1.1-.1-1.6-.3-1,1.7.4,1.2.3,3.1Z"/>
  <path d="M53.5,59.5c-1.3-.2-1.9-1-3.1-1.3,0,1.8,2.6,2.7,4.1,2.8,3.4.2,6.3-2.9,6.1-6.2-2.1,2.5-3.2,5.4-7.1,4.7Z"/>
  <path d="M45,80.8c.4-.3,3.4-2.9,3.4-3.1,0-.6-1.5-.1-1.7,0-.7.2-1.3.4-1.9.8-.2-.9,2.6-2.5,2-3.1-1.3-.2-3.1.2-3.6,1.7-.3,1.1-.3,2.1,1,2-.9,1.1-.8,3.1.9,1.9Z"/>
  <path d="M52.9,35.7c0-.3-.2-.6-.5-.7-1.2-.4-3.5.2-4.9-.3.2,2,5,2.8,5.4,1Z"/>
  <path d="M49.5,42c0,1.1,1.8,2.4,2.7,2.7.7.3,2.5.6,2.4-.6-.7,0-1.4-.3-2.1-.6-.5-.3-2.7-2.7-3-1.5Z"/>
  <path d="M56.9,34.2v1c1.4,1,4.2.5,4.2-1.5-1.5.4-2.7.8-4.2.6Z"/>
  <path d="M58.3,26.8c-.7,1,3,2.6,3.7,3.1.2-1.8-1.9-3.7-3.7-3.1Z"/>
  <path d="M55.5,40.5c.4,1.9,4.3-.4,2.8-1.8-.5-.4-.7.6-1,.8-.5.3-2,.2-1.8,1Z"/>
  <path d="M50.1,27.4c-1.9.3-3.2,2.1-3.1,4l.9-.2c.2-1.6,1.3-2.6,2.3-3.8Z"/>
</svg>