<?xml version="1.0" encoding="UTF-8"?>
<svg id="Layer_1" xmlns="http://www.w3.org/2000/svg" version="1.1" viewBox="0 0 100 100">
  <!-- Generator: Adobe Illustrator 29.7.1, SVG Export Plug-In . SVG Version: 2.1.1 Build 8)  -->
  <path d="M38,32.9c0,.6-1.5,1.2-1.6,1.5s-.3,1.5-.4,2c-1.2,3.8-5.9,4.9-9.4,4.8-9.2-.1-13.7-9.9-10.4-17.8s10-12.6,15.6-10.8.8.5,1,.5,1.1-.6,1.4-.7c6.2-2.2,14.2,3.7,14.9,10,.5,4.5-.9,9.9-5.5,11.5s-4,.7-5.5-1ZM36,22.1c.5-.1.9,0,1.2.2.6,0-.3-2.2-.5-2.5-.6-.9-1.4-1-1.3.3s.7,1.3,1.2.6c.4.2.2.5,0,.8h-.6s0,.6,0,.6ZM35.3,23.3c0,0,.3-.7.3-.9,0-1-.9-2.8-2.1-2.7,0,.9-.6,1.8-.3,2.6.7-.3,1.4-.7,1.2-1.6,1.6.3.6,2.4-.7,2.3.5.6,1.2.7,1.9.8-1,.9-2.2-.3-2.8-1.1-.1.3,0,.6-.2.9s-1.1,1.7-1.4,2.2-2.7,3.1-2.5,3.3c.7.3,1,0,1.4-.6h.2c0,.6,1.2.6,1.7.9,1.9.8,3.7,2.2,4.1,4.3,2-1.3,3-3.2,2.3-5.6s-.6-1.2-.9-1.9.2-.5.6-.2c.7.4,1.1,1.7,1.2,2.4.2,1.5-.2,2.6-.8,3.9,2.5-.2,1.8-3.4,1.2-5.1s-.8-1.6-1.3-2.3c-.2,0-.3.4-.5.6s-.3.1-.5,0c.8-1.3-.3-2.3-1.4-2.9-.3.8-.6,1-1.5.8,0-.4.6-.1.8-.2ZM20.5,38.4c-1.4-1.3-2.4-3.1-3.1-4.8-1.4-3.6-.5-7,0-10.6s.1-.5,0-.5c-2,4.2-2.2,8.9.3,12.9s1.7,2.4,2.9,3ZM34.7,37c1.6-2.5.6-5-1.9-6.3,1.1,1.8,2.2,3.7,1.8,5.8s-.2.4,0,.4Z"/>
  <path d="M43,56.2l.6-.2c.1,0,.2.2.2.3,0,.8-.2,2.1-.2,2.9-.2,5-.1,10.3.3,15.3.5,5.7,1.6,11.4,2.6,17.1-.5-.3-.6-2.2-.9-2.4s-1.3-.6-1.5-1c0-.1.9-.7.9-1.4-.8-3.7-1.5-7.4-1.9-11.1,0-.2-1.1-.2-1.1-.6,0-.4.5-.8.7-1.2.3-.7-.2-3.4-.2-4.4s0-2.2,0-3.2c-.3,0-.2.3-.3.4-.9,3.1-1.5,6.3-2.7,9.4l1.2,3.2-2.2-.7-2.6,5.1c.1.3.3.6.5.9,1.9,2.6,4.5,5,6.5,7.6.3.2,2.4.5,2.8.5,1.4,0,1.8-.6,3.4.2s.9.6,1.3.9c-.3-.9-1.2-1.4-1.9-1.9s-.4-.3,0-.2c6.3,2.5.5,6.9-3.5,4.1s-1.4-1.6-1.9-2-.9-.2-1.1-.5-.1-.6-.2-.8c-.2-.3-2.7-2.6-3.2-3.2s-1.4-1.6-1.9-2.4-.8-1.4-1.2-1.8-.1-.2-.3-.2c-2.1,3.8-5.2,6.7-8.2,9.7,1.6,1.2,3.2,4.8,0,4.7s-3.4-2.1-5-3.3-1.9-.9-2-2,.4-.8.5-1c.3-1.4.3-3.2.5-4.6.4-2.9,1.3-5.9,1.4-8.8s-.5-4.8-.5-7.2c0-3.8.8-7.6,1.9-11.3s1-2.1.6-3.3l.5.3c.5-1.3.9-3.5,1.9-4.4s1.4-1.1,1.1-.1-1,1.4-1.3,2.1-1.3,2.7-1.3,3.1c-.1.6,2.9,2.2,3.4,2.5,4,1.8,8.3,2.4,12.7,1.8l.7-4.8v-5.1c.4,0,.6.6.8,1,.3.7.4,1.6.5,2.3ZM40.9,63.7c-3.6.8-7.3.2-10.7-1s-3.9-1.7-5.2-3-.1-.6-.4-.3-.7,1.9-.9,2.5c-.8,3-1.2,6.9-.9,9.9s1.3,6.9.5,11.1-1.2,4.7-1.4,7.1l1.2,1.3c-.3.4-1.2,0-1.4.2,0,.6-.5,1.9-.3,2.4s2.9,1.8,3.5.9c.3-.6,3.7-3.7,3.5-4-1.4-.4.7-2.3,1-2.1l.3,1c6.2-7.3,9.6-16.5,11.2-25.9Z"/>
  <path d="M72.2,22.1h.3c.4.5-2.2,3.4-2.7,4h1.6c.1,0-.9.5-1,.6-3.2,1.4-6.7,2.2-9.4,4.5-.2.3.3.8.4,1.1.2.6.9,2.7.4,3.1s-.2,0-.3-.2c-.5-.9-.7-2.4-1.2-3.4l-.6.3c.5,1.3,1.2,2.6,1.3,4.1l.7-.3c-.2.7-.9.8-.8,1.7,0,0-.3-.2-.4-.1-.3,0-3.4,2.8-3.9,3.2-4.4,3.3-9.5,5.9-12.9,10.4-.3,0-.2-.1-.2-.3.5-2.2,7-7,9-8.4s5.3-3.6,7.9-5.4c.4-.6-1.5-4.4-2-5.1-4,2.9-8.9,4.3-13.7,5.4s-8.5.7-11.5,5.1,0,.3-.3.2c.4-2.9,3.7-4,6.2-4.7s4.2-1,6.2-1.5c5.5-1.6,11-3.1,15.7-6.6h.2c0,0-1,.9-1,.9,0,.1.3.2.5.2.3,0,2.4-1.6,3-2s1.3-.7,2-1,1.1-.3,1.1-.4-.1-.3,0-.4c0-.3,2.3-1.6,2.6-2,0,.6-.7,1.3-1.1,1.7.8.1,1.1-1,1.5-1.5s2-2.2,2.1-2.6-.2,0-.3-.2c-.1-.6.6-3.4.8-4.1s.5-1.6.8-2.2c-.1,2-.5,4.1-1.1,6ZM60.1,30.9c-.1-.2-1.1.5-.7.9s.9-.5.7-.9Z"/>
  <path d="M64.9,24.6c0,0-.4,0-.4,0,.6-1.7.8-3.9.9-5.7s-.3-3.1-1.2-4.4c-2.3,1-4.7,1.9-7.2,1.5.7,3.1-.5,6.3-1.8,9.2,1.9.5,3.7.6,5.6.4s2.7-.6,4-.5c-2.6,1.6-5.6,1.9-8.5,1.2s-1.4-.5-1.7-.6-.6.4-1,.3c.3-.2.4-.6.6-.8,1.3-1.6,2.2-5.3,2.1-7.4s-.7-2.4-.4-2.8.7.2,1.2.2c.9,0,2.6-.3,3.5-.5s2.2-.6,3.3-.7v-.7c.9,0,1.7.9,2.1,1.5,1.4,2.1,1.2,6.3,0,8.5s-.9,1.2-.9,1.3Z"/>
  <path d="M59.2,3.4s-.2-.3-.3,0c.5,2.7,0,5.7-1.2,8.1,2.7.8,5.5.5,8.2.6,0,.4-.1.2-.3.2-2.6.5-7.7.8-10-.9s-.5-.6,0-.6,1.2.5,1.8.6c.1,0,.2-.4.2-.5.3-1.6.6-3.8.6-5.4s-.5-2.4-.4-3.6c2.9.8,6,.8,8.9,0l-.7-.9c0-.5,1.2.4,1.3.5,2.7,2.5,2.6,8.2,0,10.7.6-2.2,1.3-4,1.1-6.3s-.6-2.6-1.4-3.9c-1,.7-2.1,1.2-3.3,1.4s-1.4.2-1.7.2c-.9,0-1.9,0-2.8-.2Z"/>
  <path d="M83.3,23.3c0,.2-.3.6-.2.9-2,2.9-6,4.3-9.5,3.7s-2.4-.5-2.2-1.3.7,0,1,0c2.6.4,5.2.4,7.6-.8s2.9-1.6,2.9-2.5c0-1.2-.2-3.6-.5-4.7s-1.2-2.2-1.2-2.7c.1-1.2,1.2.4,1.3.8v-.9c.9-.3,1.5.6,1.8,1.3.5,1.2.6,3.3,0,4.5s-.4.7-.5.1l-.2-1.2c-.1.9,0,1.8-.2,2.7Z"/>
  <path d="M79.3,11.9c.5,0,1.3-.1,1.7-.3s1-.8,1.5-.6c-.4.3-.8.8-1.3,1.1-1.4.8-6.6.6-8.1,0s-1-.4-.7-.8.2,0,.4-.3c.5-.8.7-3.4.7-4.4s-.2-3.1-.3-3.2l-1.5.2c.6-.2,1.3-.8,1.8-1s.4,0,.6,0c2.2-.8,4.4-1.6,6.7-1.8l-6.8,2.3c.6,2,.6,5.4-.3,7.3s-.5.6-.7,1c2,0,4.2.5,6.2.5Z"/>
  <path d="M83.6,8.8c.3,0,.2-.5.2-.7,0-1-.6-3.5-.4-4.1s.4-.6.8-.4c.6.2.8,2.3.8,2.9s0,2.5-.3,3.2-.9.5-1,.7-.2.6-.2.8,0,.4-.3.3c0-.9,0-1.7-.2-2.6-.3-1.7-.6-3.4-1-5.1s-.8-2.4-.6-2.6c.2,0,.3,0,.4.2,1.2,1.2,1.7,5.7,1.9,7.5Z"/>
  <path d="M68.1,20.6c-.4,0-.2,0-.3-.3-.3-1.2-.3-2.2-.7-3.5s-1.1-2.1-1.2-2.8,0-.4,0-.5c1.1,0,1.7,1.7,2,2.6.5,1.6.6,2.9.2,4.5Z"/>
  <path d="M43.7,82.3c.2.3-.3.2-.4.2-.1,0-.7,2.5-1.4,2.7-.5,0-.4-3-.6-3.6.2-.6,2.1.3,2.3.6Z"/>
  <path d="M80.5,16.4c-1.9-.5-4,.1-5.9,0s-1.1,0-1.1-.3c0-.3.3-.3.5-.4,1.3-.3,4.2-.3,5.5,0s.9.3,1,.5Z"/>
  <path d="M70.1,3.7c.7.6.9,4-.4,4.5.5-1.2-.6-3.4-.5-4.4s.7-.3.9,0Z"/>
  <path d="M42.8,87.5c.1,1.1.3,2.3-.1,3.3l-1.4-2.7c-.4-.3-.4-.4-.3-.9l1.8.3Z"/>
  <path d="M80.6,8.5c-1.2.8-3.6,1.5-5,1.5s-.7-.6.2-.8c1.4-.4,3.3-.6,4.8-.6Z"/>
  <path d="M71.2,27.6c-1.6.1-3.4,1.7-4.8,2s-.4,0-.5-.2c.7-.8,4.3-2.6,5.1-2.1s.3.3.2.4Z"/>
  <path d="M63.2,17.9c0,.5-.9.8-1.3.8-1,0-1.6-.6-2.4-.7s-1.2.3-1.7.5c-.6-.8.5-1.1,1.2-1.1,1.5,0,2.8,1.1,4.3.5Z"/>
  <path d="M66.6,30.7c-.4-.5,1.9-1.5,2.2-1.6.6-.2,1.5-.6,2,0,0,.2-.2.3-.3.3-.6.3-2.1,1-2.8,1.2s-.7.3-1.1.2Z"/>
  <path d="M80.9,17.7c-.5.8-5.6,1.4-5.9,1.1,0-.4.4-.5.7-.5,1.1-.3,2.4-.3,3.5-.4s1.1-.4,1.7-.2Z"/>
  <path d="M60.1,8.5c1.3,0,2.9-.7,4.2-.7s-.3.7-.6.8c-1,.4-2.5.6-3.5.2v-.4Z"/>
  <path d="M80.3,20.5c-1,.9-3,.2-4.3.2s-1.2.2-1.8.1c-.4-.4,1.7-.8,1.9-.8,1.4,0,2.8.8,4.3.5Z"/>
  <path d="M39.1,86.3l-1.7-1c-.6-.4,1.1-1.3,1.3-1.2.4.2.5,1.7.4,2.1Z"/>
  <path d="M62.8,21.6c0,.3-.3.2-.5.2-.5,0-1.1,0-1.6,0s-1.3.5-2,.6-.3.1-.5-.1c1.5-.8,2.9-1.4,4.6-.8Z"/>
  <path d="M63.8,5.9c-.1.2-.6.3-.8.4-.5.2-3,.7-3.2.3,0-.3.3-.4.5-.5,1-.2,2.5-.2,3.5-.3Z"/>
  <path d="M65.6,4.5c.5,0,.4.5.2.9-.7,1-2.6-.1-1.8-.6.5-.2,1.5.4,1.6-.3Z"/>
  <path d="M79.4,6.2c0,.3-.1.3-.3.4s-2.5.9-2.7.9c-.5,0-.6-.4,0-.6.8-.4,2.2-.4,3.1-.7Z"/>
  <path d="M79.1,3.7c.3-.2,1.3.8,1.4.8,0-.3,0-.6,0-1s0-.5.2-.5v1.7c-.2.4-1.9-.7-1.5-1.1Z"/>
  <path d="M66.7,6.9l-.4,1.4c-.5.5-1.3-.5-1.2-1l1,.5c0-.1.4-1.2.6-.9Z"/>
  <path d="M37,27.6c-.2,1-2.1.7-2.6.3s-.3-.6,0-.7c.7-.3,1.8.5,2.6.4Z"/>
  <path d="M29.6,69c.4,0,1.3,2.2,1.4,2.6.7,2.5-2,.3-2.7-.4,0-1,.7-1.6,1.3-2.2Z"/>
  <path d="M32.5,85.6h-1.9c0-.1,1.1-3.1,1.1-3.1.6,0,1.2,2.7.8,3.1Z"/>
  <path d="M35.4,66.2c0,0,.2,0,.2.2,0,.7-1.4,1.9-2.1,1.6-.2-.2.4-1.5.4-1.8s-.4-.5,0-.8c.4-.2,1.3.5,1.6.8Z"/>
  <path d="M35.1,75.4c-.4,0-.3.8-.6,1s-1-.4-1.3-.6-.8-.7-.9-.8c-.3-.4.2-.5.6-.5s2.2.6,2.3.8v.2Z"/>
  <path d="M30.2,79.3c-.2.1-2.3-1.2-2.3-1.3,0-.5,1.5-1.2,1.9-1,.1.1.3,1.1.3,1.4,0,.4-.3.6,0,1Z"/>
  <path d="M25,66.7v2.8c-.2,0-.2,0-.4-.2s-1.1-1.8-1.1-1.9c0-.6,1-.9,1.5-.7Z"/>
  <path d="M26.1,76c-.6,0-.6,1.6-1.3,1.5s-.6-1.5-1.1-1.6c0-.8,2.2-.7,2.4.1Z"/>
  <path d="M26.8,83.7c-.2,2-1,2.7-2.3.8,0-.3.6-.3.9-.4.5-.2.9-.7,1.4-.4Z"/>
</svg>