<?xml version="1.0" encoding="UTF-8"?>
<svg id="Layer_1" xmlns="http://www.w3.org/2000/svg" version="1.1" viewBox="0 0 100 100">
  <!-- Generator: Adobe Illustrator 29.7.1, SVG Export Plug-In . SVG Version: 2.1.1 Build 8)  -->
  <defs>
    <style>
      .st0 {
        fill: #010101;
      }
    </style>
  </defs>
  <path class="st0" d="M36.3,42.9c.4-.7.6-1.5.7-2.3,4.4,1.1,10.4-.3,12.6-4.5l1.7,4.4c.7,1.1,1.5,1.9,2.8,1.8-.1.3-.8.5-1.1.6-4,1.5-8.1,1.6-12.1,2.8-3.9,1.1-8.1,4.1-8.2,8.6.4.5,1.9-2.8,2.2-3.1,4.1-5.3,10-4.3,15.8-5.9,2.7-.7,5.4-2.1,8-3.1,5.8-2.2,6.6-10.7,3.3-15.2-2.6-3.5-7.1-3.3-7.6-8.7-.4-4.4.9-8.8-2.3-12.6-3.5-4.1-8.2-3.7-11.9-.1-6.1-5.1-17.8-.5-21.7,5.5-4.2,6.5,0,9.7,2.5,15.1,1.9,4.1-2.8,7.6-4.7,11-3.7,6.7.9,11.1,7.4,12.2,5.4.9,10-1.8,12.5-6.5ZM56,23.9c2.1,1.6,5.3,2.9,5.9,5.8-.6-.4-.8-1.2-1.2-1.7-1.7-2.1-4.1-3.3-6.5-4.4l-.3-2.1,2.2,2.5ZM19.8,12.4c-.9,2.1-1.3,4.3-1.1,6.6-.3,0-.3-.4-.3-.6-.9-3,.3-6.3,2.6-8.3-.3.8-.8,1.5-1.1,2.3ZM50.2,29.7c.3-.7-.9-3.3-.4-3.6,2.5-.8,2,1.8,1.6,3.4l-1.2.3ZM51.4,31.9l1.4-2.3c0,.9-.3,2.3-1.4,2.3ZM52.2,7.4l-2.4-2.4-3.6-1.7c2.6-.2,5,1.8,6,4.1ZM27.1,36.7v-.6c1.1.4,1.9.1,2.9-.2-.6,1-1.9.8-2.9.8ZM30.6,32.9c-.5.7-.6-.4-1-.5l-.4,1.8c-1.1.3-3.1-.7-3.2-2,0-1,1-2,1-3,.8.8,3.3,1.5,2.7-.3-.9-.4-1.9-.3-2.2-1.5-.3-1.3,2-1.2,2.8-.7,1.3.7,0,3.8-.4,5l.8,1.2ZM31.6,13.4c2.2.8,4.5,1.4,6.8,1.4l-2,.2c-.9-.2-1.9-.3-2.8-.5-.7-.2-2.2-.2-2-1.2ZM33.7,20.4l-.6-4.7c4.6,1.4,9.5.8,14.2,0-1.9,5.9,2.5,11.6,2.1,17.4-.4,4.9-6.5,7.2-10.8,6.7-4.9-.6-4.3-4.5-6.3-7.9.9-3.1,1.5-6.4,1.4-9.6,1-1,1.3-2.2,3.1-2-.8-1.1-2.3-.7-3.1.2Z"/>
  <path class="st0" d="M41,97.3"/>
  <path class="st0" d="M40,54.9c.5,0,1.8,1.4,2.2,1.8,2.6,2.8,4.7,6,6.6,9.2v.6c-.1.2-3.1,1.5-3.6,2-.2.2-.5.3-.4.7.5.5,3.7-1.2,4.3-1.6l3.1,8.6c0,.4-1.7,1.4-2.2,1.8-4.2,2.8-8.4,3.3-13.3,2.3-.2-.2,1.2-2.6,1.4-3,1.4-2.5,4.2-6.8,6.4-8.6.4-.3,2.8-1.4,2.3-2-3.2-.2-5.1.9-7.2,3.2-2.3,2.6-4,6-4.7,9.4-3.6-2.5-6.1-6.4-5.7-10.9,4.6-1.6,9-4.5,14-4.5,0-.5-1.6-1-2-1.1-3.4-.5-7.2.7-10.1,2.4-.3.2-1.8,1.4-1.9,1.3.2-1.7.5-3.3,1-4.9.6-1.8,1.6-3.4,2.1-5.2-.8.6-1.3,1.7-1.7,2.5-3.5,7.4-3.9,15.1,3,20.5,1.9,1.5,3.1,2.1,5.6,2.3,5,.4,9.7-.7,13.3-4.2l1,.3c1.1-3.3,4.7-4.9,5.8-8.2l.3.8.5,4.2c.5-2.8,0-6.1-.7-8.9-.5-2.4-1.4-3.9-2.7-6-.4-.4-.4-.1-.2.2.7,1.6,1.6,2.8,2.1,4.5.2.9.8,3.6.7,4.4-.2,1.3-3.6,4.5-4.7,5.5-.3-2.9-1.4-5.6-2.9-8.1,0-.2,1.5-1.2,1.8-1.5.4-.3,3.2-3.1,2.9-3.4-.6.3-1.3.7-1.8,1.2-.9.6-2.7,2.5-3.5,2.9-.4.2-1.3-.2-1.8,0,0-.8-.4-1.5-.8-2.2-1.1-2-3-4.7-4.5-6.5-.3-.4-2.6-2.4-2.4-2.7,7.6-3.5,15.1-7.2,21.8-12.3l1.2-1.3-25.7,14.5c-.3.7,1.1,0,1.2,0Z"/>
  <path class="st0" d="M78.1,72.3c-6,5.5-12.2,10.8-19.2,15l-16.9,2.9v-3.7c2.9-.1,6-.6,8.9-1.3,1.6-.4,3-.8,4.3-1.8.2.2,1,3.2,1.4,3.8.2.2.4.1.6.1.7-.7-2.7-9-3.2-9.1-.3,0-.5.2-.5.5,0,.5,1.4,3.7,1.2,3.8-4.4.2-8.9.7-13.2,2.1,0-.6-.6-2.6-1.3-2.5-.6.1.3,1.9.3,2.4,0,.8.1,1.4.2,2,.1,1.1.3,3.1,0,4.1,0,.3-.6.2-.6.7,0,.7.6.6.7.9,0,.3-.4,2.5-.8,2.7-.7.3-5.2.7-5.2,1.6l.5.3c9.5-2,19.1-3,28.6-4.8,4.3-.8,8.7-1.6,12.7-3.4l-.4-.3c.4-2.3,0-5.1-.5-7.3-.1-.5,0-1.3-.8-1.2-.9,1.3,1.3,8.1.8,8.6l-33.9,6.2h-.5c0-.1.4-2.3.4-2.3l26.3-4.8.2-.3c-1.8-.8-3.6-.3-5.4-.2-.3,0-1.3.1-1.3-.2,1.9-.8,3.8-2.1,5.5-3.3,2.3-1.6,10.7-8.5,11.2-10.9,0-.1,0-.3-.1-.3Z"/>
  <path class="st0" d="M83.8,58.8c-.4-2.8-.2-4-1.6-6.9-.6-1.2-4.4-6.4-5.6-6.6-.3,0-.5.2-.5.5,0,.2,2.4,2.1,2.7,2.5,1.8,1.9,3.9,5.2,4.3,7.9,0,.2.2.8-.2.7-.4-1.5-2.9-4.8-4.3-5.3-.3,0-.7.1-.8,0-.2-.1-1.4-3.3-1.7-3.9-.5-1.1-1.2-2.2-1.8-3.2h-.7s0,.7,0,.7c.6,1.7,2.4,4.7,2.6,6.4,0,.5-1,.4-1.2.2-.2-.1-2.1-4.3-2.6-5-1.5-2.5-3.3-4.8-5-7.2h-.4c0,.4,0,.7.2,1,.7,1.7,3.2,4.5,4.3,6.3,1,1.6,1.7,3.3,2.6,5,0,.5-2.3,0-2.1,1,.1.6,1.8.2,2.3.3.3.1.4.5.5.7.9,2,1.7,5.5,2.2,7.7,1,4.5,1.6,9.1,2.2,13.7,0,.3.1.7.4.3-.2-7.6-1.5-15.5-4.1-22.7h1.2c0-.1,2.9,10.4,2.9,10.4l-.6.3.8.3,1.7,8.5c.3,0,.4-.7.4-1,.3-2.7-.6-5.5-1-8.2,1-.8,1.8-1.8,2.3-3,.4.2,1,2.2,1.2,2.7.1.3,0,.5.5.4.3-.3-1.1-4-1.2-4.7ZM80.6,62.9l-2.5-10.3c1.8.9,4.4,4.9,4.7,6.8.1,1.1-1.1,3.2-2.2,3.6Z"/>
  <path class="st0" d="M59,81.1c.2.3.4.3.7.3.8,0,3.1-1.9,4-2.4,3.3-1.7,7.7-3.7,10.7-6,.2-.2.5-.4.6-.7-.7.1-1.4.3-2,.6-2.4,1-6.4,3-8.7,4.3-.6.4-5.4,3.5-5.4,3.8Z"/>
  <path class="st0" d="M57.4,78.8c.3.5.3.2.7,0,1.7-.6,3.3-1.9,4.9-2.7,3.8-2,7.9-3.6,11.3-6.1-2.4.2-4.6,1.7-6.9,2.4l-10,6.3Z"/>
  <path class="st0" d="M56.3,51.8c-.5-.5-1.7.2-2.1-1.1-.3-1,1-1.7.2-2.5-1.1.2-.8,1.4-2.2.8-.3.6.4,1.2.4,1.5,0,.7-.7,1-.1,2.1.6,1.1,1.8.2,2,.4l.8,1.1-.6,1.5c1.6.3,2.4-3.1,1.6-3.9Z"/>
  <path class="st0" d="M50,55.3c-.8-.5-1.6.2-2.2-1.1-.3-.7.3-1,.2-1.8l-1.6.6c.3.9-.2,1.9,0,2.8.2,1,.9.6,1.5.8.3,0,1.4,1.4,1.4,1.7l-1,.6c2.1,1.6,3-2.8,1.7-3.6ZM49.1,55.9c.7,0,.7.7.6,1.2-.3,0-.7-1.2-.6-1.2Z"/>
  <path class="st0" d="M62.9,67.6l.7-.2c2.4-2.8,5.6-6,5.7-9.9-1.2,1.7-2.1,3.5-3.3,5.2-.6.9-2.5,2.6-2.8,3.4-.3.5-.3,1-.2,1.5Z"/>
  <path class="st0" d="M63,46c.4,1.3,1.6.4,2,.7.6.4-.3,1.1-.2,1.4,1,1.2,2.4-1.5,2.2-2.4-.2-.8-.9-.5-1.3-.8-.3-.3-.5-1.1-.3-1.5l-.2-.2h-1.7c.5,1-.8,1.8-.5,2.8Z"/>
  <path class="st0" d="M58.9,49.2c.5.5,1.1,0,1.4.1.3.2,1,1.5.6,1.8l-.6-.2c-.4,1.5,1.2.9,1.6.4,0-.1.7-2.2.7-2.3,0-1.3-1.4-.7-1.7-1-.7-.9.2-1.7,0-1.9l-2.1-.2c.4,1.3-.3,2.4,0,3.5Z"/>
  <path class="st0" d="M62,70.5c0,.3,0,.5.3.2.5-2.8-.4-6.9-1.9-9.3-.1-.2-1.3-1.9-1.6-1.6,0,1.1.8,1.9,1.3,3,1.1,2.5,1.4,5.2,1.9,7.8Z"/>
  <path class="st0" d="M70.7,67.4c-2.1.9-6.3,3-8.3,4.3-.6.4-1.6.8-1.5,1.7.3.3,2.5-1,3-1.2l7.7-5c-.3,0-.6.1-.9.2Z"/>
  <path class="st0" d="M66.6,59.2h.6c1.1-2.1,3.4-3.9,3.3-6.4l-3.8,5.4v1Z"/>
  <path class="st0" d="M66.4,51.1c-.3-.3-2.1,2.1-2.3,2.4-.5.8-1.1,1.7-1,2.8.7-.3,3.6-4.8,3.3-5.2Z"/>
  <path class="st0" d="M67.9,55.6c.2-.5,1.1-4.3,1-4.5-.4-.5-1,1.7-1.1,1.9-.3,1-.5,1.8-.4,2.8.4,0,.3,0,.5-.3Z"/>
  <path class="st0" d="M43.7,28.3c-.3.6-1,.5-1,1.2,3.3-.3,2.2-4.4,0-5.5-.5-.3-1.3-.3-1.1.5.2.9,3,2,2,3.9Z"/>
  <path class="st0" d="M43.9,34c1.1,0,2.2-.4,2.6-1.5-.7,0-1.4.4-2.2.4-1.1,0-2.5-.7-3.6-.8-.3,0-.5,0-.7.3-.2,1,3.1,1.5,3.8,1.6Z"/>
  <path class="st0" d="M35.3,24.9c0,.6.2,1.2.8.8.2-1.6,1.1-2.6,2.3-3.6-1.6-.2-3,1.3-3.1,2.8Z"/>
  <path class="st0" d="M43.1,20.8l1.6,2,.7.4c.4-1.3-.9-2.6-2.3-2.5Z"/>
  <path class="st0" d="M43.4,18.4l2,1c0-1-.8-1.8-1.8-1.8-1,0-1.3.6-.2.9Z"/>
</svg>