<?xml version="1.0" encoding="UTF-8"?>
<svg id="Layer_1" xmlns="http://www.w3.org/2000/svg" version="1.1" viewBox="0 0 100 100">
  <!-- Generator: Adobe Illustrator 29.7.1, SVG Export Plug-In . SVG Version: 2.1.1 Build 8)  -->
  <path d="M69.1,79l-.5.8c1.4.2,1.5-1.2,2.4-1.7.6-.3,1.5-.5,2.2-.8.3.4-.5.6-.5.9,1.2.3,1.1-1,1.5-1.3.2-.1,3-1.1,3.2-1,0,.4-.5,2.5,0,2.6,1.4-.3,1.5-1.8,1.5-3l1.3-.3c-.2-.6-1.1-.2-1.3-.3l-.5-1.5c.3,0,.5-.1.4-.5-.9.2-.8-.3-1.2-.7-.9-.8-2-1-3.2-1-1-1.6-2-3.1-3.1-4.6-1.9-2.5-8.6-10.7-11.3-11.4-.3,0-.6.1-.8,0-1.4-1.3-.1-3.1-.5-4.2-.3-1.2-1.9-1.1-2-2.4-.8.1-.5.7-.6,1,0,0-.7.9-1,1.2-.5.8-2.2,2.6-1.4,3.4.7.7,1.9,0,2.6-.4.2-.1.7-.8.9-.5,0,1.1.7,1.8,1.1,2.6-.4-.1-.6-.3-1.1-.2-1.6.3,0,3,0,3.2-.9,0-1.8.9-2.7,1-.6,0-1.1-.2-1.7-.1,0-.4-.5-3,0-3l2.3,2.3c.8,0-.7-2.1-1-2.3-2.6-2.6-2.9,1.4-2.3,3.2-1.7.3-3.4-.4-5.1.5.5-1.4,1.1-2.8.5-4.3-.4-1-1.8-1.1-2.6-.3-.2.2-.9,1.8-.9,2.1-.1.8.4,1.6.6,2.3l-2.4.2c.8-1,1.2-1.3.8-2.7-.6-2.2-1.9-1.6-3-.2l-.6-.5c.3-.4.6-1.1,1-1.4.6-.3,4.2-.7,4.4-1.2-1-1.5-1.3-2.3-3.2-1.5-.5.2-1.4,1-1.7.6-.2-.2-.4-1.4-.3-1.7,0-.1,1.2-.9,1.4-1,1.9-.8,3.9.3,5.8.4-.2,1.7-1.2,1.7-1.5,0h-.4c-.4,3,2.6,3.4,2.7.2h1.9s-.5,3.1-.5,3.1c.2,1.6,2.7,2.1,3.2.5.5-1.4-.7-2.6-1.1-3.9,4.7-1,8.2-5.4,9.1-10,.6.5.4,1.4,1.1,1.9,1.4,1.1,2.5-.5,3.7-1,.5-.2,1.1-.2,1.6-.4.7-.2,3.9-3,4.3-3.6,1.8-2.7,3.4-8.2,3.3-11.4,0-1.5-1.9-6.7-2.8-7.8-.3-.3-.7-.5-.9-.8-1.2-1.5-.6-3.5-3.1-4.3-.6-.2-1.4-.1-1.9-.5-.3-.3-.7-1.1-1-1.5-.6-.8-3.2-2.7-4.1-3-.8-.2-2-.2-2.7-.5-.5-.2-1.2-1.4-1.7-1.9-2.1-1.8-4.3-2.7-7-2.5-1,0-2.2.5-3.2.5-2.2,0-3.1-1.1-5.8-.2-1.6.5-2.5,1.7-3.7,2.5-2,1.1-4,1.7-5.5,3.7-.5.6-.7,1.5-1.1,2.1,0,.1-1.1,1.2-1.2,1.2-.4.2-1.7,0-2.3.3-2.1.6-1.3,1.9-1.9,3.1-.8,1.4-2.2,1.3-3.1,2.3-.7.9-.8,1.5-.7,2.6,0,.4.3.8.3,1.2,0,.3-.4,2.2-.5,2.5-.3.6-1.5.6-2,1.2-.1.2-1.3,2.1-1.3,2.3-.2,1.2.9,1.6,1.4,2.2.2.3.3.8.5,1.1-1,1.7-3.4,1.8-3.4,4.1,0,2.3,1.7,2,3.4,2.5.6.8-1.9,3.9,0,5.4.6.5,1.6.9,2.4.9.4,1.6-.2,2.8.9,4.2,1.5,2.1,3.4,1,5.5.9.5.9.9,2.2,1.8,2.8,1.3.9,3.8.3,5.4.6.5,0,.9.9,2,.9.9,0,2.1-1.2,2.6-.2.4,1-1,1.3-1.1,2.2,0,.6.9,1.4,1.3,2,.8,1.1,1.5,2.8,3,3,.9.1,1.6-.2,2.4-.1.5,0,.9.5,1.5.5.9,0,1.8-.9,2.9-.9.6,0,1.3.4,1.9.4.5,0,3.2-.3,3.7-.3.7-.1,1.2-.6,1.8-.8,1.2-.4,2.5,0,3.5-1.2l.7-1.1c4.5,4.1,8.5,8.5,12.3,13.2l-.9.6c-1.2-.5-2.3.3-3.3.4-.5,0-1.3-.2-2-.2-.7,0-1.9.3-2.4.9-.3.3-.4.8-.4.9,0,0-1,.2-1.3.3-1.3.5-2.2,1.7-1.7,3.2-3.4,1-4,4.9-5.3,7.7-.3,0-.6,0-.9,0-.7.2-3,1.8-3.7,2.4-.5.4-1.2,1.6-.1,1.7.9,0,3.2-2,4-2.6-.3,1.6-1.2,3.3-1.4,4.9,0,.9,0,2,0,2.9.3,0,.3-.3.3-.5,1.4-4.1,2.7-7.6,4.8-11.4.3-.5,1.4-2.6,1.7-2.8,0,0,1.2-.5,1.3-.5,0,0,.4.8,1.3.1l-1.1-.3,3.9-1.5-.3,1.1c-.9.4-4.6,1.7-4.9,2.5-.2.4.1.6,0,.9,0,.3-.9,1.2-1.1,1.6-2.1,3.8-3.3,8.3-4.1,12.5h.3c1.7-2.3,2.4-5.2,3.6-7.9,1.1-2.3,2.6-4.3,3.4-6.7,2.1-.6,4.2-2.1,6.2-2.7,0,0,.3,0,.2,0ZM54.3,53.4c-.4-.4,1.6-2.3,1.9-2.7,1.9,1.4-.6,2.5-1.9,2.7ZM40.4,54.1c.7-.4,1.8-1.6,2.5-.9l.8,1.2-3.5.9v-1.1ZM25.1,46.4c-.5-.4-.8-1.6-1.1-1.8-.5-.3-1.1,0-1.7-.7-.8-1.2-.3-2.4-.2-3.6.7.5.5,1.6,1.1,2.2.5.6,1.6.4,2,1,.7.9.3,2.7,1.4,3.5-.2.1-1.3-.3-1.6-.4ZM50.4,54.9c-1.6,0-.4-2.5-.7-3.5v-.2c.1,0,.6,0,.6,0,0,.8,1.7,3.8,0,3.8ZM59.7,10.1c.4.1,2.7,1.8,3.1,2.2.7.7.9,1.7,1.7,2.3.8.6,1.4.4,2.2.7,1.2.4,1.4,2.7,2.1,3.7.4.6,1,.9,1.4,1.7.8,1.5,2.4,5.4,2.4,7,0,.7-.3,1.4-.3,2.1-.1,1.4.2,2.3-.5,3.8-.2.5-.6.8-.8,1.3-.6,1.2-.9,2.6-2,3.3.4-.7,0-2.2,0-2.6,0-.3,1.4-1.6,1.7-2.1.5-1.1.1-1.8.1-2.9,0-1.8,0-4.2-.6-5.9-.2-.5-.6-1-.8-1.5-.5-1.4-.6-3.1-1.9-4.2-.2-.2-.7-.3-.8-.4-.4-.4,0-1.3-1.4-1.9-1.4-.6-.9-.5-1.9-1.4-.7-.6-1.7-1.1-2.6-1.4.5-1.1.3-2.4-.8-3.1-.6-.4-1.5-.2-1.7-.8.4,0,1,0,1.4.2ZM53.2,16.5c-.5,1.6.6,3.7,2.4,3.5v.6c-.1.1-2.4-.9-2.8,0-.4.8,1.6.9,2.1,1.1.9.3,1.6.7,2,1.6-2.8-1.4-5.5,1-5.7,3.8-1.2-.6-2.4-.6-3.6-.2,0-2.8-3.1-4.1-5.6-3.9.2-.3.9-.5,1.2-.6,1.2-.2,2.7-.1,3.9-.3.6-.1,1.2-.6,1.5-1.1.5-.7,1.2-2.7,1.7-3.2.1,0,2.2-1.1,2.4-1.2.2,0,.3-.2.6-.1ZM28.9,16.7c.9-2.1,1.1-4.9,2.9-6.4,1.6-1.3,3.4-1.6,5-2.6,1.1-.6,1.7-1.6,2.9-2.3,2.2-1.1,3,0,5.1,0,1.9.1,3.9-.6,5.8-.3l-3.9.7c-.8,0-1.7.8-2.4.9-.8.1-1.6-.4-2.4-.4-1.2,0-3.1.8-4,1.6-.4.3-.7,1-1.2,1.4-1.7,1.1-2.9.9-4,3.1-.4.7-.3,1.6-.8,2.2-.6.8-2.3,1-3,1.9ZM40.4,19.5c-.6.6-1.3,1.1-2,1.7-.2.2-.5.2-.7.4-.9.8-1.7,2.2-3,2.3-.9,0-1.2-.4-2.2.2-.2.1-1,1.1-1.2.9.6-2.7,3-1.9,4.8-2.7.4-.2,1.5-.9,1.8-1.2.7-.8,1-2.3,2.5-1.4ZM34.3,40c-.4-1-.4-2.1-1.5-2.7,1-.3,1.1-2,0-2-.6,0-1.2.6-1.9.4-.2,0-.9-.8-.9-1-.6-1.8,1.6-2.3,2.1-3.7.3-1.1.3-2.4.5-3.5.1-.2,4.5-.7,5.1-.6,0,0-.2.2-.2.2,0,.7,0,1.6,0,2.3.2,1.6,2.3,4.4,3.8,4.9,1.5.6,4.7.2,6-.9.2-.1,1-1,.4-1,0,0-1.2.6-1.6.7-.6.2-1.3.2-2,.2.1-.3.5-.2.6-.6.2-.5.2-1.3-.2-1.7-1.1-1.1-2.8.3-2.2,1.6.2.4.6.5.8.8-2.5,0-4.7-3.4-4.7-5.7,0-1.7.8-1.4,1.6-2.3.7-.9.5-1.5,2-1.7,1.9-.2,4.3.8,5.1,2.6.3.7.3,1.4.4,2,.4,1.5,3.6-.5,3.9-.2,0,2.7,2.8,4.7,5.4,3.9-.2-.9.6-1.3-.1-2.2-.7-.9-1.7-.2-2,.7-1.5-1.4-1.9-3.9-.8-5.7,1.9-3.3,5.7,1.6,5.9,3.9,0,.7,0,1.8-.2,2.5-.1.5-.6,1-.6,1.5,0,1,.6,2.8.7,3.9.7,8.3-6.9,16-15.3,12.9-4.5-1.7-7.9-5-9.8-9.4ZM41.6,59.9c-.6-.3-1.1-.8-1.3-1.4l1.1-1.4c.5,0,1,1.6.7,2.1-.1.2-.6.4-.5.8ZM45.2,60.2c0-.7-.6-1.6-.5-2.3.2-.9.7-1.9,1.8-1.8.9,1.5,0,2.7-.3,4.2h-1ZM58.2,58.5c0,0-.5-1.6-.5-1.7,0-1,1.5-.4,1.5.6,0,.5-.6,1.5-1,1.1ZM77.2,75l-3.1.5v-1c0,0,2.9-.6,2.9-.6l.2,1.2ZM76.5,72.9h-1.4c-.9-1.1,1.2-.7,1.4,0ZM74.4,72.9h-1c0,.1-.3-.3-.3-.3.5,0,.9-.3,1.2.3ZM73.3,74.7c.7,1.5-1.1,1.4-2.1,1.8v-1.1s2.1-.7,2.1-.7ZM71.4,72.7l.4.5c-.5.4-1.6.6-1.7-.2l1.3-.3ZM62.6,76.5c.3-.6,1.5-1.3,2-.6l-2,.6ZM66.1,74.7c0-.2,2.3-1.2,2.6-.4-.8,0-1.9,1-2.6.4ZM67.4,76.7c0,0,2.2-.9,2.3-.8.3,1.5-1.3,1.6-2.4,2,0-.3-.1-.9.1-1.1Z"/>
  <path d="M78.2,87.6c.3-.1.6-.4.8-.7l-6.6-.8-1.1.3c-1-2.7-4.8-2.1-6.3-.2-1.2,1.5-1,3.2,0,4.8-1.1,1.1-3,3.8-.3,4.1,2,.3,2.6-.7,2.3-2.6.9.3,2.5.6,2.9-.5.5-1.1-1.3-1.2-1.9-1.5-3-1.4-1.1-6,2.1-4.5,1.2.5.8,1.2,1.3,1.6.2.2,1,.3,1.3.4,1.1.1,4.5,0,5.4-.5ZM65.3,93.6c.2-.2.5-1.6.8-1.5.5.2-.1,1.9-.8,1.5Z"/>
  <path d="M37.7,58.1c0-.8-1.2-.6-1.7-.5-2.1.5-7.3,6.5-9,8.4-3.8,4.2-6.8,7.8-9,13-1.2,2.8-2.3,5.8-1.6,8.9.3-.1.4-.6.5-.9,1.4-4.3,2.3-7.6,4.5-11.7,2.9-5.5,9.6-13.7,15.2-16.5.4-.2,1.1-.2,1.2-.7Z"/>
  <path d="M55.3,79.5v-.3c-1.6.2-3.1,1-4.5,1.8-.6-2.4-1.7-4.6-2.7-6.9-.4-.8-1.1-2.6-1.6-3.3-.2-.2-.3-.4-.6-.3-.3.2-.2.4-.2.7,0,.7.7,2.3.9,3,.9,2.5,2.3,4.8,3.6,7.1-1.1.9-4.9,3.9-4.5,5.4.1.4.6.8,1,.5,2.7-2.7,5.4-5.5,8.5-7.8Z"/>
  <path d="M48.7,80c-.9.2-1.8.7-2.5,1.4-1.8,1.6-6.6,9.5-6.6,11.9,0,1.3.8,1.7,1.6.6,2-2.9,3.4-7.7,5.4-10.7l2-3.1Z"/>
  <path d="M36.7,76.2c-1.3,2.2-2.4,8.8-1.6,11.2,0,.3.2.5.4.6l2.5-12.7c-.7-.1-1,.4-1.3.9Z"/>
  <path d="M84.1,87.8c-.6-1.3-2.7-3.5-4-4-.7-.3-1.1.1-.8.8.1.3,2.1,1.7,2.6,2.3.7.9,1.1,1.8,1.3,2.9.2.7.7,2.8.3,3.3,0,.1-.8.4-.2.6,2.8.9,1.3-4.8.7-6Z"/>
  <path d="M80.3,88.8l-.5-.2c-2.2.4-4.7.2-6.8.6-1.1.2-1.2,1.2-.3,1.8,1.7,1,6.4-.4,7.6-2.2Z"/>
  <path d="M51.8,85.2c.5-.5,3.2-2.5,3.2-2.9,0,0,0-.3-.2-.4-.7-.7-2.4.5-3.1,1-.9.6-4.2,3.2-2.9,4.5.9.9,2.3-1.6,2.9-2.2Z"/>
  <path d="M80.9,91.4c-1,.2-2,.3-3,.5-.7.2-2.1.2-2.1,1.2.3.5,4.4-.4,4.9-1,.2-.2.5-.5.1-.7Z"/>
  <path d="M46.8,42.2c1.6.1,3.2-.2,3.7-2-.8.1-1.4.6-2.2.6-.9,0-2.8-.7-3.5-.6-.2,0-.3,0-.4.2-.5,1.2,1.5,1.7,2.4,1.7Z"/>
  <path d="M51.4,33.3c-.8.6-1.1,1.2-2.2,1.4-.5,0-2.2-.3-2,.5.4,1.4,5.6.6,4.2-1.9Z"/>
</svg>