<?xml version="1.0" encoding="UTF-8"?>
<svg id="Layer_1" xmlns="http://www.w3.org/2000/svg" version="1.1" viewBox="0 0 100 100">
  <!-- Generator: Adobe Illustrator 29.7.1, SVG Export Plug-In . SVG Version: 2.1.1 Build 8)  -->
  <path d="M41.3,31c.1,0,.2,0,.3-.1.9-.8,2.2-4.6,2.9-4.9,3.2.2,6,.2,9-1,5.9-2.4,9.8-8.6,3.5-13.3-6.2-4.6-16.6.6-17.3,8.1-.2,1.8.2,3.4,1.5,4.8v.2s-3.4,3.1-3.4,3.1c.6.4,3,3.1,3.5,3.1ZM42.9,19.8c0-.3,1.5-1.9,1.9-2.3,1.4-1.3,3.7-2.2,5.6-2.4,1.7-.2,5.8,0,4.2,2.6-1.4,2.2-6.5,4.7-9.1,4.6-1.4,0-3-.9-2.6-2.6Z"/>
  <path d="M39.7,43c-.8,1.1.2,1,.2,1.6,0,.4-.5.8-.3,1.4.1.4.8.5.8.8,0,.3-.6.8-.2,1.6.3.6,1.1.9,1.4.3.2-.5.4-2.2.6-2.8,1-3.6,2.8-4.8,6.5-5,3.2-.2,5.7.7,6,4.2,0,1-.4,3.3.8,3.4.5,0,.6-.5,1.3,0,.3.2.7.8.4,1.1l-.7.2c-.1,1.6,3.1,1.3,3.7.4.3-.3,0-.6.2-.8.6-1.2,1.9-2.1,2.2-3.3.3-1.2-.2-1.2-.4-1.9-.1-.6.1-1.1-.3-1.8-.5-.7-1-.5-1.8-.5,0-.9.2-1.9-.2-2.7,0,0-1-1.3-1-1.3-.4-.3-1-.3-1.2-.5-.3-.3,0-1.1-.4-1.5-.5-.6-1.6,0-2.2-.4-.2-.1-.2-.7-.4-.9-.7-.7-1.8.5-2.1.4-.2,0-.3-.5-.6-.6-.3-.1-1.9-.6-2.1-.7-.6,0-1,.4-1.5.5-1.2.3-1.3,0-2.5.8-.5.4-1.5,1.5-1.7,1.7-.3.2-.9-.3-1.8.4-.2.1-.2.4-.4.5-.7.5-1.9.8-1.9,1.8,0,.6.4.9.5,1.5,0,.2-.3,1.7-.3,1.9,0,.1-.4.2-.5.4Z"/>
  <path d="M53.9,70.7c0-.7-.4-1.3-.7-1.9,1.2,0,1-1.8.3-2.3-.7-.4-1.5-.3-1.7.5l-1.8-.7.6-.7c-1.9-.3-1.9,1.9-2.1,3.2-.8-.8-1.4-1.7-1.8-2.7v-.2c.2.1,1.2-.8,1-.9-1.1,0-2.2-.9-3.1-1.5-3.8-2.7-6.7-6.7-8.9-10.8-.3-.6.8-.9.7-1.4-.4-.6-.8,0-1.1.2-.1,0-.3-.1-.3-.1,0,0,0,1-.5.9-1.9-2.7-3.3-6-4.3-9.2-.4-1.2-.6-2.5-1-3.8,0-.2,0-.5-.3-.5.7,5,2.4,9.8,5,14.1-1.3,1.8-2.4,3.7-3.3,5.8-.3,0-.1-.3,0-.4.3-1.1,1-2.2,1.4-3.2-.3,0-.4.1-.5.3-1.3,1.5-3,7-2.7,8.9,0,.1.2,1,.4.7,0-.3,0-.6,0-.9,0-.2,0-.7.3-.7v.7s.4-.3.4-.3c3,3.9,5.6,8.3,7.2,12.9,1,2.8.5,3.4.6,6.1,0,1.1.4,2.6.4,3.5,0,1.1-.8,3.5-1,4.9,0,.5-.6,4.7.8,3.5.3-.2.6-2,.7-2.4,0-.9,0-1.8,0-2.7l1.4,4.4c.3.4.8.6,1.2.2.4-.6-1-5-1.2-6.1-.9-4.1-1.1-7.7-2.4-11.6-1.3-4.2-2.7-7.6-5.2-11.2-.3-.5-2.2-2.6-2.2-2.8-.2-1,1.9-5.2,2.5-6.2.2-.4,1.7-2.6,1.9-2.6l.4.4.4-.2c-.3-.3-.5-1.1.1-1.1,1.1,3.3,3.6,6.8,6.1,9.2.4.3,2.6,2,2.6,2.1,0,.2-.4.5-.5.5-.1,0-.6-1.1-1.3-.7,0,0,.2-1.1-.2-.9-.8,1.1-.2,3,.3,4.2.5,1.1,1,1.7,1.7,2.6.2.3.1.8.7.6.4-.2.7-2.5.8-3.1,1.1,1.3,2.4,3.7,4.4,3.1,0-.5-.6-.5-.6-1.1,0-.3.2-2,.3-2.2,0-.2,0-.2.2-.2,1.3,1.1,2.3,2.7,3.5,3.7.2.1.2.4.5.3ZM45.8,65.4c-.3.3-.8.5-1.1,1l-.8,1.7-1.1-2.1c.8,0,1.9-.5,1.8-1.5l1.3.6c0,.2,0,.2,0,.3ZM52.9,68.2h-.3s-.1-.6-.1-.6h.2c.2.2.3.3.2.6Z"/>
  <path d="M69.1,47.7c.4-.3.6-.8.8-1.3.6-1.8,1.1-5.9.8-7.7,0-.2,0-.4-.3-.2l-2.5,8.6c-.4,0-.9-.4-1.2,0,3.2,1.9,6.4,4,8.4,7.3l-.9,1.5c-.8-3.9-4-6.8-8-7.4v-.6c-.8,1.6-1.2,3.4-2,5-1.5,2.8-5.5,7.9-7.9,9.8-1.2,1-2.5,1.4-3.7,2.2-1.2.9.6.4.8.6.1,1,.6,1.5,1.6,1.3v2.7c.4,0,.6-.6.8-.9.4-.8,1-2.8.6-3.6-.2-.4-.6-.3-.8-.6,2.8-1.5,5.4-4.3,7.2-6.9,1.8-2.6,2.8-5.3,3.4-8.3,3.7,1.2,6.6,3.7,7.7,7.6-2.4,4.9-4.8,9.8-6.1,15.1-.6,2.2-1.1,4.4-.9,6.7l.9-1.5c0,3.7.3,7.4.8,11,.2,1.3.4,2.6.7,3.9,0,.2,0,.3.3.2,0,0,.3-2.4.3-2.7,0-4.9-1.2-10.1-.9-15.1.3-4.4,2.2-9.3,3.9-13.4.9-2.2,2-4.4,2.9-6.6-.4-.3-.4-.7-.6-1.1-1.4-2.4-3.7-4.1-6.1-5.6Z"/>
  <path d="M28.1,25.9c0-.2-.5-.4-.6-.5-.9-.4-1.9-.6-2.9-.6-.7-.5-1.1-8.4-1.1-9.6,0-.8.1-4.8.6-5.1,8.4-2.7,17.3-3.6,26.1-3.5,7,0,14,.7,21,.9.4,0,1,.4,1.3-.1-1.3-.5-2.6-.8-3.9-1-7.9-1.3-17.1-1.4-25.1-.8-6.5.5-13,1.7-19.3,3.5v-.4c-.2.3-.3.5-.5.7-.2.1-4.2,1.5-3.5,2.2.5.2,3-1.3,3.1-1.2-1,4-1,8.6-.3,12.6.2.8.7,1.6.3,2.3.1.3,1.2.4,1.6.4,1,.1,2.2,0,3.2.1Z"/>
  <path d="M78.2,34c-12.2-2.2-24.4-2.8-36.8-1.5-4.5.5-9,1.3-13.4,2.2-.7,0-1.5-3.2-1.7-3.8,0-.4,2.5-1.5,2.5-2.3-.9,0-3.8,1.1-4,2-.2.7.5.8,1,.5,0,1.6.7,3,1.4,4.3,2.1-.1,4-.7,6.1-1,14-2.1,28.5-1.6,42.5.1h2.9c0-.4-.4-.4-.5-.4Z"/>
  <path d="M62.9,80.8c0-.3.2-.7.2-1,0-2.6,0-5.8-2.7-7v-.3c-.3-.6-3.1,1.1-3.8,1.3-.1,0-.7-1.6-1.3-1.5-.2.7.3,1.1.4,1.8-.4,0-3.1.5-2.2,1.2.7.5,3.1-.6,2.5.7-.5,1.1-1.3.1-1.8.8.7,1.6,2.6.7,2.9-.8,0-.4-.2-.9,0-1.2,0,0,1.5-1.1,1.4-.5.1,1.6,2.1,2.2,2.4.4l.8,2.1c-1.3-1.3-2.7,1.1-1.7,1.5.9.3,0-1.2.7-1.3.3,0,.7.2.7.5h.4s.1.2.1.2c.1.7,0,1.6,0,2.3-1.1-1.1-2.6.2-2.1,1.5,0,.2-.2.2-.4.2-.4,0-2.5.2-2.7,0,0,0,0-.5-.3-.8-1.1-.9-2.9,1-2,1.7,1.3.9,6.1.4,7.5-.5.4-.2.7-.7,1-.9,0-.3-.3-.1-.3-.4ZM60.3,74.6l-.7-1.2.7-.5.7,1.6h-.7ZM55.7,81.9c-.1-.4.6-.6.9-.4,0,0,.1.3.2.4h-1ZM62.2,81.3c0,0-.8.2-.9,0v-.4c0-1.1,1.2.1.9.5Z"/>
  <path d="M41.8,49.6c-.5,6.5.8,13.6,9.1,12.3,1.2-.2,2.8-.5,3.2-1.9-.5,0-.6.5-1,.7-2.5,1.1-6.7,0-8.5-2.1-2.1-2.5-1.1-6-2-8.9,1.7.6,2.9-.2,2.7-2.1-.9,1.5-1.7,1.5-3,.4-.2,0-.3,1.3-.4,1.6Z"/>
  <path d="M45.6,49.5c-.7.4-1,2.4-.7,3.1.5,1.1,1.5.9,2.4,1,.3,0,.2,0,.2.3-.4,0-.7.1-1,.4-.5-1-1,0-1,0-.2,0-.4-.2-.7-.1-.3,0-.6.7-.5,1.1l.4.2c.4-1,.9,0,1.4-.9l.3.4-.7.2v.4s1.5.2,1.5.2c.1.4.9,1,1,1.3,0,.1-.6.8.1.9.6,0,3-1.4,3.5-1.8.5-.4,1.3-1.1,1.2-1.7-.9.7-2.3,2-3.5,2.3-.6.1-1.1-.7-1.5-1.1,1,0,3.9-.6,4.5-1.3.2-.2.1-.4.2-.6,0-.2.7-.2,0-.8-.7-.5-1.1,0-1.6.1-.4,0-1.3,0-1.7.1-.4.1-1,.7-1.4.3l.9-1c-.9,0-2.7,0-2.8-1.1,0-.5.5-2.4-.4-1.9ZM46.7,55h0c.3-.2.6-.4.7,0h-.7ZM48,54.5c1.3-.5,2.1-.2,3.2-.3.4,0,.7-.4,1.1-.4-1.2.9-3.2,1.1-4.7,1.2,0-.2.2-.3.4-.4Z"/>
  <path d="M79.6,26.9c-.2-.9-1-4.2-1.6-4.6-.6-.4-1.2,0-1.1.7,0,1.1,1.1,3.5,1.4,4.8.6,2.4.8,4.6,1.1,7,0,.2,0,.5.3.2.5-2.8.5-5.4,0-8.2Z"/>
  <path d="M25.7,46.7c-.9-2.9-1.3-5.9-1.9-8.8-.3,0-.2.3-.3.5-.6,2.1.5,7.8,1.7,9.7.3.5,1.4,1.5,1.2.4,0-.3-.6-1.3-.7-1.8Z"/>
  <path d="M74,14.9c0,1.8,0,3.6-.4,5.4,1.4-1.8,1.5-5.1,1.3-7.3-.2-1.9-1-3.8-1.2-5.7-.8-.2-.6,1.1-.6,1.7.1,2,.8,3.9.9,5.9Z"/>
  <path d="M51.1,84.7c0,.4-.6,2.3-1.2,1.9-.3-.7-.1-1.4,0-2.1-.8-.3-1,.5-1.2,1.1-1,3.3,2.9,3.4,3,.6,0-.2-.1-1.9-.6-1.6Z"/>
  <path d="M49.7,81.5c1.5,0,1.4-2.7,0-2.8l.3,1.5c-1.1,0-.3-2.8-1.3-2.3-.8.4-.6,3.6,1.1,3.6Z"/>
  <path d="M24.8,29.5c.2,0,.4,0,.6,0,.2,0,2-1,2.1-1.1.2-.1.3-.4.5-.5.1-.3-.3-.2-.5-.4,0,0,0-.2,0-.3-.4-.4-3.4,0-3.5.8.1.6,1.8-.2,2.2-.2-.5.7-1.7.7-1.5,1.8Z"/>
  <path d="M49.9,91.4c-.1.5.3.3.6.3,0,.4.1.9-.2,1.2-.3,0-.3-1.5-1-.9-.7.6,0,2.2,1,2.2,1.5,0,1.8-3.9-.4-2.8Z"/>
  <path d="M69.1,25.9c-.2.4,0,.9.4.9.8.1,2.8-1.3,3.4-1.8.1-.1.3-.1.2-.4-.4-.6-3.6.7-4,1.3Z"/>
  <path d="M52.3,46.4c.6,0,.6-.5.3-.9-.5-.6-3-1.6-3.6-1-.2.3-.1.6.2.8.1,0,2.9,1,3.1,1Z"/>
  <path d="M48.7,74.5c-1,.5-.5,2.4.7,2.2,1.2-.2.9-2.3.2-2.9-.2-.2-.6-.2-.8-.2,0,.4.3.2.5.8.1.4.1.8,0,1.2-.6,0-.3-.8-.7-1Z"/>
  <path d="M68,23.5c.2.7,1.5-.7,1.8-.8.5-.3,1.2-.6,1.7-.8.2,0,1.3-.2,1-.5-1.6-.5-4.1.5-4.6,2.1Z"/>
  <path d="M56.9,79.9c.8-.1,1.8.8,1.9-.5,0-.6-.5-1.6-1.2-1.5-.8.1-1.4,1.4-.7,2ZM57.7,78.7l.2,1c-.7.1-.7-.8-.2-1Z"/>
  <path d="M44.6,45.5c0-.4-.8-.5-1.1-.5-1,.2-1.9,1.8-.9,2.1.6.2,1.3-1.3,1.9-1.6Z"/>
  <path d="M48.7,47.3c-.4,0-.4.4-.3.7.3,1.1,2.9,1.6,3,.1-1.1,0-2,0-2.7-.9Z"/>
  <path d="M73.8,28.4c-.4,1-.4,2.7-.7,3.8.6-.6,1.5-3,1.4-3.8,0-.6-.5-.6-.7,0Z"/>
  <path d="M71.6,22.7c-.5,0-2.5,1.4-2.5,1.8,0,.2.4.3.6.2.2,0,1.5-1.1,1.9-1.3.1,0,1.5-.5.7-.7-.3,0-.6,0-.8,0Z"/>
</svg>