<?xml version="1.0" encoding="UTF-8"?>
<svg id="Camada_1" xmlns="http://www.w3.org/2000/svg" version="1.1" viewBox="0 0 500 500">
  <!-- Generator: Adobe Illustrator 29.8.2, SVG Export Plug-In . SVG Version: 2.1.1 Build 3)  -->
  <path d="M403.39,291.56c-1.29-2.97-5.51-11.63-7.4-13.72-2.08-2.3-3.49-.22-3.29,2.34.54,6.94,7.32,20.43,9.3,28.42,10.33,41.84-15.77,83.24-43.69,111.97l-11.38,8.87c9.68-9.4,19.23-16.89,26.59-28.49,14.88-23.45,27.56-75.5,18.02-101.79-1.96-5.41-5.61-9.96-8.25-14.98,7.11-7.97,12.11-16.98,15.53-27.11-.53-1-1.86-.14-2.53.31-2.93,1.98-6.77,8.95-9.92,11.4-1.17-.59.33-2.02.36-2.48.3-4.28,0-9.14,0-13.51,0-15.87-12.68-27.89-19.92-39.79-3.98-6.54-6.23-12.96-11.06-19.51-10.83-14.68-36.9-37.13-55.46-39.07-4.11-.43-15.43-1.65-15.19,4.17l12.08,1.07c-8.94,12.33-18.77,23.44-35.72,20.8-3.42-.53-12.45-7.05-13.91-2.17-1.56,5.25,10.63,10.61,14.77,11.26,12.78,2.01,23.15-2.37,31.29-12.14,3.64-4.37,8.36-11.65,6.42-17.39,7.21.27,12.97,4.85,19.18,7.83.55,2.09-1.32,1.11-2.51,2.07-4.74,3.84-1.13,18.91,5.76,19.93,5.7.84,7.93-4.26,11.67-7.45-.88-4.01-5.72,1.26-8.55.07-1.22-.85-2.88-9.32-1.75-11.07,20.5,14.82,36.69,36.35,41.36,61.71,4.62,25.15-5.83,49.32-25.03,65.51-7.07,5.96-11.18,5.8-18.14,9.58-1.93,1.05-2.95,2.6-4.93,3.6-3.83,1.93-9.37,2.62-13.51,3.9.64-5.87-8.5-38.07-13.17-39.09-1.18-.11-1.57.77-1.76,1.78-.93,5.03,2.33,11.66,3.38,16.51.16.72.72,2.49-.54,2.32-1.82-7.37-4.15-15.46-8.52-21.68,7.65-3.3,33.59-22.86,33.92-30.68.16-3.91-3.28-3.47-5.86-1.66-5.32,3.75-11.38,12.08-16.69,16.71-2.27,1.98-10.45,8.55-12.79,9.3-3.66,1.17-8.15-9.64-11.72-8.96-3.54.67,3.35,10.46,4.59,11.73-1.95,2.25-5.35.28-7.8,1.42l4.09,3.02,5.85,1.6c-11.37,2.29-20.71,9.86-29.14,17.41-4.64.28-16.47-.67-18.84,4.66-2.82,6.35,9.07,3.77,9.61,4.24-.6,2.79-3.93,4.56-4.08,7.58-.09,1.85,1.49,3.8,3.4,2.79,8.04-6.89,15.09-14.78,23.09-21.73,4.42-3.84,10.57-9.24,15.32-12.4.79-.53,1.44-1.53,2.41-.41,1.3,1.51,2.94,6.24,3.75,8.35,5.83,15.09,8.33,31.17,13.69,46.38,1.87.16,1.17.08,1.39-1.08.9-4.87.5-9.12-.17-14.01-.79-5.79-3.03-11.83-3.9-17.43-.12-.76-.76-2.47.53-2.3,2.72,11.22,4.75,22.59,5.7,34.12,1.62.29,1.13-.09,1.59-.91,1.92-3.47,2.19-8.09,3.03-11.89l16.63,18.94c-13.61,18.97-28.77,39.06-47.22,53.54-1.84,1.44-13.32,10.32-14.53,9.27l-11.02-30.59,7.21-8.45,13.04,4.92c.19.99.14.91-.46,1.47-2.55,2.42-12.82,9.2-13.62,11.82-1.35,4.45,1.79,5.85,5.74,5.02,6.5-1.37,19.71-14.7,23.95-20.12,4.74-6.06,9.53-13.43,11.39-20.95l-13.76,10.61-10.4-8.86c-.49-2.02,6.81-4.66,6.39-7.44-.85-.83-8.04,4.83-10.83,4.14-.54-.13-8.94-5.41-9.07-5.94l3.55-4.96c.5-1.61-6.88,2.94-7.55,3-3.43.34-14.66-4.85-5.27,4.82-2.35,1.61-5.19,9.44-8.54,7.15-3.12-2.14-12.23-48.15-13.35-54.9-.96-5.78-1.34-18.69-3.15-23.15-.45-1.1-1.05-1.84-2.3-2-2.35,0-1.88,3.78-1.81,5.39,1,20.39,6.87,48.88,12.31,68.72,5.42,19.75,13.16,44.4,25.74,60.27.69.87,1.53.74.35,1.77-2.84,2.47-14-.38-17.91-1.27-44.81-10.26-84.99-32.44-124.91-54.2l-2.17.74,20.61,15.65c-13.85,2.77-15.85,26.28-14.91,37.66,1.84,22.25,23.19,48.11,46.18,50.13-19.39,18.54-18.7,49.55,15.19,46.11,1.94-.2,11.34-2.26,12.54-3.1,1.14-.79.4-1.31-.53-1.64-3.46-1.21-9.04-1.05-13.02-1.91-11.43-2.47-18.29-6.16-17.02-19.21,1.98-20.27,27.67-24.2,42.4-31.51,10.98-5.45,32.78-17.99,41.37-26.15,2.68-2.54,4.29-7.73,8.57-6.65-.14,2.27.57,3.82,2.71,4.76,4.09,1.79,12.46,2.27,17.59,3.73,10,2.85,32.91,15.02,40.83,21.72,2.6,2.2,3.34,5.51,7.84,5.66-23.79,12.37-50.39,23.24-76.62,29.28-15.75,3.63-35.82,4.81-50.45,10.7-1.07.43-1.92-.42-1.56,1.6,43.09-1.98,83.94-7.32,122.25-28.06,54.89-29.72,115.81-101.44,87.02-167.4ZM379.61,275.9c.04-2.81-3.71-6.85-1.09-9.25,5.04-4.6,4.7,8.01,1.09,9.25ZM383.15,263.1c-1.28-.39-1.44-2.07-2.55-2.77-4.51-2.87-9.85,1.76-10.23,1.35,2.41-12.45,1.73-25.28-.71-37.67,9.49,10.46,13.51,25.11,13.49,39.1ZM366.46,272.35c.98,3.74,4.04,7.62,8.17,7.82.19.99.14.91-.46,1.47-7.32,6.95-16.19,13.13-25.84,16.28,7.87-7.5,13.27-15.92,18.13-25.58ZM278.67,360.14l-7.45,6.74c-3.13-3.03-6.77-6.51-11.02-7.82l6.03-6.39,12.43,7.47ZM252.41,344.14l9.22,4.99-6.14,6.27c-1.54-.39-6.28-2.45-6.55-3.89l3.47-7.37ZM245.22,366.61c-.58-1.28-3.08-7.84-.98-8.25l6.01,3.2c-2.04.66-3.07,5.58-3.55,6.04-1.2,1.15-1.19-.36-1.48-.99ZM133,407.41c-2.48-8.51-3.02-17.64-1.08-26.3,1.07-4.79,3.81-8.15,3.92-12.79l4.97,2.14c-9.67,7.42-6.75,21.63-2.95,31.52l-4.85,5.43ZM231.29,420.07c-19,11.17-38.73,20.51-59.56,27.81-3.17,0-16.64-10.44-19.55-13.09-2.63-2.39-14.91-15.82-14.91-18.49,0-4.6,15.73-12.91,20.05-14.06,14.52-3.88,32.44,3.09,47.19,5.09l39.35,3.65-12.57,9.1Z"/>
  <path d="M144.36,184.2c.42-1.93-.58-1.21-1.41-1.76-11.1-7.27-13.36-19.34-8.67-31.42,3.56-9.16,12.39-15.3,14.69-25.1,3.28,6.57-1.45,14.75-2.86,21.3-2.7,12.49,2.29,27.64,17.07,27.8,6.96.08,15.39-4.37,21.86-2.72,4.89,1.24,10.34,15.52,20.14,16.82,6.99.92,16.03-3.22,20.9-8.11,1.67-1.67,12.74-15.95,13.19-17.39,1.16-3.71-1.45-4.53-1.85-7.82-34.62,8.53-65-23.08-63.13-56.8,13.84-2.81,23.29-14.25,32.25-24.26l9.58,10.31,7.82,5.68c-1.84.42-3.22-1.01-4.98.71-3.89,3.79,5.35,2.69,6.76,4.61l.98-1.66-1.34-2.59c12.29,6.07,26.89,8.35,40.53,5.34,6.1-1.34,6.43-2.16,13.1-2.48,3.87-.18,6.99-2.13,10.7,1.38,5.13,4.85-3.97,10.48-7.89,9.78-.65-.12-1.46-4.6-5.27-.17-11.03,12.82-6.04,36.57,9.69,43.63,4.31,1.93,6.06.85,9.78,1.59,7.86,1.55,13.48,4.34,21.94,2.6,7.53-1.55,16.43-8.61,18.33-16.14,2.6-.63,4.4,1.67,6.75,2.05,8.94,1.45,25.3-9.71,26.55-18.85.79-5.76-.38-13.84-4.19-18.43-2.33-2.82-6.52-4.15-9.19-6.49,3.85-9.49,10.4-14.62,5.27-25.83-4.93-10.77-16.03-9.39-24.88-14.21-2.13-10.11.96-20.11-6.05-28.78-8.37-10.36-23.73-9.48-35.9-8.93-2.62.12-6.88,1.72-9.04,1.34-3.06-.54-13.8-9.78-18.02-11.89C254.44.7,233.1-1.39,218.73.89c-22.85,3.63-34.38,23.24-48.76,38.66-8.45,9.06-16.93,15.76-25.94,23.81-10.26,9.16-16.17,27.54-7.64,39.6,3.83,5.42,8.07,5.7,8.68,13.35,1.58,19.91-18.04,24.63-20.41,42.11-1.59,11.72,6.17,27.13,19.71,25.76ZM280.2,131.15c-2.3-4.95-2.48-9.82-2.21-15.19l3.65,12.33,9.13,13.96c-1.66,1.63-9.76-9.37-10.57-11.1ZM361.11,106.01c4.6,8.62,4.84,14.86-3.19,21.32-.34-2.32,2.49-6.95,2.49-8.88,0-3.79,0-7.58,0-11.37,0-.71-1.83-1.5.7-1.06ZM329.85,34.21l-6.05-6.38-6.73-4.28c6.45.08,11.4,4.44,12.78,10.66ZM260.56,88.94c-14.99.8-33.38-5.22-45.06-14.63-1.34-1.08-6.23-5.05-4.32-6.69.64-.55,12.76,7.48,14.66,8.43,12.8,6.39,27.18,10.31,41.47,11.48l-6.76,1.41ZM260.69,9.2c7.61,3.44,13.54,9.65,21.55,12.22l-.36,1.42c-11.59-.79-21.5-7.07-32.5-10.15-8.81-2.46-17.91-4.04-27.1-3.28l-19.63,4.53c16.56-12.81,39.37-13.19,58.04-4.75ZM177.96,80.25c6.01-2.5,6.91-3.57,11.29-7.9.94-.93.93-1.54,2.73-1.17.34,2.78-1.52,5.13-3.19,7.11-2.76,3.29-17.29,14.1-20.66,8.53-1.29-5.15,6.39-5.13,9.83-6.56ZM152.89,66.2c-1.37,3.68-3.92,7-5.31,10.68-3.01,7.97-4,16.6-1.8,24.87-10.86-10.89-5.32-28.65,7.11-35.54Z"/>
  <path d="M136.41,316.99c-4.34,2.27-12.48,2.39-11.22,9,.5,2.63,5.22,4.13,7.62,4.52,3.91.64,6.81-6.68,9.88-8.34,8.7,5.92,26.03,5.08,32.12-4.1,5.77-8.7,2.51-19.5-7.21-23.12-13.04-4.85-29.85,8.78-31.19,22.02ZM150.93,316.96c-.51-.44-1.69-4.22-1.49-5.02.9-3.54,12.69-11.45,16.29-5.88,5.37,8.31-10.94,14.23-14.8,10.9Z"/>
  <path d="M97.56,279.71c-2.11-16.54-2.74-33.33-2.95-50.01-1.12-.21-1.55.23-1.97,1.22-.78,1.84-1.82,8.26-2.18,10.62-3.85,24.98,1.47,74.37,12.78,97.17,1.64,3.3,3.83,8.06,8,8.25,2.48-.7-1-7.85-1.51-9.77-4.97-18.86-9.71-38.08-12.18-57.48Z"/>
  <path d="M113.06,227.24c5.27,3.08,14.94,5.32,21.12,8.02,21.8,9.51,48.97,24.21,69.65,36.26,4.08,2.38,7.92,5,11.6,7.94-2.72-9.95-14.81-16.69-23.23-21.9-15.46-9.58-62-36.31-78.79-34.29-3.64.44-3.17,2.33-.35,3.98Z"/>
  <path d="M229.99,194.15c-1.13-.17-1.47.84-1.91,1.63-9.11,16.15-16.26,34.48-26.29,50.48-1.98,3.15-4.67,8.32-8.39,9.03-.01,2.46,2.45,3.21,4.58,2.84,4.9-.85,14.1-18.31,17.09-22.75,2.21,6.62,9.53,3.78,13.16-.34,5.04-5.72,4.04-10.81-1.09-16-2.47,5.4-2.4,10.79-9.59,12.07,3.65-8.44,9.42-17.9,12.11-26.62.5-1.61,2.88-9.82.32-10.33Z"/>
  <path d="M257.37,255.99c-2.79-9.62-13.07-6.41-17.65.48-3.51,5.27-5.45,18.86,3.09,19.47,10.05.72,4.46-10.62,7.17-16.31,1.62-3.4,3.73-3.96,7.38-3.64Z"/>
  <path d="M280.12,222.59c1.83,15.9,18,3.97,16.9-7.26-1.52-15.47-24.99-6.73-22.47,1.76,1.31,4.4,4.49-.58,6.48-1.77,7.26-4.34,11.57-1.13,7.29,6.58-2.72,4.91-4.52,4.27-8.2.68Z"/>
  <path d="M327.52,265.39c-4.24.98-7.86,8.11-7.64,12.26.18,3.38,5.55,11.77,8.9,11.81,10.22.12,13.55-27.49-1.26-24.07ZM327.73,285.14c2.07-3.02-.57-4.62-1.14-7.06-.68-2.93.26-7.65,3.6-8.57,2.94.66,2.81,15.49-2.46,15.63Z"/>
  <path d="M260.98,323.23c-.16.89-.63,7.66-.44,8.09,1,2.29,13.78,5.36,17.21,7.01,3.66,1.76,7.53,4.48,10.53,7.22,1.79-1.09.44-3.28-.23-4.74-3.77-8.31-14.89-13.21-23.58-13.74-.34-4.16.4-8.28,2.13-12.07-2.6-2-5.34,6.65-5.63,8.22Z"/>
  <path d="M348.74,227.62c2.52-3.16,0-3.86-.37-6.13-.52-3.16-.23-9.84-3.08-12.2-4.35-3.59-9.48,2.78-9.79,7.23-.26,3.76.43,5.39,2.29,8.44,2.34,3.83,7.39,7.12,10.95,2.66ZM344.06,211.92l1.42,7.82c-2.43-1.26-5.77-7.42-1.42-7.82Z"/>
  <path d="M230.73,266.67c4.65-7.89,11.35-26.76,9.27-35.6-.25-1.04-.55-2.1-1.46-2.79-2.3-.01-4.73,15.73-5.53,18.62-2.21,7.92-6.07,15.62-6.19,24.01,1.02,1.2,3.63-3.75,3.92-4.25Z"/>
  <path d="M253.21,317.59c-1.2,2.98-3.08,6.58.33,8.75,3,.5,7.92-16.45,9.51-19.15-4.89.41-8.18,6.25-9.85,10.41Z"/>
  <path d="M245.41,315.48c-1.71,2.23-5.94,8.89-4.28,11.5,4.95,2.6,5.85-6.15,7.59-9.61.59-1.17,6.2-9.08,5.81-9.47-1-1-8.22,6.43-9.11,7.58Z"/>
  <path d="M233.44,134.32c2.17-1.38,2.17-3.27,5.45-2.02.42-4.39-3.08-7.19-7.34-6.29-4,2.62,2.51,4.21,2.37,4.51-3.12,3.77-9.36,3.6-12.08,7.46,4.81.81,7.82-1.26,11.6-3.66Z"/>
  <path d="M207.63,118.46c-.89-5.2-5.83,2.45-4.85,6.93.97,4.4,9.44,4.93,10.52.52l-5.78-1.74c-1.02-1.15.44-3.73.11-5.72Z"/>
  <path d="M225.62,114.44c4.29-2.87.85-11.36-4.02-9.76-4.29,2.87-.85,11.36,4.02,9.76Z"/>
  <path d="M197.33,118.81c1.52-4.56-2.45-7.89-6.66-5.59-.92,4.66,2.09,9.41,6.66,5.59Z"/>
  <path d="M187.52,97.62c-4,.69-7.71,7.21-3.58,8.31,2.73.72,3.64-6.27,6.61-7.38-.92-1.32-1.61-1.17-3.03-.92Z"/>
</svg>