<?xml version="1.0" encoding="UTF-8"?>
<svg id="Layer_1" xmlns="http://www.w3.org/2000/svg" version="1.1" viewBox="0 0 100 100">
  <!-- Generator: Adobe Illustrator 29.7.1, SVG Export Plug-In . SVG Version: 2.1.1 Build 8)  -->
  <defs>
    <style>
      .st0 {
        fill: none;
      }
    </style>
  </defs>
  <path class="st0" d="M16.3,56.1c-1.6-1.5-2.7-3.5-3.5-5.5-1.6-4.1-.6-8,0-12.1,0-.2.1-.6-.1-.5-2.3,4.8-2.5,10.1.3,14.8.8,1.3,2,2.8,3.3,3.5v-.2Z"/>
  <path class="st0" d="M27.3,44.8h.2c0,.7,1.3.7,1.9,1,2.2.9,4.2,2.5,4.7,4.9,2.3-1.5,3.5-3.6,2.7-6.4-.2-.8-.7-1.4-1-2.1-.3-.6.2-.5.6-.3.8.5,1.2,1.9,1.3,2.8.2,1.7-.2,3-.9,4.5,2.8-.2,2-3.9,1.4-5.8-.4-1-.9-1.8-1.5-2.7-.3,0-.3.5-.6.7-.2,0-.3,0-.6,0,.9-1.4-.4-2.7-1.6-3.3-.3.9-.7,1.1-1.7.9,0-.4.7-.2.9-.3,0,0,.3-.8.3-1,0-1.2-1-3.1-2.4-3.1,0,1-.6,2-.4,3,.8-.3,1.6-.8,1.4-1.9,1.8.3.7,2.7-.8,2.6.6.7,1.4.8,2.2.9-1.2,1-2.5-.4-3.2-1.2-.1.3,0,.7-.2,1-.2.5-1.2,2-1.6,2.5-.3.4-3.1,3.6-2.9,3.8.8.4,1.2,0,1.6-.6h.2ZM32.2,43.3c.8-.3,2,.6,3,.4-.2,1.1-2.4.8-3,.4-.3-.2-.4-.7,0-.8Z"/>
  <path class="st0" d="M31.5,86.9h7.7c0-.6.2-1.2.3-1.9-4.1.9-8.4.3-12.2-1.2-2-.7-4.4-1.9-5.9-3.4-.2-.2-.2-.7-.4-.3-.3.4-.8,2.2-1,2.8-.3,1.2-.6,2.6-.8,4"/>
  <path class="st0" d="M30.3,47.3c1.3,2,2.5,4.2,2.1,6.7,0,.2-.2.5,0,.5,1.9-2.9.7-5.7-2.2-7.2h.1Z"/>
  <path class="st0" d="M34.6,35.8c.4.2.2.6,0,.9h-.7v.7c.5,0,1,0,1.4.3.7,0-.4-2.5-.6-2.9-.7-1.1-1.6-1.2-1.5.3,0,.9.8,1.5,1.3.6h0Z"/>
  <path class="st0" d="M60.7,48.5c.2.2,1-.6.8-1,0-.2-1.2.6-.8,1Z"/>
  <path d="M23.1,59.2c4,0,9.4-1.2,10.8-5.5.2-.6.3-1.9.5-2.3.2-.3,1.8-1,1.9-1.7,1.7,2,4,2,6.3,1.2,5.3-1.9,6.9-8,6.3-13.2-.9-7.2-9.9-14-17.1-11.5-.4.1-1.5.9-1.6.8-.1,0-.8-.5-1.1-.6-6.4-2.1-15.6,6.8-17.9,12.3-3.7,9,1.4,20.2,11.9,20.3v.2ZM32.5,54.5c-.3,0,0-.3,0-.5.4-2.5-.8-4.6-2.1-6.7,2.9,1.5,4,4.3,2.2,7.2h0ZM34.8,34.8c.2.3,1.3,2.8.6,2.9-.5-.4-.9-.4-1.4-.3v-.8h.6c.2-.3.4-.7,0-.9-.5.8-1.3.2-1.3-.6,0-1.5.9-1.4,1.5-.3ZM28.5,41.6c.4-.5,1.4-2,1.6-2.5.2-.3,0-.7.2-1,.8.9,2.1,2.2,3.2,1.2-.9,0-1.6-.2-2.2-.9,1.5,0,2.6-2.3.8-2.6.3,1-.5,1.5-1.4,1.9-.3-1,.5-2,.4-3,1.4,0,2.4,1.9,2.4,3.1s-.2,1-.3,1c-.2,0-.8-.2-.9.3,1,.2,1.4,0,1.7-.9,1.3.6,2.5,1.9,1.6,3.3h.6c.3-.2.3-.8.6-.7.6.9,1.1,1.7,1.5,2.7.6,1.9,1.4,5.5-1.4,5.8.7-1.5,1.1-2.8.9-4.5,0-.9-.6-2.3-1.3-2.8-.4-.3-.9-.4-.6.3.3.7.8,1.4,1,2.1.8,2.7-.3,4.9-2.7,6.4-.5-2.4-2.5-4-4.7-4.9-.6-.3-1.9-.3-1.9-1h-.2c-.5.6-.8,1-1.6.6-.2-.2,2.6-3.4,2.9-3.8h-.2ZM12.7,37.9c.3,0,.1.4.1.5-.6,4.2-1.6,8,0,12.1.8,2,1.9,4.1,3.5,5.5-1.3-.7-2.5-2.2-3.3-3.5-2.8-4.6-2.6-9.9-.3-14.8v.2Z"/>
  <path d="M20,82.9c.2-.6.7-2.4,1-2.8s.2.2.4.3c1.5,1.5,3.9,2.7,5.9,3.4,3.9,1.4,8.2,2.1,12.2,1.2,0,.6-.2,1.2-.3,1.9h0c1.9,0,3.4-1.5,3.4-3.4v-3.7c0-1,0-1.1-.2-2,0-.2,0,0-.2-.6l-.3-.9c-.2-.9-.3-1.8-.6-2.6-.2-.4-.5-1.2-1.1-1.1l.2,5.9-.7,5.5c-4.9.7-9.9,0-14.5-2.1-.7-.3-4.1-2.1-3.9-2.9,0-.5,1.2-3,1.5-3.5.4-.8,1.3-1.6,1.5-2.4.4-1-.9-.2-1.3.2-1.2,1-1.6,3.6-2.2,5.1l-.6-.3c.4,1.3-.3,2.5-.7,3.7-.5,1.7-.9,3.4-1.3,5.1h0c.5,0,.9-.4,1-.8.2-1.1.4-2.2.7-3.2h0Z"/>
  <path d="M62.6,47.9c3.1-2.6,7.1-3.6,10.7-5.2,0,0,1.3-.6,1.1-.8h-1.8c.6-.6,3.6-3.9,3.1-4.6h-.3c.6-2.1,1.1-4.5,1.2-6.8-.4.7-.7,1.7-1,2.5-.2.9-1,4-.9,4.7,0,0,.3,0,.3.2-.2.5-2,2.3-2.4,2.9-.5.6-.8,1.9-1.7,1.8.5-.5,1.4-1.2,1.3-2-.4.5-2.9,1.9-3,2.3,0,.2,0,.4,0,.5,0,0-1,.3-1.3.4-.8.4-1.6.7-2.3,1.1-.7.4-3.1,2.2-3.5,2.2s-.5,0-.6-.2l1.1-1h-.2c-5.4,3.9-11.6,5.7-18,7.4-2.4.7-4.8,1.1-7.1,1.8-2.8.8-6.5,2-7,5.4.4,0,.3,0,.4-.3,3.4-4.9,7.8-4.6,13.1-5.8,5.5-1.2,11.1-2.8,15.6-6.1.6.8,2.8,5.1,2.3,5.8-3,2.1-6.1,4-9,6.2-2.2,1.6-9.7,7.2-10.3,9.6,0,.2,0,.4.2.4,3.8-5.1,9.7-8.1,14.7-11.9.6-.5,4.2-3.6,4.5-3.6s.4.2.5.2c-.2-.9.7-1.2.9-1.9l-.8.4c0-1.7-1-3.1-1.5-4.7l.7-.4c.5,1.1.8,2.9,1.3,3.9,0,0,0,.4.3.2.6-.5-.2-2.8-.5-3.5,0-.4-.6-1-.5-1.3l.4.2ZM60.7,48.5c-.4-.4.7-1.2.8-1,.2.4-.6,1.2-.8,1Z"/>
  <path d="M55.2,41.5c.4,0,1.4.5,2,.7,3.4.8,6.8.4,9.7-1.4-1.5,0-3,.4-4.6.6-2.2.2-4.2,0-6.4-.5,1.5-3.2,2.8-6.9,2-10.5,2.9.4,5.7-.6,8.3-1.8,1,1.4,1.4,3.3,1.4,5s-.3,4.5-1,6.5c0,0,.3,0,.4,0,0,0,1-1.3,1.1-1.4,1.4-2.5,1.6-7.2,0-9.7-.5-.7-1.3-1.7-2.2-1.7v.8c-1.4.1-2.7.6-3.9.8-1,.2-3,.6-3.9.5-.5,0-1-.6-1.3-.3-.3.4.4,2.5.4,3.2,0,2.4-.9,6.7-2.4,8.5-.2.3-.4.7-.7.9.4,0,.7-.4,1.1-.3h0Z"/>
  <path d="M56.4,25.2c2.5,1.9,8.4,1.5,11.4,1,.3,0,.4.2.4-.3-3.1-.2-6.3.2-9.4-.7,1.4-2.8,1.9-6.2,1.3-9.2,0-.2.3,0,.4.1,1,.1,2.1.2,3.2.2s1.5-.2,1.9-.2c1.4-.2,2.6-.8,3.8-1.6.9,1.5,1.4,2.7,1.6,4.5.2,2.7-.6,4.7-1.3,7.2,3-2.8,3.1-9.4,0-12.2,0-.1-1.4-1.2-1.5-.6l.8,1.1c-3.3.9-6.9.8-10.2,0,0,1.4.4,2.7.4,4.1s-.3,4.4-.6,6.2c0,.1,0,.5-.3.5-.7-.1-1.4-.5-2.1-.6-.5,0-.2.5,0,.7l.2-.2Z"/>
  <path d="M87.2,30.3v1c-.2-.5-1.4-2.4-1.6-1,0,.5,1.1,2.3,1.3,3.1.4,1.3.7,4.1.6,5.4,0,.9-2.5,2.4-3.4,2.8-2.8,1.3-5.7,1.4-8.7.9-.4,0-1-.7-1.2,0,0,.9,1.9,1.4,2.6,1.5,4,.7,8.6-.9,10.9-4.2,0-.4.2-.8.3-1.1.2-1,0-2.1.2-3.1l.3,1.4c0,.7.4.2.6,0,.7-1.4.6-3.8,0-5.2-.3-.8-1-1.8-2-1.4h0Z"/>
  <path d="M76.9,19.8c0,1.1-.3,4-.8,5-.2.3-.4.2-.4.3-.4.5.4.8.8.9,1.8.6,7.7.9,9.3,0,.5-.3,1-.9,1.5-1.2-.5-.2-1.1.5-1.7.7-.5.2-1.4.3-2,.3-2.2,0-4.8-.5-7-.6,0-.5.5-.7.7-1.2,1-2.1,1-6.1.3-8.3l7.7-2.6c-2.7.3-5.2,1.1-7.7,2.1h-.6c-.6.2-1.4.9-2,1.1l1.7-.2c0,.1.3,3.2.3,3.7h-.1Z"/>
  <path d="M87.6,22.3c.2,1,.4,2,.3,2.9.4.1.3,0,.3-.3s.2-.9.3-.9c0-.1.8-.1,1.1-.7.4-.8.4-2.7.4-3.6s-.2-3.1-.9-3.3c-.5-.2-.9,0-1,.5-.2.7.5,3.7.5,4.7s0,.8-.2.8c-.3-2-.7-7.1-2.2-8.5q-.2-.2-.5-.2c-.2.2.6,2.5.7,3,.4,1.9.8,3.9,1.1,5.8v-.2Z"/>
  <path d="M68.1,28.2c.2.8,1.1,2.2,1.4,3.2.5,1.5.5,2.6.8,4,0,.3,0,.4.3.4.4-1.9.3-3.4-.3-5.2-.3-1-1-3-2.3-2.9v.6h0Z"/>
  <path d="M84.9,30.9c-.2-.3-.8-.5-1.2-.6-1.4-.5-4.8-.4-6.3,0-.2,0-.6.1-.6.4s1,.3,1.3.3c2.2,0,4.5-.7,6.8,0h0Z"/>
  <path d="M72.5,21.6c1.5-.5,1.3-4.4.5-5.1-.3-.3-1-.4-1,.1-.2,1.1,1.1,3.6.5,5Z"/>
  <path d="M79.3,23.6c1.6,0,4.4-.8,5.7-1.7-1.7.1-3.9.3-5.5.7-.9.3-1.6.9-.2.9h0Z"/>
  <path d="M74,43.4c-.9-.5-5,1.6-5.8,2.4.2.3.3.3.6.2,1.6-.3,3.7-2.1,5.5-2.2,0,0-.2-.4-.3-.4Z"/>
  <path d="M65.1,32.7c-1.7.7-3.1-.6-4.9-.5-.7,0-2,.3-1.3,1.2.7-.2,1.3-.6,2-.5.9,0,1.6.8,2.7.8s1.4-.4,1.5-.9h0Z"/>
  <path d="M71.5,45.4c-.4,0-3,1.3-2.5,1.9.5,0,.9,0,1.3-.2.8-.2,2.5-1,3.2-1.4.2,0,.4,0,.4-.4-.6-.6-1.6-.2-2.3,0h0Z"/>
  <path d="M85.3,32.5c-.7-.2-1.3.2-2,.2-1.3,0-2.7,0-4,.4-.3,0-.8.2-.8.6.3.4,6.2-.4,6.8-1.3h0Z"/>
  <path d="M65.6,22.1c.4-.2,1.8-1,.7-1s-3.3.8-4.8.8v.5c1.2.4,2.9.2,4-.3h0Z"/>
  <path d="M79.7,35.8c1.5,0,3.8.8,5-.2-1.6.4-3.3-.6-4.9-.5-.2,0-2.6.4-2.1.9.7,0,1.4-.2,2.1,0h0Z"/>
  <path d="M59.4,37.8c.2.3.3.2.6.2.7,0,1.5-.5,2.2-.7.6,0,1.3,0,1.9,0,.2,0,.5,0,.6-.3-1.9-.7-3.6,0-5.2.9h0Z"/>
  <path d="M65.7,18.9c-1.2,0-2.9,0-4,.3-.3,0-.6.1-.6.5.3.5,3.1-.2,3.7-.4.3,0,.8-.2.9-.5h0Z"/>
  <path d="M68,18.4c.3-.4.3-1-.2-1-.2.8-1.2.2-1.9.4-.8.5,1.3,1.7,2.1.6Z"/>
  <path d="M80.2,20.7c.3,0,2.8-.9,3.1-1,.2-.1.4-.1.4-.5-1,.3-2.6.3-3.5.8-.6.3-.5.8,0,.7Z"/>
  <path d="M85,15.7c-.2,0-.2.4-.2.5v1.1s-1.3-1.2-1.6-.9c-.4.4,1.5,1.6,1.8,1.2v-2h0Z"/>
  <path d="M68.6,21.7l.5-1.6c-.3-.3-.7.9-.7,1l-1.2-.5c-.2.6.8,1.7,1.4,1.2h0Z"/>
  <path d="M32.2,44.1c.6.5,2.8.7,3-.4-.9,0-2.1-.7-3-.4-.4,0-.3.6,0,.8Z"/>
</svg>