<?xml version="1.0" encoding="UTF-8"?>
<svg id="Layer_1" xmlns="http://www.w3.org/2000/svg" version="1.1" viewBox="0 0 100 100">
  <!-- Generator: Adobe Illustrator 29.7.1, SVG Export Plug-In . SVG Version: 2.1.1 Build 8)  -->
  <path d="M88.1,57c-2.8-3.3-7.4-2.8-11.2-2.1-.9.2-2.9.9-3.6.6-1.3-1.2-2.7-2.3-4-3.5-5.5-5.2-9.6-11.5-14.2-17.4,2.7-.5,5.2-1.8,7.6-3.1.4-.3,1.4.9,1.6.7l-.8-1.2c.7-.5,1.4-1,2-1.7.1-.2.4-.2.3-.5l-2.8,1.5-1.1-1.3c1.5-1.1,3.1-2,4.1-3.6-.9,0-4.6,2.7-5,2.4-3-4.3-5.3-9-7.1-13.9-.6-1.7-1.2-4.8-2.1-6.1-2.8-4.2-9.4-7.2-14.3-7.5-11.9-.7-18.5,3.8-22.5,14.8-2.2,6.2-3.1,12.6-4,19.1.3.3.2,0,.3-.1,1.5-3.2,1.6-7.5,2.4-10.8.3,0,.2.4.2.5,0,.7,0,1.5-.2,2.1-.3,2.2-.7,5.2-1.3,7.3-.3,1.1-.7,2.2-1.1,3.2h-.2c-.4.3-1-.3-1.3.2,0,.4,2.7,1,3.2,1.1,1.8.4,3.7.8,5.5,1.1,1.4.2,2.8.3,4.2.6-.2.3-.4.2-.7.2-1.8.1-3.8.1-5.7.2-1.1,0-2.3-.2-3.3,0-.4.5,1.5.8,1.8.8,2.5.2,5-.4,7.5-.5-3.1,3.7-6,7.6-8.3,12-3,5.7-3.7,10.8-2.5,17.2.5,3,1.5,6.2,3.5,8.5-1.4,1.4-1.9,3.8-1.7,5.7.2,2.5,3.7,6.3,5.6,7.9,6.9,5.7,17.6,6.1,26,4.6-.6,2,.6,3.8,2.7,3.8,3.4.1,8.7-5.4,10.6-8l10-3.9c.7-.1-.3,1-.4,1.1-.4.9,1.2-.2,1.5-.5.5-.5.6-1.1,1-1.5.8-.7,3.5-1.4,4.6-2.1,1.2-.7,4.5-3.3,5-4.5.5-1.1,0-2.6,0-2.7.1-.2,1.6-1.2,1.9-1.5,4.6-4.2,11.4-13.3,6.2-19.3ZM53.6,31.9c1.1-.3,2.3-.5,3.5-.8,1.3-.4,2.6-1.1,3.8-1.7.2.2,1.5,1.1,1.3,1.3l-7.7,3-1.2-1.5c0-.3.1-.2.3-.3ZM50.3,12.9c-.2.5-.1.9-.2,1.4,0,.2,0,.6-.3.6-.1-.9-.8-1.6-1.2-2.3l1.7.3ZM19.3,10.6l-2.8,4.3C19,7,25.6,1.5,34.1,1.4l-2.3.7c-4.8,1.8-9.2,4.6-12.5,8.6ZM47.2,96.1v-.8s3.7-.9,3.7-.9c-.8,1.2-2.4,1.2-3.7,1.7ZM69,85.1c-.1,1.1-.6,1.1-1.5,1.3.9-2.1.7-4.3.3-6.5-.8-4-3-7.5-6.7-9.3-.1-.1.3-.6.4-.6.4,0,4.2,3.8,4.7,4.4,2.5,3,3.3,6.9,2.9,10.8ZM68.7,58.6c-1.2,1.4-2.8,5.4-4.3,5.9-1.1.3-4.1.3-5.3.2-1.7-.1-2.8-1.5-4.7-1.2l1.7-.9c1.3-.9,3.1-2,3.2-3.8-1.6,1.7-3.5,3.2-5.8,3.8l.2-.9c-2,2.9-5.3,3.8-8.6,4.5-2.2-2.8-4.3-5.6-6-8.8h-.5c-1.2.6.7,3.5,1.2,4.3,1.5,2.5,4,5.6,6.4,7.3,1.6,1.1,3.4,1.5,4.3,3.4,0,.1-.1,0-.2,0-5-1.6-9.1-6-11.8-10.3-1.9-3-2.6-4.6-2.9-8.2,0-.8-.5-.3-.6.1-1.3,2.6.7,7.7,2.1,10.1,2.7,4.8,8,9.6,13.9,8.9.6,1.3.8,1.4-.5,2.2-4.5,2.7-8.2,4.6-13.4,5.5-9.1,1.5-20.1,1-23.1-9.4-3.6-12.2,2.3-22.9,9.8-32.1,3.8-.4,7.2-1.8,10.3-4,2.7,1.2,5.6,1.6,8.5,1.2,0-.3-.3-.3-.5-.3-2.7-.7-4.8-1-7.2-2.6-5.7-3.8-6.4-12.6-5.8-18.8,4.7-3,10.3-4.2,15.8-3.2l2,2.4v-.9c0,0,1.2,1.9,1.2,1.9,2.2,4.6,1.9,9.8.6,14.6-.4,1.5-.8,2.8-1.7,4.1,1.1,0,2-1.3,2.4-2.2,0-.2.5-1.7.7-1.5l.3.5-.4.5v.2c0,0,1.4.7,1.4.7,3.4,4.5,6.7,9.2,10.4,13.5l-3,.4c-.5.2-1.7.4-1.9,1,0,.2.1.5,0,.6-.1.3-1,.4-.7,1.2.5-.2,1-.5,1.5-.7,1-.4,4.5-1.2,5.4-1,3.1,3.1,6.4,5.9,9.8,8.7-1.6.8-3,1.3-4.1,2.8ZM32.3,34.1l1.2.8c-.2.3-.6.4-.9.4,0-.5,0-.8-.3-1.2ZM70.8,85.2c0,0,.1-1.3.2-1.4.3-.7,3-1,3.5-.2l-3.7,1.6ZM71.2,79.5v-1c2-.8,7.1-3,7.5.5-2.5-1-5-.1-7.5.5ZM87.8,62.2c-.4-1.7-.8-3.4-2.1-4.7l-1.4-1.1c3.6.7,4.7,4.8,3.8,8l-.4-2.2Z"/>
  <path d="M59.6,55.3l-.8.2c0-.4-.2-1.2-.3-1.6-.1-.2-.3-.2-.4-.4-.4-.7-.4-1.3-1.2-1.9-.8-.5-2.5-.9-3.1,0,.8,0,2.2-.3,2.5.8-.4,0-.7-.3-1.2-.3-.7,0-1.8.4-2.2-.2-.5-.7.8-1.6.6-2.7-.1-.6-1-1.6-1.7-1.7.4.6,1.3,1.3,1,2.1-.4,1.1-1.6,1.3-.5,3.1-3.1,1.5-1.7-1.2-2.4-2.8-.1-.2-.4-.6-.6-.8-.3-.3-1.1-.8-1.5-1,.5.7,1.5,1.1,1.8,2,.4,1.3-1.2,3.2.8,3.5v.2c-1,1.2-1.4,2.3-1.4-.2-.2-.3-1,1-1,1.2-.3,1.4,2.1,2.2,3.2,2.4,2.3.5,4.8.3,6.4-1.6l.7-1.2c0,.5,0,1.4-.2,1.8-.3.4-2.8,1.2-2.1,1.7.8.6,3.7-1.5,3.7-2.6Z"/>
  <path d="M60.4,51.1c-.4-.4-.7-.8-1.4-.7-.3.3,1.4,2.3,1.7,2.7.4.7.7,1.4,1,2l2.4,7.8c0-1.7-.3-3.3-.7-4.9-.5-2.4-1.2-5.3-3-7Z"/>
  <path d="M48.3,61.9c-.8,1.6,3.1.7,3.8.4,1.1-.4,2.5-1.2,2.6-2.4-1.1.4-2.1.8-3.2,1.2-.6.2-3,.5-3.2.8Z"/>
  <path d="M39.2,19.5c-.4-1.7-2.9-.7-3.9-.2-.4.2-1.4,1-1.5,1.1-.5.2-1.1-.3-1.6,0,.4.6,1.1.7,1.8,1,1.6-1,3.3-2.1,5.3-1.8Z"/>
  <path d="M46.1,41.9c0-.4-2.7-.2-3.2-.2-.5,0-3.3-.4-3.5-.3,0,.5.4.8.8,1,1.6.7,4.3.5,5.8-.4Z"/>
  <path d="M43.5,44.6c-.5-.2-2.5-1.5-2.8-1.1-.6.8,2.3,2.1,2.9,2.3.9.3,1.8.6,2.5-.2-.8-.4-1.7-.6-2.6-1Z"/>
  <path d="M43.8,19.1c0-.9,1.6-1.8,2.4-1.8.6,0,1.6,1,1.8,0-.2,0-.5.2-.7.1,0,0,0-.3-.3-.4-1.3-.9-4.3.2-3.9,1.7,0,.3.4.5.7.4Z"/>
  <path d="M47,46.3c-1.7,0-.8,3.7.4,3.7.7,0-.7-3.2-.4-3.7Z"/>
  <path d="M51.7,59.6c.5-.3,1.1-.7,1-1.4-.7-.1-3.3,1-3.1,1.8.1.5,1.7-.2,2-.4Z"/>
  <path d="M39.2,29.1c-.2-.1-1-1.2-1.2-.4-.4,1.4,2.7,2.2,3.4,1-.8,0-1.5-.1-2.1-.5Z"/>
  <path d="M43.3,24c-.6.4-2.9-.4-2.9.4,0,1,3,.9,2.9-.4Z"/>
  <path d="M34.3,12.8c-1.1,0-2.4,1.5-2.7,2.4-.3.7,0,.9.5.3.7-.8,1.3-2,2.2-2.8Z"/>
  <path d="M56.3,59.6c0,.5,1.3-.3,1.4-.3.2-.1,2.7-1.7,2.3-2.1-.5.3-3.7,2-3.7,2.4Z"/>
  <path d="M42.5,56.9c.7-.9.6-2,1.5-2.8-1.2,0-2.2,1.8-1.5,2.8Z"/>
</svg>