<?xml version="1.0" encoding="UTF-8"?>
<svg id="Layer_1" xmlns="http://www.w3.org/2000/svg" version="1.1" viewBox="0 0 100 100">
  <!-- Generator: Adobe Illustrator 29.7.1, SVG Export Plug-In . SVG Version: 2.1.1 Build 8)  -->
  <path d="M18.6,50.2c-1.3.5-2.4,1.9-3,3-.2.4-1.1,2.1-1.1,2.4,0,.3.2.4.5.4,0,0,.4-.6.5-.8.9-1.5,2-2.9,2.9-4.4,0-.1.4-.5.3-.6Z"/>
  <path d="M58.1,68.8c.8-.4,1.4-1,2.2-1.4.2,2.1.3,4.3.5,6.4,0,.4,0,1,.2,1.3,0,.1,0,.2.2.1l.4-4.8c-.1-3.6.3-7.6-.7-11.1-.1-.5-.4-.9-.5-1.4,3-.9,5.9-2.2,8.8-3.2,5-1.7,10.1-3,15.3-4.2.2,1.6.8,3.1,1.1,4.6.9,4,1.5,8,2.1,12.1.6.9.4-.9.4-1.3.3-4.1.2-8.4-.7-12.4-.2-1.1-.6-2.3-1-3.4l3.4-.9c0-.1-.8-.3-1-.3-3.1-.2-6.1.5-9.1,1.1-7,1.6-14.1,3.7-20.5,7l.6,8.1-16.3,4.3c.2-2.5.9-4.9.9-7.5,0-2.3,0-4.9-.4-7.3-.3-1.9-.9-3.6-2.5-4.7,0-.2.4-.9.4-1.1v-1.7c-.2,0-.2,0-.3.2-.3.4-.4,1-.7,1.4-1.1,1.5-2.5,1.6-4.1.7-.4-.2-1.7-1.4-1.4-.2,0,.4.7,1.1,1,1.3.3.3,1.4.6,1.5.8.1.2.5,1.7.5,2,.6,3.7-.4,9.5-1.2,13.2-.2,1-.8,4.1-1.4,4.7,0,0-.2.1-.3.2l-7.1,2.1c2.3-3.4,2.7-7.9,3.2-11.9.2-1.5.6-3.7.6-5.1,0-.4-.3-2.4-.5-2.6-.2-.3-.4.6-.4.8-.5,1.7-.7,3.6-1,5.4-.8-.4-1.6-.8-2.4-1.2-2.4-1.1-9.9-4.6-12.2-4.1-.1,0-.6.2-.6.3,0,0,0,.2,0,.3.2.3,2,.7,2.5.8,2.8.9,7.1,2.1,9.6,3.4.1,0,.3,0,.3.2-3.2.1-5.3,2.5-6.5,5.2-.7,1.7-1.1,3.4-1,5.3,0,.9.7,3.3,1.9,3.2.3,0,.4-.3.6-.1,0,.7.4,1.2.4,1.8.3-.1.4,0,.5.2-2.2.7-4.5,1.2-6.7,2.1-.8.3-2.7,1-3.2,1.5-.1.1-.3.2-.2.4l46.4-13.9c.2,0,.1,0,.2.2,0,.2,0,1-.1,1.1-2.8.6-5.3,2-7.7,3.4-.3.1-.6-.3-1.1-.2-.4,0-.5.5-.3.8.3.4,1.6,1.4,2,1.9,1.3,1.4,2.5,3,4,4.2.1,0,.2.3.4.2-.6-2.5-2.7-4.4-4.3-6.3,1.6-.9,3.4-1.4,5-2.2ZM25.3,63.6c-1.1,1.3-3,5.3-3,7v1.8l-.4-1.6c-.3-3.6,1.4-8.4,4.8-10,.6-.3,1.6-.7,2.2-.6.4,0,1.2.4,1.5.7-.4,0-.5.3-.7.4-1.9.6-2.9.7-4.3,2.3Z"/>
  <path d="M21.5,28.6c-.7,2.4-.2,5.5,1.3,7.5,1,1.3,2,1.5,3.5.7.1-.2-.6-2.4-.6-2.8-.1-1.1-.1-2.8.8-3.5v2.3c0,.3.4,2.3,1,1.6.2-.2.1-.9,0-1.2,0-.5-.2-1.4-.2-1.9,0-.5-.2-.9-.4-1.3,1.1-.9,2.8-2.1,4.3-2.4,1-.2,2.7.5,3.9.6,2.1.1,5.3-.1,7.3-.6,4.5-1.1,11.6-4.9,9.7-10.6-.8-2.4-5.3-4.5-7.6-4.7-2.9-.3-6.8.9-9.2,2.4-3.1,2-6.4,5.8-5.4,9.8-3.2-1-7.4.5-8.4,4ZM32.4,19.2c1.4-2.2,3.4-4.2,5.8-5.1,2.3-.8,4.7-1.5,7.1-.7,0,.2-.2,0-.3,0-.5,0-1.1-.2-1.6-.2-4.7,0-9.4,4-11.6,7.8l-.8,2.1c0-1.5.6-2.7,1.4-4Z"/>
  <path d="M47.3,39.6c.4-2.3.3-7.1-.3-9.3-.2-.6-.7-1.9-1.4-1.8,0,1.3.5,2.5.7,3.7.4,2.3.6,6.2,0,8.4-.5,2.3-2.3,5.1-4.7,5.6-3.1.7-6.7-2-7.8-4.7-.2-.4-1.2-3-1.2-3.2,0-.3.2-1,.3-1.4,0-1-.1-1.7-.4-2.6-.4.2-.2.9-.2,1.3-.2,1.5-1.6,4-2.6,5.2-.4.5-2.2,1.9-2.3,2.3,0,.1,0,.2,0,.3.8.5,3.2-1.5,3.6-2.3l1.3-2.2v2.1c0,1.5,1.9,3.8,3.1,4.6,6,4.1,10.8.2,11.9-6.1Z"/>
  <path d="M40.2,94.5c-.6-.4-1.6-.9-2.3-1.3-1.4-.9-2.8-2-4.2-2.9l.5-.3c.8-1.5-1.5-2-1.5-.3l-2-1.4v-.2c.5,0,.6-.9.1-1.2-.8-.5-1.1.7-1.2.6l-1.2-.9c1.1-2.1,2.4-4.1,3.9-5.8.7-.8,1.8-1.6,2.5-2.5.1-.2.3-.3.3-.5-.1-.1-1.9,1.1-2.2,1.3-1.5,1.1-2.4,2-3.5,3.5-.7.9-1.9,2.5-2.4,3.5-.2.4-.3.9,0,1.2.1.1.3.1.5.3,1.1,1,2.2,2,3.4,2.8l5,3.2c-2.9-.8-5.3-2.8-7.7-4.4h-.6c-.3.2,1.1,1.8,1.3,2.1,1.5,1.5,4.3,3,6.5,2.9.3,0,.9-.2,1.2-.2.3,0,1.1.6,1.6.8.7.2,1.4.3,2.1.3,0-.2,0-.3-.2-.4Z"/>
  <path d="M47.9,42.1c-.3-.2-.3-.7-.7-.5-.4.2-.3.9.1,1.1l4.2,2.7c-.9.2-1.8.4-2.7.7-1.4.4-3.2.9-4.5,1.4-.4.2-1.4.6-.5,1,.8.3,2.2-.2,3-.4,2-.6,3.8-1.4,5.6-2.4,2.4.8,5,1.3,7.5.8,0,.1-.1.2-.1.4,0,.6,1.6,1.9,2.1,2.2.7-.4-.2-1.8-.6-2.2-.2-.2-.5-.3-.7-.5,1.8-.4,2.9-2.2,3.6-3.8.4-1,.8-1.9.6-3.1-.2-.2-.5.6-.6.6-1.2,2.1-1.1,4.9-4.3,5.2-3,.3-9.6-1.2-11.9-3.2Z"/>
  <path d="M60.3,77.5c-.5.9.7.5,1.2.3,2.9-.8,6.1-2.3,9-3.4,6.1-2.2,12.3-3.7,18.5-5.4l.3-.3c-5.3.9-10.5,1.7-15.6,3.3-4.6,1.4-9.1,3.3-13.4,5.4Z"/>
  <path d="M58.6,49s0-.2,0-.2c-2.2,1.5-4.1,3.3-5.8,5.4-.5.6-.9,1.4-1.4,2,0,.1-.1.2-.3.2,0-.4-.6-3.2-.8-3.2-.1,0-.1.1-.2.3-.1.6,0,2.2,0,2.9,0,2.7.7,6,.3,8.7,0,.4-.6,2.2-.5,2.4.2.6,1-.3,1.1-.6,1.3-2.4.4-6.4.4-9,1.3-2.2,2.8-4.2,4.5-6.1.4-.5,2.5-2.3,2.6-2.6Z"/>
  <path d="M26.2,37.3c0-.1.3-.2.2-.4-.2-.1-1.1.5-1.3.6-2.4,1.5-8.5,6.8-9.6,9.3-.2.5-.3.9-.1,1.4.5.1.4-.1.5-.3.9-1.2,2-2.4,3-3.5,2.2-2.4,5.3-4.7,7.2-7.1Z"/>
  <path d="M75.9,40.1l.8,1.5-1.1.8c.6.4.9.3,1.6,0,.5.7.7,1.4,1.1,2.1,0,.1,0,.3.3.2l-1-2.6c1-1.1,1.4-3.2-.6-3.2-.3,0-.7.3-1,0,0,0-.6-1.1-.6-1.2,0-.4,1-1,.7-1.5-.2-.3-1,0-1.2.3l-1.1-1.7c-.6.6.5,1.7.5,2.2,0,.2-.6,1.1-.7,1.4-.6,2,.9,2,2.3,1.6ZM77.4,40c0,0-.1,1.1-.4,1.2l-.4-1.2h.9ZM74.8,38.5c.2-.2.6.7.5.7h-.7c0,.1.2-.7.2-.7Z"/>
  <path d="M32.1,9.4c.3,1,1.6.2,1.8.3l.5,1.1c0,.1-1.1,1-1.3,1-.4.1.1-.6-.2-.4-.3.1-.8,1-.3,1.2.9.3,2.1-1,2.3-.8l1.2,2.1c.7,0-.7-2.5-.7-2.6,0-.2.7-.9.8-1.3.4-1.5-.8-1.5-2-1.3-.8-1.2,0-1.2.3-2.1,0-.2.1-.3.1-.5l-1.1.9c-.2,0-.8-2.1-1.4-1.9-.3.7.8,2.1.8,2.6,0,.4-1,.9-.7,1.8ZM35.6,9.1c0,.5-.3.9-.6,1.2l-.5-1,1.1-.2Z"/>
  <path d="M60.2,73.2c0,0,0-.3.1-.5.1-.4.5-.8-.3-.4l-.4-.8c0-.1.9-.6.8-.9-.9.3-1.3.7-2.1-.2,0-.3,1.3-1.2,1.3-1.3,0-.1-.2-.2-.3-.1-.8.1-2.5,1.4-3.1,1.9-.2.2-.2.4-.6.5,0,.1,0,.2,0,.4,0,.6,2.5,2.6,3.1,3,.2.1,1.2.7,1.1.2l-.5-.9c0-.2.9-.8,1-.9ZM56.6,71.7c.6-.5,1.1-1,1.6-.2l-.7.7-.9-.5ZM58,72.7l.8-.6c.2,0,.8.6.7.7l-.9.5-.6-.7Z"/>
  <path d="M48.3,86l-7.6,8.9c.5.6,2.7-1.1,3.1-1.4,1-1,3.9-4.8,4.3-6.1,0-.2.4-1.3.1-1.4Z"/>
  <path d="M35.9,78.2c-1-.2-.5.8,0,1.2,1.2,1.2,3.2,2.3,4.6,3.5,1.1,1,2.1,2.1,3.2,3.1,0,0,.7.6.8.5.1-.2-1.2-2.2-1.4-2.4-1-1.4-2.3-2.5-3.7-3.6-.6-.5-2.7-2.1-3.4-2.2Z"/>
  <path d="M72.1,66.4l.2-1.6c.9,0,1.9-.3,2.5-.9,1.1-1.2.9-3.6-1-3.7-1.2,0-2.3.9-2.7,2-.4,1,0,1.6.3,2.5l-1.1,1.4c.4.5,1.1.4,1.7.4ZM73.6,60.9c2.2-.4,1.3,2.3-.2,2.8-.4.1-1.7.2-1.7-.4,0-.9.9-2.3,1.9-2.4Z"/>
  <path d="M26.1,50.8c2,.3,6.5.4,8.2-.6.3-.2,1-.8.8-1.1-.3-.1-.6-.1-.9-.1-1,0-2.3.6-3.5.7-1.8.2-4,.4-5.8.2-.4,0-.7-.2-1.1-.2.6.7,1.5.9,2.3,1Z"/>
  <path d="M13.2,20.7c.3.5.9-.3,1.2-.1l1.1,1.8c.1.6-1.1.7-.9,1,.5.4,1.5-.2,1.5-.2.1,0,.4.5.7.3.4-.2-.3-.7-.3-1,0-.2.4-.9.5-1.2.1-.6.1-1.3-.2-1.8-.7-.9-2,.2-2.3,0-.3-.7-.8-.6-.3-1.4,0,0,.7-.6.3-.7-.4,0-.7.5-.8.9-.1,0-1.1-1.5-1.6-1.3-.4.4,1.1,1.7,1.2,2.1.1.5-.4,1.1,0,1.6ZM16.1,19.6c.2.6.1,1.3-.1,1.9l-1-1.6c.4-.1.7-.5,1.2-.3ZM13.7,19.8h.2v.3h-.2v-.3Z"/>
  <path d="M11.4,35c.9.9,3,2,1.5-.3-.4-.6-1-1.3-1.6-1.7,1.2-1,1.9-2.5,2.8-3.7,0-.1,1.1-1.3,1.1-1.4-1.9.8-2.9,2.9-4.2,4.4-.2.2-.5.3-.5.6,0,.3.6.4.8.6.1.1,1.3,1.3,1.2,1.3-.5,0-.5-.7-1.1-.5-.2,0-1,.9-1.1,1-.2.8,1-.2,1.2-.4Z"/>
  <path d="M51.8,33.9v.5c.1,0,1.3.2,1.3.2l-.2.7.7-.5c0,.3,0,1.8.4.9.1-.4.2-.9.2-1.3l1.5.8-.4-.8c0-.2,1.2-.4,1.4-.5.2-.1,0-.2-.2-.3-.6,0-1.4,0-2.1,0l1-1.7c-.3-.2-1,.9-1.3,1,0-.3,0-1.4-.4-1.4-.4.1-.5.7-.5,1.1,0,0-.8-.5-1,0-.2.5.8.9,1.1,1.2-.2,0-1.6,0-1.6.3Z"/>
  <path d="M45.1,85c.1.1.2.3.4.2,0-.6-.3-1.2-.6-1.8-.6-1-2.8-3.2-3.9-3.3-.5,0-.9.3-.5.7,1.1.9,2.4,1.8,3.5,2.8.5.4.8.9,1.2,1.3Z"/>
  <path d="M40.2,83.2c-.2,0-.3,0-.5.1-1.6.8-3.3,2.8-5.1,3.6-.9,1.4.4,1,1.3.5,1.6-1,3.3-2.6,4.2-4.3Z"/>
  <path d="M42.1,87.7c.2-.3.8-1.5,0-1.1-.8.3-3.2,2.3-3.5,3.1,0,.2-.1.5,0,.7,0,0,.3.1.4.1.8,0,2.7-2,3.1-2.7Z"/>
  <path d="M13.1,42.8c0,0-.2-.2-.2-.3,0-.7.9-4,.7-4.3-.2-.3-.7,1-.8,1.1-.3,1-.4,2.1-.5,3.1l-1.7-.2v-.3c0,0-.6.5-.6.5.1,1.1-.4,2.4,0,3.5.1.4.4.5.5,0,.2-.9-.1-2.1.1-3.1.1-.1,2.5.4,2.5,0Z"/>
  <path d="M41.1,36.8c.2,0,.5.1.6,0,.1-.2-.3-2.7-.4-3.2,0-.4,0-2.4-.6-2.3-.9.8-.6,5.1.4,5.5Z"/>
  <path d="M20.9,18.2l1.1,1.4-.5-1.9c.2-.2,1.8-1.5,1.6-1.7-.8-.3-1.3.5-2,.9-.3,0-.6-1.9-1.3-1.6-.1.8.4,1.4.7,2.1,0,.2-1.6.7-1.4,1.2.6,0,1.2-.2,1.8-.4Z"/>
  <path d="M15.8,51.3c-.8.6-3.1,3.5-3,4.5,0,.2.3.5.5.3l3.3-5.3c-.1,0-.7.4-.9.5Z"/>
  <path d="M31.5,28.9c-.9.2-1.2,1.2-1.3,1.9-.3,1.4-.4,3.3,0,4.7h.3c.2-2.2.2-4.6,1.1-6.6Z"/>
  <path d="M57.1,25.6c.4-.3,5-4.5,4.8-4.7-.1-.1-1.6,1-1.8,1.1-.6.4-3.2,2.6-3.3,3.1,0,.3,0,.5.4.5Z"/>
  <path d="M38.7,34.2c-1.2.8-2.2-.4-2.8-.3-.7.2-.2,1.1.4,1.4,1.5.6,3.1,0,3.2-1.8-.1-.1-.7.5-.8.6Z"/>
  <path d="M29.3,33.5c0-1,0-2,.1-3,0-.3.3-.7,0-1-.7.3-.9,1-1,1.8,0,.5,0,3,.6,3,.3,0,.4-.5.4-.7Z"/>
  <path d="M35.7,29.9c-.4.5-1,1.4-.4,2,.3.2.6,0,.8-.2.3-.3,1.4-2.3,1.6-2.7,0-.1.1-.2.1-.4-.8.1-1.6.6-2.1,1.2Z"/>
  <path d="M32.3,85c-.4.4-1,.9-1.3,1.4-.2.4,0,.5.4.3.7-.3,2.1-2.4,2.7-3.1.4-.5,1.1-1.1,1.5-1.6,0-.1.3-.2.2-.4-1.6.7-2.5,2.1-3.6,3.3Z"/>
  <path d="M49.6,9.5c.3,0,.7.1,1,.2,1.6.2,3.3.3,4.9.3,0-.2,0-.2-.2-.3-.6-.4-3.9-.7-4.8-.8-.3,0-1.3,0-1.5.2,0,.2.4.3.6.4Z"/>
  <path d="M38.7,40.1c-.5.4-1.5,2-.4,2.1.5,0,1.5-2.1,2.3-2.1-.1-1-1.4-.4-1.9,0Z"/>
  <path d="M14,37.7c-.4.1-.4.5,0,.7.4.3,2.4.3,3,.2.4,0,.7-.2,1.1-.2,0-.2,0-.3-.3-.3-.6-.3-3.2-.6-3.8-.4Z"/>
  <path d="M51.1,39c.3-2.5-1-4.8-2.2-6.9-.2-.3-.5-.2-.5.2s.8,1.3,1.1,1.7c.8,1.3,1.3,3,1.5,4.5,0,.2-.3.5.1.5Z"/>
  <path d="M18.9,38.9c-.3,0-2.5.3-1.8.8.6.3,2.2.3,2.5-.4.1-.3-.8-1.8-1.1-2-.2-.2-.4-.1-.4.2,0,.4.6.9.7,1.4Z"/>
  <path d="M44.3,33c-.3.2-.3.7-.7.8-.4,0-1.5-.7-1.7-.3-.3.4.2.8.5,1,1.2.5,2.1-.2,1.9-1.4Z"/>
  <path d="M61.6,46c-.5.5,1,2.3,1.3,2.1.5-.6-.6-2.6-1.3-2.1Z"/>
  <path d="M38.6,92.6c.7-.7-.5-1.8-1.2-1-.6.7.5,1.8,1.2,1Z"/>
  <path d="M61,23.1c-.5.1-.5,1.1.2,1.2.9.1,1-1.6-.2-1.2Z"/>
  <path d="M56.5,24c.6-.2.4-1.3-.3-1.1-.7.1-.5,1.4.3,1.1Z"/>
</svg>