<?xml version="1.0" encoding="UTF-8"?>
<svg id="Layer_2" data-name="Layer 2" xmlns="http://www.w3.org/2000/svg" viewBox="0 0 448 480">
  <defs>
    <style>
      .cls-1 {
        fill: #1a1a1a;
      }
    </style>
  </defs>
  <g id="Layer_1-2" data-name="Layer 1">
    <path class="cls-1" d="M128,0c-17.7,0-32,14.3-32,32v32h-32C28.7,64,0,92.7,0,128v48h448v-48c0-35.3-28.7-64-64-64h-32v-32c0-17.7-14.3-32-32-32s-32,14.3-32,32v32h-128v-32c0-17.7-14.3-32-32-32ZM0,224v192c0,35.3,28.7,64,64,64h320c35.3,0,64-28.7,64-64v-192H0Z"/>
  </g>
</svg>