<?xml version="1.0" encoding="UTF-8"?>
<svg id="Layer_2" data-name="Layer 2" xmlns="http://www.w3.org/2000/svg" viewBox="0 0 512 512">
  <defs>
    <style>
      .cls-1 {
        fill: #1a1a1a;
      }
    </style>
  </defs>
  <g id="Layer_1-2" data-name="Layer 1">
    <path class="cls-1" d="M256,512c141.4,0,256-114.6,256-256S397.4,0,256,0,0,114.6,0,256s114.6,256,256,256ZM224,160c0-17.7,14.3-32,32-32s32,14.3,32,32-14.3,32-32,32-32-14.3-32-32ZM216,224h48c13.3,0,24,10.7,24,24v88h8c13.3,0,24,10.7,24,24s-10.7,24-24,24h-80c-13.3,0-24-10.7-24-24s10.7-24,24-24h24v-64h-24c-13.3,0-24-10.7-24-24s10.7-24,24-24Z"/>
  </g>
</svg>