<?xml version="1.0" encoding="UTF-8"?>
<svg id="Layer_2" data-name="Layer 2" xmlns="http://www.w3.org/2000/svg" viewBox="0 0 448 448">
  <defs>
    <style>
      .cls-1 {
        fill: #1a1a1a;
      }
    </style>
  </defs>
  <g id="Layer_1-2" data-name="Layer 1">
    <path class="cls-1" d="M64,0C28.7,0,0,28.7,0,64v320c0,35.3,28.7,64,64,64h320c35.3,0,64-28.7,64-64V64c0-35.3-28.7-64-64-64H64ZM69,170.2h66.5v213.8h-66.5v-213.8ZM140.7,102.5c0,21.3-17.2,38.5-38.5,38.5s-38.5-17.2-38.5-38.5,17.2-38.5,38.5-38.5,38.5,17.2,38.5,38.5ZM317.9,384v-104c0-24.8-.5-56.7-34.5-56.7s-39.9,27-39.9,54.9v105.8h-66.4v-213.8h63.7v29.2h.9c8.9-16.8,30.6-34.5,62.9-34.5,67.2,0,79.7,44.3,79.7,101.9v117.2h-66.4Z"/>
  </g>
</svg>