<?xml version="1.0" encoding="UTF-8"?>
<svg id="Layer_2" data-name="Layer 2" xmlns="http://www.w3.org/2000/svg" viewBox="0 0 448 448">
  <defs>
    <style>
      .cls-1 {
        fill: #1a1a1a;
      }
    </style>
  </defs>
  <g id="Layer_1-2" data-name="Layer 1">
    <path class="cls-1" d="M0,64C0,28.7,28.7,0,64,0h320c35.3,0,64,28.7,64,64v320c0,35.3-28.7,64-64,64H64c-35.3,0-64-28.7-64-64V64ZM64,64v64h64v-64h-64ZM384,64h-192v64h192v-64ZM64,192v64h64v-64h-64ZM384,192h-192v64h192v-64ZM64,320v64h64v-64h-64ZM384,320h-192v64h192v-64Z"/>
  </g>
</svg>